{
.appVersion = "1184";
DisplayStrings = (
i
);
copyright = "Copyright (c) 2012, vernon adams (vern@newtypography.co.uk), with Reserved Font Names \"Cutive-Mono\"";
customParameters = (
{
name = note;
value = "";
},
{
name = openTypeNameCompatibleFullName;
value = "Cutive-Mono Regular";
},
{
name = description;
value = "Copyright (c) 2012 by Vernon Adams. All rights reserved.";
},
{
name = openTypeNameLicense;
value = "This Font Software is licensed under the SIL Open Font License, Version 1.1. This license is available with a FAQ at: http://scripts.sil.org/OFL";
},
{
name = openTypeNameLicenseURL;
value = "http://scripts.sil.org/OFL";
},
{
name = openTypeNamePreferedFamilyName;
value = "Cutive-Mono";
},
{
name = openTypeNamePreferedSubfamilyName;
value = Regular;
},
{
name = openTypeNameUniqueID;
value = "vernon adams : Cutive-Mono Regular : 16-10-2012";
},
{
name = openTypeNameVersion;
value = "Version 1.002";
},
{
name = openTypeOS2FamilyClass;
value = (
0,
0
);
},
{
name = fsType;
value = (
0,
0,
0,
0,
0,
0,
0,
0,
0,
0,
0,
0,
0,
0,
0,
0
);
},
{
name = unicodeRanges;
value = (
0,
1,
2,
3,
5,
6,
7,
29,
31,
32,
33,
35,
38,
45,
62
);
},
{
name = vendorID;
value = newt;
},
{
name = blueScale;
value = 0.03963;
},
{
name = blueShift;
value = 7;
},
{
name = trademark;
value = "Cutive-Mono is a trademark of Vernon Adams.";
},
{
name = Axes;
value = (
{
Name = Weight;
Tag = wght;
},
{
Name = Width;
Tag = wdth;
}
);
}
);
date = "2018-12-04 01:14:54 +0000";
designer = "Vernon Adams";
designerURL = newtypography.co.uk;
disablesNiceNames = 1;
familyName = "Cutive-Mono";
featurePrefixes = (
{
automatic = 1;
code = "languagesystem DFLT dflt;\012languagesystem latn dflt;\012languagesystem latn CAT;\012languagesystem latn ROM;\012languagesystem latn MOL;\012";
name = Languagesystems;
}
);
features = (
{
automatic = 1;
code = "feature locl;\012feature frac;\012feature ordn;\012";
name = aalt;
},
{
automatic = 1;

glyphs = (
{
glyphname = A;
lastChange = "2018-12-03 20:18:01 +0000";
layers = (
{
anchors = (
{
name = ogonek;
position = "{876, 10}";
},
{
name = top;
position = "{546, 1171}";
}
);
layerId = master01;
paths = (
{
closed = 1;
nodes = (
"358 0 LINE SMOOTH",
"384 0 OFFCURVE",
"399 21 OFFCURVE",
"399 43 CURVE SMOOTH",
"399 64 OFFCURVE",
"386 86 OFFCURVE",
"359 86 CURVE SMOOTH",
"209 86 LINE",
"232 44 LINE",
"346 434 LINE",
"297 392 LINE",
"762 392 LINE",
"714 434 LINE",
"823 44 LINE",
"846 86 LINE",
"676 86 LINE SMOOTH",
"649 86 OFFCURVE",
"637 65 OFFCURVE",
"637 44 CURVE SMOOTH",
"637 22 OFFCURVE",
"651 0 OFFCURVE",
"677 0 CURVE SMOOTH",
"1003 0 LINE SMOOTH",
"1029 0 OFFCURVE",
"1043 22 OFFCURVE",
"1043 44 CURVE SMOOTH",
"1043 65 OFFCURVE",
"1031 86 OFFCURVE",
"1005 86 CURVE SMOOTH",
"887 86 LINE",
"936 44 LINE",
"611 1106 LINE SMOOTH",
"601 1140 OFFCURVE",
"583 1171 OFFCURVE",
"546 1171 CURVE SMOOTH",
"298 1171 LINE SMOOTH",
"271 1171 OFFCURVE",
"258 1149 OFFCURVE",
"258 1128 CURVE SMOOTH",
"258 1106 OFFCURVE",
"273 1085 OFFCURVE",
"299 1085 CURVE SMOOTH",
"504 1085 LINE",
"484 1127 LINE",
"126 44 LINE",
"176 86 LINE",
"68 86 LINE SMOOTH",
"40 86 OFFCURVE",
"28 64 OFFCURVE",
"28 43 CURVE SMOOTH",
"28 21 OFFCURVE",
"43 0 OFFCURVE",
"68 0 CURVE SMOOTH"
);
},
{
closed = 1;
nodes = (
"551 1114 LINE",
"526 1115 LINE",
"714 432 LINE",
"735 475 LINE",
"327 475 LINE",
"346 433 LINE"
);
}
);
width = 1061;
},
{
anchors = (
{
name = ogonek;
position = "{1018, 10}";
},
{
name = top;
position = "{620, 1218}";
}
);
layerId = "48AFDEF4-2FAB-4AB6-AB64-D7DFD8485508";
paths = (
{
closed = 1;
nodes = (
"376 0 LINE SMOOTH",
"402 0 OFFCURVE",
"417 29 OFFCURVE",
"417 58 CURVE SMOOTH",
"417 91 OFFCURVE",
"408 122 OFFCURVE",
"378 122 CURVE SMOOTH",
"258 122 LINE",
"279 80 LINE",
"394 434 LINE",
"343 392 LINE",
"825 392 LINE",
"776 434 LINE",
"883 80 LINE",
"905 122 LINE",
"769 122 LINE SMOOTH",
"740 122 OFFCURVE",
"730 92 OFFCURVE",
"730 58 CURVE SMOOTH",
"730 28 OFFCURVE",
"745 0 OFFCURVE",
"770 0 CURVE SMOOTH",
"1175 0 LINE SMOOTH",
"1200 0 OFFCURVE",
"1215 28 OFFCURVE",
"1215 58 CURVE SMOOTH",
"1215 91 OFFCURVE",
"1207 122 OFFCURVE",
"1177 122 CURVE SMOOTH",
"1015 122 LINE",
"1066 80 LINE",
"685 1152 LINE SMOOTH",
"673 1187 OFFCURVE",
"656 1218 OFFCURVE",
"620 1218 CURVE SMOOTH",
"358 1218 LINE SMOOTH",
"327 1218 OFFCURVE",
"317 1187 OFFCURVE",
"317 1154 CURVE SMOOTH",
"317 1124 OFFCURVE",
"334 1096 OFFCURVE",
"359 1096 CURVE SMOOTH",
"554 1096 LINE",
"542 1155 LINE",
"125 81 LINE",
"177 122 LINE",
"59 122 LINE SMOOTH",
"28 122 OFFCURVE",
"18 92 OFFCURVE",
"18 58 CURVE SMOOTH",
"18 28 OFFCURVE",
"35 0 OFFCURVE",
"59 0 CURVE SMOOTH"
);
},
{
closed = 1;
nodes = (
"617 1078 LINE",
"576 1078 LINE",
"767 457 LINE",
"789 499 LINE",
"382 499 LINE",
"400 457 LINE"
);
}
);
width = 1227;
},
{
associatedMasterId = master01;
layerId = "9A93A822-8C36-4D9F-8E9F-9627EFFF74EF";
name = "Dec 2 18, 00:09";
paths = (
{
closed = 1;
nodes = (
"438 0 LINE SMOOTH",
"472 0 OFFCURVE",
"489 21 OFFCURVE",
"489 43 CURVE SMOOTH",
"489 64 OFFCURVE",
"472 86 OFFCURVE",
"439 86 CURVE SMOOTH",
"280 86 LINE",
"392 392 LINE",
"875 392 LINE",
"982 86 LINE",
"796 86 LINE SMOOTH",
"763 86 OFFCURVE",
"747 65 OFFCURVE",
"747 44 CURVE SMOOTH",
"747 22 OFFCURVE",
"764 0 OFFCURVE",
"798 0 CURVE SMOOTH",
"1164 0 LINE SMOOTH",
"1197 0 OFFCURVE",
"1214 22 OFFCURVE",
"1214 44 CURVE SMOOTH",
"1214 65 OFFCURVE",
"1198 86 OFFCURVE",
"1166 86 CURVE SMOOTH",
"1087 86 LINE",
"725 1106 LINE SMOOTH",
"713 1140 OFFCURVE",
"690 1171 OFFCURVE",
"644 1171 CURVE SMOOTH",
"341 1171 LINE SMOOTH",
"308 1171 OFFCURVE",
"292 1149 OFFCURVE",
"292 1128 CURVE SMOOTH",
"292 1106 OFFCURVE",
"309 1085 OFFCURVE",
"342 1085 CURVE SMOOTH",
"559 1085 LINE",
"174 86 LINE",
"89 86 LINE SMOOTH",
"56 86 OFFCURVE",
"40 64 OFFCURVE",
"40 43 CURVE SMOOTH",
"40 21 OFFCURVE",
"57 0 OFFCURVE",
"90 0 CURVE SMOOTH"
);
},
{
closed = 1;
nodes = (
"646 1072 LINE",
"845 475 LINE",
"425 475 LINE"
);
},
{
closed = 0;
nodes = (
"636 1076 LINE",
"982 86 LINE"
);
}
);
width = 1240;
},
{
associatedMasterId = "48AFDEF4-2FAB-4AB6-AB64-D7DFD8485508";
layerId = "DDDD23F8-6B7A-4CB8-8E82-3412DE179FA0";
name = "Dec 2 18, 00:17";
paths = (
{
closed = 1;
nodes = (
"438 0 LINE SMOOTH",
"472 0 OFFCURVE",
"489 21 OFFCURVE",
"489 43 CURVE SMOOTH",
"489 64 OFFCURVE",
"472 86 OFFCURVE",
"439 86 CURVE SMOOTH",
"280 86 LINE",
"392 392 LINE",
"835 392 LINE",
"942 86 LINE",
"756 86 LINE SMOOTH",
"723 86 OFFCURVE",
"707 65 OFFCURVE",
"707 44 CURVE SMOOTH",
"707 22 OFFCURVE",
"724 0 OFFCURVE",
"758 0 CURVE SMOOTH",
"1124 0 LINE SMOOTH",
"1157 0 OFFCURVE",
"1174 22 OFFCURVE",
"1174 44 CURVE SMOOTH",
"1174 65 OFFCURVE",
"1158 86 OFFCURVE",
"1126 86 CURVE SMOOTH",
"1047 86 LINE",
"685 1106 LINE SMOOTH",
"673 1140 OFFCURVE",
"650 1171 OFFCURVE",
"604 1171 CURVE SMOOTH",
"341 1171 LINE SMOOTH",
"308 1171 OFFCURVE",
"292 1149 OFFCURVE",
"292 1128 CURVE SMOOTH",
"292 1106 OFFCURVE",
"309 1085 OFFCURVE",
"342 1085 CURVE SMOOTH",
"602 1085 LINE",
"575 1125 LINE",
"174 86 LINE",
"89 86 LINE SMOOTH",
"56 86 OFFCURVE",
"40 64 OFFCURVE",
"40 43 CURVE SMOOTH",
"40 21 OFFCURVE",
"57 0 OFFCURVE",
"90 0 CURVE SMOOTH"
);
},
{
closed = 1;
nodes = (
"651 1113 LINE",
"602 1113 LINE",
"805 475 LINE",
"425 475 LINE"
);
}
);
width = 1200;
},
{
anchors = (
{
name = ogonek;
position = "{1021, 10}";
},
{
name = top;
position = "{644, 1171}";
}
);
layerId = "1027097C-2ACB-4125-B942-0F8B60E4A4BD";
paths = (
{
closed = 1;
nodes = (
"438 0 LINE SMOOTH",
"472 0 OFFCURVE",
"489 21 OFFCURVE",
"489 43 CURVE SMOOTH",
"489 64 OFFCURVE",
"472 86 OFFCURVE",
"439 86 CURVE SMOOTH",
"235 86 LINE",
"265 44 LINE",
"407 434 LINE",
"347 392 LINE",
"920 392 LINE",
"860 434 LINE",
"997 44 LINE",
"1027 86 LINE",
"796 86 LINE SMOOTH",
"763 86 OFFCURVE",
"747 65 OFFCURVE",
"747 44 CURVE SMOOTH",
"747 22 OFFCURVE",
"764 0 OFFCURVE",
"798 0 CURVE SMOOTH",
"1164 0 LINE SMOOTH",
"1197 0 OFFCURVE",
"1214 22 OFFCURVE",
"1214 44 CURVE SMOOTH",
"1214 65 OFFCURVE",
"1198 86 OFFCURVE",
"1166 86 CURVE SMOOTH",
"1042 86 LINE",
"1102 44 LINE",
"725 1106 LINE SMOOTH",
"713 1140 OFFCURVE",
"689 1171 OFFCURVE",
"644 1171 CURVE SMOOTH",
"341 1171 LINE SMOOTH",
"308 1171 OFFCURVE",
"292 1149 OFFCURVE",
"292 1128 CURVE SMOOTH",
"292 1106 OFFCURVE",
"309 1085 OFFCURVE",
"342 1085 CURVE SMOOTH",
"604 1085 LINE",
"575 1127 LINE",
"158 44 LINE",
"219 86 LINE",
"89 86 LINE SMOOTH",
"56 86 OFFCURVE",
"40 64 OFFCURVE",
"40 43 CURVE SMOOTH",
"40 21 OFFCURVE",
"57 0 OFFCURVE",
"90 0 CURVE SMOOTH"
);
},
{
closed = 1;
nodes = (
"662 1114 LINE",
"632 1115 LINE",
"859 432 LINE",
"890 475 LINE",
"380 475 LINE",
"409 433 LINE"
);
}
);
width = 1240;
},
{
anchors = (
{
name = ogonek;
position = "{1163, 10}";
},
{
name = top;
position = "{718, 1218}";
}
);
layerId = "87D9408F-A41F-4898-A746-FF2057AB3891";
paths = (
{
closed = 1;
nodes = (
"456 0 LINE SMOOTH",
"489 0 OFFCURVE",
"507 28 OFFCURVE",
"507 58 CURVE SMOOTH",
"507 92 OFFCURVE",
"493 122 OFFCURVE",
"458 122 CURVE SMOOTH",
"284 122 LINE",
"312 80 LINE",
"455 434 LINE",
"393 392 LINE",
"983 392 LINE",
"922 434 LINE",
"1057 80 LINE",
"1086 122 LINE",
"889 122 LINE SMOOTH",
"854 122 OFFCURVE",
"840 92 OFFCURVE",
"840 58 CURVE SMOOTH",
"840 28 OFFCURVE",
"858 0 OFFCURVE",
"891 0 CURVE SMOOTH",
"1336 0 LINE SMOOTH",
"1368 0 OFFCURVE",
"1386 28 OFFCURVE",
"1386 58 CURVE SMOOTH",
"1386 92 OFFCURVE",
"1373 122 OFFCURVE",
"1338 122 CURVE SMOOTH",
"1170 122 LINE",
"1232 80 LINE",
"799 1152 LINE SMOOTH",
"785 1187 OFFCURVE",
"763 1218 OFFCURVE",
"718 1218 CURVE SMOOTH",
"401 1218 LINE SMOOTH",
"365 1218 OFFCURVE",
"351 1188 OFFCURVE",
"351 1154 CURVE SMOOTH",
"351 1124 OFFCURVE",
"370 1096 OFFCURVE",
"402 1096 CURVE SMOOTH",
"654 1096 LINE",
"633 1155 LINE",
"157 81 LINE",
"220 122 LINE",
"80 122 LINE SMOOTH",
"44 122 OFFCURVE",
"30 92 OFFCURVE",
"30 58 CURVE SMOOTH",
"30 28 OFFCURVE",
"49 0 OFFCURVE",
"81 0 CURVE SMOOTH"
);
},
{
closed = 1;
nodes = (
"713 1078 LINE",
"680 1078 LINE",
"915 457 LINE",
"944 499 LINE",
"435 499 LINE",
"464 457 LINE"
);
}
);
width = 1406;
}
);
unicode = 0041;
},
{
glyphname = AE;
lastChange = "2018-12-02 23:35:38 +0000";
layers = (
{
layerId = master01;
paths = (
{
closed = 1;
nodes = (
"55 0 OFFCURVE",
"38 21 OFFCURVE",
"38 43 CURVE SMOOTH",
"38 64 OFFCURVE",
"54 86 OFFCURVE",
"87 86 CURVE SMOOTH",
"138 86 LINE",
"463 1085 LINE",
"301 1085 LINE SMOOTH",
"268 1085 OFFCURVE",
"251 1106 OFFCURVE",
"251 1128 CURVE SMOOTH",
"251 1149 OFFCURVE",
"267 1171 OFFCURVE",
"300 1171 CURVE SMOOTH",
"1050 1171 LINE SMOOTH",
"1083 1171 OFFCURVE",
"1106 1151 OFFCURVE",
"1106 1117 CURVE SMOOTH",
"1106 893 LINE SMOOTH",
"1106 863 OFFCURVE",
"1086 849 OFFCURVE",
"1066 849 CURVE SMOOTH",
"1046 849 OFFCURVE",
"1028 862 OFFCURVE",
"1027 887 CURVE SMOOTH",
"1013 1085 LINE",
"729 1085 LINE",
"729 637 LINE",
"871 637 LINE",
"884 740 LINE SMOOTH",
"887 770 OFFCURVE",
"906 785 OFFCURVE",
"924 785 CURVE SMOOTH",
"943 785 OFFCURVE",
"962 769 OFFCURVE",
"962 732 CURVE SMOOTH",
"962 460 LINE SMOOTH",
"962 425 OFFCURVE",
"943 409 OFFCURVE",
"924 409 CURVE SMOOTH",
"905 409 OFFCURVE",
"886 424 OFFCURVE",
"884 452 CURVE",
"871 560 LINE",
"729 560 LINE",
"729 85 LINE",
"1016 85 LINE",
"1032 296 LINE SMOOTH",
"1033 320 OFFCURVE",
"1052 335 OFFCURVE",
"1073 335 CURVE SMOOTH",
"1094 335 OFFCURVE",
"1115 319 OFFCURVE",
"1115 283 CURVE SMOOTH",
"1115 53 LINE SMOOTH",
"1115 19 OFFCURVE",
"1092 0 OFFCURVE",
"1059 0 CURVE SMOOTH",
"613 0 LINE SMOOTH",
"579 0 OFFCURVE",
"562 22 OFFCURVE",
"562 43 CURVE SMOOTH",
"562 64 OFFCURVE",
"579 85 OFFCURVE",
"612 85 CURVE SMOOTH",
"642 85 LINE",
"642 392 LINE",
"327 392 LINE",
"231 86 LINE",
"398 86 LINE SMOOTH",
"431 86 OFFCURVE",
"448 64 OFFCURVE",
"448 43 CURVE SMOOTH",
"448 21 OFFCURVE",
"431 0 OFFCURVE",
"397 0 CURVE SMOOTH",
"88 0 LINE SMOOTH"
);
},
{
closed = 1;
nodes = (
"642 1085 LINE",
"545 1085 LINE",
"354 475 LINE",
"642 475 LINE"
);
}
);
width = 1240;
},
{
layerId = "48AFDEF4-2FAB-4AB6-AB64-D7DFD8485508";
width = 600;
},
{
layerId = "1027097C-2ACB-4125-B942-0F8B60E4A4BD";
paths = (
{
closed = 1;
nodes = (
"55 0 OFFCURVE",
"38 21 OFFCURVE",
"38 43 CURVE SMOOTH",
"38 64 OFFCURVE",
"54 86 OFFCURVE",
"87 86 CURVE SMOOTH",
"138 86 LINE",
"463 1085 LINE",
"301 1085 LINE SMOOTH",
"268 1085 OFFCURVE",
"251 1106 OFFCURVE",
"251 1128 CURVE SMOOTH",
"251 1149 OFFCURVE",
"267 1171 OFFCURVE",
"300 1171 CURVE SMOOTH",
"1050 1171 LINE SMOOTH",
"1083 1171 OFFCURVE",
"1106 1151 OFFCURVE",
"1106 1117 CURVE SMOOTH",
"1106 893 LINE SMOOTH",
"1106 863 OFFCURVE",
"1086 849 OFFCURVE",
"1066 849 CURVE SMOOTH",
"1046 849 OFFCURVE",
"1028 862 OFFCURVE",
"1027 887 CURVE SMOOTH",
"1013 1085 LINE",
"729 1085 LINE",
"729 637 LINE",
"871 637 LINE",
"884 740 LINE SMOOTH",
"887 770 OFFCURVE",
"906 785 OFFCURVE",
"924 785 CURVE SMOOTH",
"943 785 OFFCURVE",
"962 769 OFFCURVE",
"962 732 CURVE SMOOTH",
"962 460 LINE SMOOTH",
"962 425 OFFCURVE",
"943 409 OFFCURVE",
"924 409 CURVE SMOOTH",
"905 409 OFFCURVE",
"886 424 OFFCURVE",
"884 452 CURVE",
"871 560 LINE",
"729 560 LINE",
"729 85 LINE",
"1016 85 LINE",
"1032 296 LINE SMOOTH",
"1033 320 OFFCURVE",
"1052 335 OFFCURVE",
"1073 335 CURVE SMOOTH",
"1094 335 OFFCURVE",
"1115 319 OFFCURVE",
"1115 283 CURVE SMOOTH",
"1115 53 LINE SMOOTH",
"1115 19 OFFCURVE",
"1092 0 OFFCURVE",
"1059 0 CURVE SMOOTH",
"613 0 LINE SMOOTH",
"579 0 OFFCURVE",
"562 22 OFFCURVE",
"562 43 CURVE SMOOTH",
"562 64 OFFCURVE",
"579 85 OFFCURVE",
"612 85 CURVE SMOOTH",
"642 85 LINE",
"642 392 LINE",
"327 392 LINE",
"231 86 LINE",
"398 86 LINE SMOOTH",
"431 86 OFFCURVE",
"448 64 OFFCURVE",
"448 43 CURVE SMOOTH",
"448 21 OFFCURVE",
"431 0 OFFCURVE",
"397 0 CURVE SMOOTH",
"88 0 LINE SMOOTH"
);
},
{
closed = 1;
nodes = (
"642 1085 LINE",
"545 1085 LINE",
"354 475 LINE",
"642 475 LINE"
);
}
);
width = 1240;
},
{
anchors = (
{
name = top;
position = "{1024, 1714}";
}
);
layerId = "87D9408F-A41F-4898-A746-FF2057AB3891";
paths = (
{
closed = 1;
nodes = (
"-77 121 OFFCURVE",
"-45 176 OFFCURVE",
"3 176 CURVE SMOOTH",
"140 176 LINE",
"1115 1649 LINE",
"1160 1713 OFFCURVE",
"1222 1714 OFFCURVE",
"1326 1714 CURVE SMOOTH",
"2368 1714 LINE SMOOTH",
"2484 1714 OFFCURVE",
"2551 1367 OFFCURVE",
"2551 1276 CURVE SMOOTH",
"2551 1235 OFFCURVE",
"2529 1206 OFFCURVE",
"2485 1206 CURVE SMOOTH",
"2426 1206 OFFCURVE",
"2384 1234 OFFCURVE",
"2371 1282 CURVE SMOOTH",
"2303 1538 LINE",
"1394 1538 LINE",
"1498 967 LINE",
"1818 967 LINE",
"1836 1153 LINE",
"1841 1192 OFFCURVE",
"1864 1221 OFFCURVE",
"1904 1221 CURVE SMOOTH",
"1952 1221 OFFCURVE",
"1985 1186 OFFCURVE",
"1990 1141 CURVE SMOOTH",
"2016 899 LINE",
"2076 649 LINE",
"2076 635 LINE SMOOTH",
"2076 591 OFFCURVE",
"2056 569 OFFCURVE",
"2016 569 CURVE SMOOTH",
"1972 569 OFFCURVE",
"1944 602 OFFCURVE",
"1928 637 CURVE SMOOTH",
"1844 823 LINE",
"1525 823 LINE",
"1643 176 LINE",
"2452 176 LINE",
"2516 506 LINE",
"2527 550 OFFCURVE",
"2554 582 OFFCURVE",
"2602 582 CURVE SMOOTH",
"2649 582 OFFCURVE",
"2683 551 OFFCURVE",
"2690 508 CURVE",
"2690 488 LINE SMOOTH",
"2690 482 OFFCURVE",
"2691 476 OFFCURVE",
"2694 469 CURVE",
"2694 78 LINE",
"2690 27 OFFCURVE",
"2672 0 OFFCURVE",
"2627 0 CURVE SMOOTH",
"1156 0 LINE SMOOTH",
"1111 0 OFFCURVE",
"1091 35 OFFCURVE",
"1091 78 CURVE SMOOTH",
"1091 127 OFFCURVE",
"1120 176 OFFCURVE",
"1172 176 CURVE SMOOTH",
"1398 176 LINE",
"1334 567 LINE",
"605 567 LINE",
"361 176 LINE",
"548 176 LINE SMOOTH",
"597 176 OFFCURVE",
"630 142 OFFCURVE",
"630 96 CURVE SMOOTH",
"630 41 OFFCURVE",
"587 0 OFFCURVE",
"527 0 CURVE SMOOTH",
"-13 0 LINE SMOOTH",
"-55 0 OFFCURVE",
"-77 34 OFFCURVE",
"-77 74 CURVE SMOOTH"
);
},
{
closed = 1;
nodes = (
"1310 721 LINE",
"1185 1499 LINE",
"699 721 LINE"
);
}
);
width = 2048;
}
);
unicode = 00C6;
},
{
glyphname = B;
lastChange = "2018-12-02 23:35:38 +0000";
layers = (
{
layerId = master01;
paths = (
{
closed = 1;
nodes = (
"921 1036 OFFCURVE",
"793 1085 OFFCURVE",
"605 1085 CURVE SMOOTH",
"499 1085 LINE",
"499 673 LINE",
"629 673 LINE SMOOTH",
"776 673 OFFCURVE",
"921 733 OFFCURVE",
"921 885 CURVE SMOOTH"
);
},
{
closed = 1;
nodes = (
"1008 575 OFFCURVE",
"826 597 OFFCURVE",
"629 597 CURVE SMOOTH",
"499 597 LINE",
"499 86 LINE",
"605 86 LINE SMOOTH",
"841 86 OFFCURVE",
"1008 153 OFFCURVE",
"1008 363 CURVE SMOOTH"
);
},
{
closed = 1;
nodes = (
"1104 99 OFFCURVE",
"881 0 OFFCURVE",
"602 0 CURVE SMOOTH",
"244 0 LINE SMOOTH",
"210 0 OFFCURVE",
"193 21 OFFCURVE",
"193 43 CURVE SMOOTH",
"193 64 OFFCURVE",
"210 86 OFFCURVE",
"243 86 CURVE SMOOTH",
"403 86 LINE",
"403 1085 LINE",
"237 1085 LINE SMOOTH",
"204 1085 OFFCURVE",
"188 1107 OFFCURVE",
"188 1129 CURVE SMOOTH",
"188 1150 OFFCURVE",
"204 1171 OFFCURVE",
"236 1171 CURVE SMOOTH",
"592 1171 LINE SMOOTH",
"817 1171 OFFCURVE",
"1007 1106 OFFCURVE",
"1007 889 CURVE SMOOTH",
"1007 766 OFFCURVE",
"932 686 OFFCURVE",
"843 660 CURVE",
"985 639 OFFCURVE",
"1104 548 OFFCURVE",
"1104 348 CURVE SMOOTH"
);
}
);
width = 1240;
},
{
layerId = "48AFDEF4-2FAB-4AB6-AB64-D7DFD8485508";
width = 600;
},
{
layerId = "1027097C-2ACB-4125-B942-0F8B60E4A4BD";
paths = (
{
closed = 1;
nodes = (
"921 1036 OFFCURVE",
"793 1085 OFFCURVE",
"605 1085 CURVE SMOOTH",
"499 1085 LINE",
"499 673 LINE",
"629 673 LINE SMOOTH",
"776 673 OFFCURVE",
"921 733 OFFCURVE",
"921 885 CURVE SMOOTH"
);
},
{
closed = 1;
nodes = (
"1008 575 OFFCURVE",
"826 597 OFFCURVE",
"629 597 CURVE SMOOTH",
"499 597 LINE",
"499 86 LINE",
"605 86 LINE SMOOTH",
"841 86 OFFCURVE",
"1008 153 OFFCURVE",
"1008 363 CURVE SMOOTH"
);
},
{
closed = 1;
nodes = (
"1104 99 OFFCURVE",
"881 0 OFFCURVE",
"602 0 CURVE SMOOTH",
"244 0 LINE SMOOTH",
"210 0 OFFCURVE",
"193 21 OFFCURVE",
"193 43 CURVE SMOOTH",
"193 64 OFFCURVE",
"210 86 OFFCURVE",
"243 86 CURVE SMOOTH",
"403 86 LINE",
"403 1085 LINE",
"237 1085 LINE SMOOTH",
"204 1085 OFFCURVE",
"188 1107 OFFCURVE",
"188 1129 CURVE SMOOTH",
"188 1150 OFFCURVE",
"204 1171 OFFCURVE",
"236 1171 CURVE SMOOTH",
"592 1171 LINE SMOOTH",
"817 1171 OFFCURVE",
"1007 1106 OFFCURVE",
"1007 889 CURVE SMOOTH",
"1007 766 OFFCURVE",
"932 686 OFFCURVE",
"843 660 CURVE",
"985 639 OFFCURVE",
"1104 548 OFFCURVE",
"1104 348 CURVE SMOOTH"
);
}
);
width = 1240;
},
{
layerId = "87D9408F-A41F-4898-A746-FF2057AB3891";
paths = (
{
closed = 1;
nodes = (
"1764 145 OFFCURVE",
"1396 0 OFFCURVE",
"1030 0 CURVE SMOOTH",
"123 0 LINE SMOOTH",
"76 0 OFFCURVE",
"49 40 OFFCURVE",
"49 84 CURVE SMOOTH",
"49 134 OFFCURVE",
"70 176 OFFCURVE",
"121 176 CURVE SMOOTH",
"385 176 LINE",
"385 1538 LINE",
"172 1538 LINE SMOOTH",
"125 1538 OFFCURVE",
"99 1578 OFFCURVE",
"99 1622 CURVE SMOOTH",
"99 1672 OFFCURVE",
"119 1714 OFFCURVE",
"170 1714 CURVE SMOOTH",
"987 1714 LINE SMOOTH",
"1317 1714 OFFCURVE",
"1595 1615 OFFCURVE",
"1595 1279 CURVE SMOOTH",
"1595 1111 OFFCURVE",
"1485 1002 OFFCURVE",
"1354 967 CURVE",
"1577 936 OFFCURVE",
"1764 803 OFFCURVE",
"1764 510 CURVE SMOOTH"
);
},
{
closed = 1;
nodes = (
"1514 835 OFFCURVE",
"1300 866 OFFCURVE",
"1069 866 CURVE SMOOTH",
"619 866 LINE",
"619 176 LINE",
"1033 176 LINE SMOOTH",
"1314 176 OFFCURVE",
"1514 262 OFFCURVE",
"1514 532 CURVE SMOOTH"
);
},
{
closed = 1;
nodes = (
"1394 1472 OFFCURVE",
"1238 1538 OFFCURVE",
"1006 1538 CURVE SMOOTH",
"619 1538 LINE",
"619 995 LINE",
"1069 995 LINE SMOOTH",
"1231 995 OFFCURVE",
"1394 1074 OFFCURVE",
"1394 1267 CURVE SMOOTH"
);
}
);
width = 2048;
}
);
unicode = 0042;
},
{
glyphname = C;
lastChange = "2018-12-02 23:35:38 +0000";
layers = (
{
layerId = master01;
paths = (
{
closed = 1;
nodes = (
"1108 168 OFFCURVE",
"959 -17 OFFCURVE",
"669 -17 CURVE SMOOTH",
"361 -17 OFFCURVE",
"132 225 OFFCURVE",
"132 607 CURVE SMOOTH",
"132 954 OFFCURVE",
"360 1187 OFFCURVE",
"668 1187 CURVE SMOOTH",
"827 1187 OFFCURVE",
"968 1113 OFFCURVE",
"1022 1015 CURVE",
"1022 1121 LINE SMOOTH",
"1022 1154 OFFCURVE",
"1047 1171 OFFCURVE",
"1071 1171 CURVE SMOOTH",
"1096 1171 OFFCURVE",
"1120 1154 OFFCURVE",
"1120 1120 CURVE SMOOTH",
"1120 827 LINE SMOOTH",
"1120 795 OFFCURVE",
"1097 780 OFFCURVE",
"1074 780 CURVE SMOOTH",
"1050 780 OFFCURVE",
"1031 797 OFFCURVE",
"1026 827 CURVE SMOOTH",
"995 991 OFFCURVE",
"850 1101 OFFCURVE",
"671 1101 CURVE SMOOTH",
"396 1101 OFFCURVE",
"228 890 OFFCURVE",
"228 600 CURVE SMOOTH",
"228 263 OFFCURVE",
"435 69 OFFCURVE",
"670 69 CURVE SMOOTH",
"863 69 OFFCURVE",
"995 182 OFFCURVE",
"1049 359 CURVE SMOOTH",
"1056 379 OFFCURVE",
"1072 387 OFFCURVE",
"1089 387 CURVE SMOOTH",
"1116 387 OFFCURVE",
"1146 367 OFFCURVE",
"1146 343 CURVE SMOOTH",
"1146 341 OFFCURVE",
"1146 338 OFFCURVE",
"1145 336 CURVE SMOOTH"
);
}
);
width = 1240;
},
{
layerId = "48AFDEF4-2FAB-4AB6-AB64-D7DFD8485508";
width = 600;
},
{
layerId = "1027097C-2ACB-4125-B942-0F8B60E4A4BD";
paths = (
{
closed = 1;
nodes = (
"1108 168 OFFCURVE",
"959 -17 OFFCURVE",
"669 -17 CURVE SMOOTH",
"361 -17 OFFCURVE",
"132 225 OFFCURVE",
"132 607 CURVE SMOOTH",
"132 954 OFFCURVE",
"360 1187 OFFCURVE",
"668 1187 CURVE SMOOTH",
"827 1187 OFFCURVE",
"968 1113 OFFCURVE",
"1022 1015 CURVE",
"1022 1121 LINE SMOOTH",
"1022 1154 OFFCURVE",
"1047 1171 OFFCURVE",
"1071 1171 CURVE SMOOTH",
"1096 1171 OFFCURVE",
"1120 1154 OFFCURVE",
"1120 1120 CURVE SMOOTH",
"1120 827 LINE SMOOTH",
"1120 795 OFFCURVE",
"1097 780 OFFCURVE",
"1074 780 CURVE SMOOTH",
"1050 780 OFFCURVE",
"1031 797 OFFCURVE",
"1026 827 CURVE SMOOTH",
"995 991 OFFCURVE",
"850 1101 OFFCURVE",
"671 1101 CURVE SMOOTH",
"396 1101 OFFCURVE",
"228 890 OFFCURVE",
"228 600 CURVE SMOOTH",
"228 263 OFFCURVE",
"435 69 OFFCURVE",
"670 69 CURVE SMOOTH",
"863 69 OFFCURVE",
"995 182 OFFCURVE",
"1049 359 CURVE SMOOTH",
"1056 379 OFFCURVE",
"1072 387 OFFCURVE",
"1089 387 CURVE SMOOTH",
"1116 387 OFFCURVE",
"1146 367 OFFCURVE",
"1146 343 CURVE SMOOTH",
"1146 341 OFFCURVE",
"1146 338 OFFCURVE",
"1145 336 CURVE SMOOTH"
);
}
);
width = 1240;
},
{
anchors = (
{
name = bottom;
position = "{1024, 0}";
},
{
name = top;
position = "{1024, 1714}";
}
);
layerId = "87D9408F-A41F-4898-A746-FF2057AB3891";
paths = (
{
closed = 1;
nodes = (
"1710 249 OFFCURVE",
"1422 -25 OFFCURVE",
"973 -25 CURVE SMOOTH",
"468 -25 OFFCURVE",
"93 330 OFFCURVE",
"93 889 CURVE SMOOTH",
"93 1399 OFFCURVE",
"475 1739 OFFCURVE",
"992 1739 CURVE SMOOTH",
"1210 1739 OFFCURVE",
"1359 1661 OFFCURVE",
"1479 1538 CURVE",
"1479 1642 LINE SMOOTH",
"1479 1693 OFFCURVE",
"1521 1714 OFFCURVE",
"1571 1714 CURVE SMOOTH",
"1615 1714 OFFCURVE",
"1655 1687 OFFCURVE",
"1655 1640 CURVE SMOOTH",
"1655 1266 LINE SMOOTH",
"1655 1219 OFFCURVE",
"1615 1192 OFFCURVE",
"1571 1192 CURVE SMOOTH",
"1526 1192 OFFCURVE",
"1511 1236 OFFCURVE",
"1487 1270 CURVE",
"1389 1431 OFFCURVE",
"1243 1550 OFFCURVE",
"992 1550 CURVE SMOOTH",
"596 1550 OFFCURVE",
"356 1268 OFFCURVE",
"356 878 CURVE SMOOTH",
"356 439 OFFCURVE",
"585 171 OFFCURVE",
"992 171 CURVE SMOOTH",
"1275 171 OFFCURVE",
"1452 336 OFFCURVE",
"1502 590 CURVE SMOOTH",
"1512 638 OFFCURVE",
"1558 661 OFFCURVE",
"1604 661 CURVE SMOOTH",
"1656 661 OFFCURVE",
"1710 630 OFFCURVE",
"1710 571 CURVE SMOOTH"
);
}
);
width = 2048;
}
);
unicode = 0043;
},
{
glyphname = D;
lastChange = "2018-12-03 21:37:22 +0000";
layers = (
{
anchors = (
{
name = center;
position = "{519, 566}";
},
{
name = top;
position = "{519, 1171}";
}
);
layerId = master01;
paths = (
{
closed = 1;
nodes = (
"476 0 LINE SMOOTH",
"780 0 OFFCURVE",
"982 172 OFFCURVE",
"982 583 CURVE SMOOTH",
"982 996 OFFCURVE",
"778 1171 OFFCURVE",
"476 1171 CURVE SMOOTH",
"136 1171 LINE SMOOTH",
"110 1171 OFFCURVE",
"95 1149 OFFCURVE",
"95 1127 CURVE SMOOTH",
"95 1106 OFFCURVE",
"107 1085 OFFCURVE",
"134 1085 CURVE SMOOTH",
"255 1085 LINE",
"255 86 LINE",
"113 86 LINE SMOOTH",
"86 86 OFFCURVE",
"73 64 OFFCURVE",
"73 43 CURVE SMOOTH",
"73 21 OFFCURVE",
"88 0 OFFCURVE",
"114 0 CURVE SMOOTH"
);
},
{
closed = 1;
nodes = (
"360 1085 LINE",
"492 1085 LINE SMOOTH",
"732 1085 OFFCURVE",
"874 906 OFFCURVE",
"874 591 CURVE SMOOTH",
"874 256 OFFCURVE",
"718 86 OFFCURVE",
"442 86 CURVE SMOOTH",
"360 86 LINE"
);
}
);
width = 1098;
},
{
anchors = (
{
name = center;
position = "{719, 596}";
},
{
name = top;
position = "{719, 1201}";
}
);
layerId = "48AFDEF4-2FAB-4AB6-AB64-D7DFD8485508";
paths = (
{
closed = 1;
nodes = (
"599 0 LINE SMOOTH",
"934 0 OFFCURVE",
"1198 202 OFFCURVE",
"1198 610 CURVE SMOOTH",
"1198 987 OFFCURVE",
"972 1201 OFFCURVE",
"598 1201 CURVE SMOOTH",
"155 1201 LINE SMOOTH",
"129 1201 OFFCURVE",
"113 1174 OFFCURVE",
"113 1141 CURVE SMOOTH",
"113 1113 OFFCURVE",
"124 1085 OFFCURVE",
"154 1085 CURVE SMOOTH",
"262 1085 LINE",
"262 117 LINE",
"100 117 LINE SMOOTH",
"70 117 OFFCURVE",
"59 86 OFFCURVE",
"59 59 CURVE SMOOTH",
"59 26 OFFCURVE",
"75 0 OFFCURVE",
"101 0 CURVE SMOOTH"
);
},
{
closed = 1;
nodes = (
"421 1085 LINE",
"614 1085 LINE SMOOTH",
"872 1085 OFFCURVE",
"1033 904 OFFCURVE",
"1033 609 CURVE SMOOTH",
"1033 246 OFFCURVE",
"788 117 OFFCURVE",
"493 117 CURVE",
"421 117 LINE"
);
}
);
width = 1296;
},
{
anchors = (
{
name = center;
position = "{515, 566}";
},
{
name = top;
position = "{515, 1171}";
}
);
layerId = "1027097C-2ACB-4125-B942-0F8B60E4A4BD";
paths = (
{
closed = 1;
nodes = (
"513 0 LINE SMOOTH",
"874 0 OFFCURVE",
"1084 168 OFFCURVE",
"1084 591 CURVE SMOOTH",
"1084 993 OFFCURVE",
"858 1171 OFFCURVE",
"515 1171 CURVE SMOOTH",
"157 1171 LINE SMOOTH",
"124 1171 OFFCURVE",
"107 1149 OFFCURVE",
"107 1127 CURVE SMOOTH",
"107 1106 OFFCURVE",
"123 1085 OFFCURVE",
"155 1085 CURVE SMOOTH",
"314 1085 LINE",
"314 86 LINE",
"151 86 LINE SMOOTH",
"118 86 OFFCURVE",
"101 64 OFFCURVE",
"101 43 CURVE SMOOTH",
"101 21 OFFCURVE",
"118 0 OFFCURVE",
"152 0 CURVE SMOOTH"
);
},
{
closed = 1;
nodes = (
"410 1085 LINE",
"534 1085 LINE SMOOTH",
"827 1085 OFFCURVE",
"988 907 OFFCURVE",
"988 591 CURVE SMOOTH",
"988 256 OFFCURVE",
"851 86 OFFCURVE",
"520 86 CURVE SMOOTH",
"410 86 LINE"
);
}
);
width = 1240;
},
{
anchors = (
{
name = center;
position = "{771, 604}";
},
{
name = top;
position = "{771, 1209}";
}
);
layerId = "87D9408F-A41F-4898-A746-FF2057AB3891";
paths = (
{
closed = 1;
nodes = (
"670 0 LINE SMOOTH",
"1070 0 OFFCURVE",
"1360 212 OFFCURVE",
"1360 611 CURVE SMOOTH",
"1360 1014 OFFCURVE",
"1078 1209 OFFCURVE",
"670 1209 CURVE SMOOTH",
"182 1209 LINE SMOOTH",
"149 1209 OFFCURVE",
"130 1180 OFFCURVE",
"130 1149 CURVE SMOOTH",
"130 1114 OFFCURVE",
"144 1085 OFFCURVE",
"180 1085 CURVE SMOOTH",
"323 1085 LINE",
"323 125 LINE",
"134 125 LINE SMOOTH",
"98 125 OFFCURVE",
"83 95 OFFCURVE",
"83 59 CURVE SMOOTH",
"83 28 OFFCURVE",
"102 0 OFFCURVE",
"135 0 CURVE SMOOTH"
);
},
{
closed = 1;
nodes = (
"488 1085 LINE",
"690 1085 LINE SMOOTH",
"996 1085 OFFCURVE",
"1190 915 OFFCURVE",
"1190 611 CURVE SMOOTH",
"1190 244 OFFCURVE",
"941 125 OFFCURVE",
"584 125 CURVE",
"488 125 LINE"
);
}
);
width = 1494;
}
);
unicode = 0044;
},
{
glyphname = Eth;
lastChange = "2018-12-02 23:35:38 +0000";
layers = (
{
layerId = master01;
paths = (
{
closed = 1;
nodes = (
"135 572 OFFCURVE",
"126 592 OFFCURVE",
"126 611 CURVE SMOOTH",
"126 630 OFFCURVE",
"133 648 OFFCURVE",
"168 648 CURVE SMOOTH",
"314 648 LINE",
"314 1085 LINE",
"155 1085 LINE SMOOTH",
"123 1085 OFFCURVE",
"107 1106 OFFCURVE",
"107 1127 CURVE SMOOTH",
"107 1149 OFFCURVE",
"124 1171 OFFCURVE",
"157 1171 CURVE SMOOTH",
"515 1171 LINE SMOOTH",
"858 1171 OFFCURVE",
"1084 993 OFFCURVE",
"1084 591 CURVE SMOOTH",
"1084 168 OFFCURVE",
"874 0 OFFCURVE",
"513 0 CURVE SMOOTH",
"152 0 LINE SMOOTH",
"118 0 OFFCURVE",
"101 21 OFFCURVE",
"101 43 CURVE SMOOTH",
"101 64 OFFCURVE",
"118 86 OFFCURVE",
"151 86 CURVE SMOOTH",
"314 86 LINE",
"314 572 LINE",
"172 572 LINE SMOOTH"
);
},
{
closed = 1;
nodes = (
"978 907 OFFCURVE",
"827 1085 OFFCURVE",
"534 1085 CURVE SMOOTH",
"420 1085 LINE",
"420 648 LINE",
"607 648 LINE SMOOTH",
"640 648 OFFCURVE",
"646 630 OFFCURVE",
"646 611 CURVE SMOOTH",
"646 592 OFFCURVE",
"638 572 OFFCURVE",
"605 572 CURVE SMOOTH",
"420 572 LINE",
"420 86 LINE",
"520 86 LINE SMOOTH",
"851 86 OFFCURVE",
"978 256 OFFCURVE",
"978 591 CURVE SMOOTH"
);
}
);
width = 1240;
},
{
layerId = "48AFDEF4-2FAB-4AB6-AB64-D7DFD8485508";
width = 600;
},
{
layerId = "1027097C-2ACB-4125-B942-0F8B60E4A4BD";
paths = (
{
closed = 1;
nodes = (
"135 572 OFFCURVE",
"126 592 OFFCURVE",
"126 611 CURVE SMOOTH",
"126 630 OFFCURVE",
"133 648 OFFCURVE",
"168 648 CURVE SMOOTH",
"314 648 LINE",
"314 1085 LINE",
"155 1085 LINE SMOOTH",
"123 1085 OFFCURVE",
"107 1106 OFFCURVE",
"107 1127 CURVE SMOOTH",
"107 1149 OFFCURVE",
"124 1171 OFFCURVE",
"157 1171 CURVE SMOOTH",
"515 1171 LINE SMOOTH",
"858 1171 OFFCURVE",
"1084 993 OFFCURVE",
"1084 591 CURVE SMOOTH",
"1084 168 OFFCURVE",
"874 0 OFFCURVE",
"513 0 CURVE SMOOTH",
"152 0 LINE SMOOTH",
"118 0 OFFCURVE",
"101 21 OFFCURVE",
"101 43 CURVE SMOOTH",
"101 64 OFFCURVE",
"118 86 OFFCURVE",
"151 86 CURVE SMOOTH",
"314 86 LINE",
"314 572 LINE",
"172 572 LINE SMOOTH"
);
},
{
closed = 1;
nodes = (
"978 907 OFFCURVE",
"827 1085 OFFCURVE",
"534 1085 CURVE SMOOTH",
"420 1085 LINE",
"420 648 LINE",
"607 648 LINE SMOOTH",
"640 648 OFFCURVE",
"646 630 OFFCURVE",
"646 611 CURVE SMOOTH",
"646 592 OFFCURVE",
"638 572 OFFCURVE",
"605 572 CURVE SMOOTH",
"420 572 LINE",
"420 86 LINE",
"520 86 LINE SMOOTH",
"851 86 OFFCURVE",
"978 256 OFFCURVE",
"978 591 CURVE SMOOTH"
);
}
);
width = 1240;
},
{
layerId = "87D9408F-A41F-4898-A746-FF2057AB3891";
paths = (
{
closed = 1;
nodes = (
"1872 301 OFFCURVE",
"1460 0 OFFCURVE",
"893 0 CURVE SMOOTH",
"135 0 LINE SMOOTH",
"88 0 OFFCURVE",
"61 40 OFFCURVE",
"61 84 CURVE SMOOTH",
"61 134 OFFCURVE",
"82 176 OFFCURVE",
"133 176 CURVE SMOOTH",
"401 176 LINE",
"401 809 LINE",
"252 809 LINE SMOOTH",
"197 809 OFFCURVE",
"170 849 OFFCURVE",
"170 888 CURVE SMOOTH",
"170 927 OFFCURVE",
"196 965 OFFCURVE",
"246 965 CURVE SMOOTH",
"401 965 LINE",
"401 1538 LINE",
"198 1538 LINE SMOOTH",
"147 1538 OFFCURVE",
"127 1580 OFFCURVE",
"127 1630 CURVE SMOOTH",
"127 1674 OFFCURVE",
"154 1714 OFFCURVE",
"201 1714 CURVE SMOOTH",
"893 1714 LINE SMOOTH",
"1472 1714 OFFCURVE",
"1872 1438 OFFCURVE",
"1872 866 CURVE SMOOTH"
);
},
{
closed = 1;
nodes = (
"1630 1297 OFFCURVE",
"1355 1538 OFFCURVE",
"921 1538 CURVE SMOOTH",
"635 1538 LINE",
"635 965 LINE",
"888 965 LINE SMOOTH",
"936 965 OFFCURVE",
"960 927 OFFCURVE",
"960 888 CURVE SMOOTH",
"960 849 OFFCURVE",
"935 809 OFFCURVE",
"886 809 CURVE SMOOTH",
"635 809 LINE",
"635 176 LINE",
"682 173 OFFCURVE",
"727 172 OFFCURVE",
"772 172 CURVE SMOOTH",
"1280 172 OFFCURVE",
"1630 346 OFFCURVE",
"1630 866 CURVE SMOOTH"
);
}
);
width = 2048;
}
);
unicode = 00D0;
},
{
glyphname = Dcroat;
lastChange = "2018-12-02 23:35:38 +0000";
layers = (
{
layerId = master01;
paths = (
{
closed = 1;
nodes = (
"135 572 OFFCURVE",
"126 592 OFFCURVE",
"126 611 CURVE SMOOTH",
"126 630 OFFCURVE",
"133 648 OFFCURVE",
"168 648 CURVE SMOOTH",
"314 648 LINE",
"314 1085 LINE",
"155 1085 LINE SMOOTH",
"123 1085 OFFCURVE",
"107 1106 OFFCURVE",
"107 1127 CURVE SMOOTH",
"107 1149 OFFCURVE",
"124 1171 OFFCURVE",
"157 1171 CURVE SMOOTH",
"515 1171 LINE SMOOTH",
"858 1171 OFFCURVE",
"1084 993 OFFCURVE",
"1084 591 CURVE SMOOTH",
"1084 168 OFFCURVE",
"874 0 OFFCURVE",
"513 0 CURVE SMOOTH",
"152 0 LINE SMOOTH",
"118 0 OFFCURVE",
"101 21 OFFCURVE",
"101 43 CURVE SMOOTH",
"101 64 OFFCURVE",
"118 86 OFFCURVE",
"151 86 CURVE SMOOTH",
"314 86 LINE",
"314 572 LINE",
"172 572 LINE SMOOTH"
);
},
{
closed = 1;
nodes = (
"978 907 OFFCURVE",
"827 1085 OFFCURVE",
"534 1085 CURVE SMOOTH",
"420 1085 LINE",
"420 648 LINE",
"607 648 LINE SMOOTH",
"640 648 OFFCURVE",
"646 630 OFFCURVE",
"646 611 CURVE SMOOTH",
"646 592 OFFCURVE",
"638 572 OFFCURVE",
"605 572 CURVE SMOOTH",
"420 572 LINE",
"420 86 LINE",
"520 86 LINE SMOOTH",
"851 86 OFFCURVE",
"978 256 OFFCURVE",
"978 591 CURVE SMOOTH"
);
}
);
width = 1240;
},
{
layerId = "48AFDEF4-2FAB-4AB6-AB64-D7DFD8485508";
width = 600;
},
{
layerId = "1027097C-2ACB-4125-B942-0F8B60E4A4BD";
paths = (
{
closed = 1;
nodes = (
"135 572 OFFCURVE",
"126 592 OFFCURVE",
"126 611 CURVE SMOOTH",
"126 630 OFFCURVE",
"133 648 OFFCURVE",
"168 648 CURVE SMOOTH",
"314 648 LINE",
"314 1085 LINE",
"155 1085 LINE SMOOTH",
"123 1085 OFFCURVE",
"107 1106 OFFCURVE",
"107 1127 CURVE SMOOTH",
"107 1149 OFFCURVE",
"124 1171 OFFCURVE",
"157 1171 CURVE SMOOTH",
"515 1171 LINE SMOOTH",
"858 1171 OFFCURVE",
"1084 993 OFFCURVE",
"1084 591 CURVE SMOOTH",
"1084 168 OFFCURVE",
"874 0 OFFCURVE",
"513 0 CURVE SMOOTH",
"152 0 LINE SMOOTH",
"118 0 OFFCURVE",
"101 21 OFFCURVE",
"101 43 CURVE SMOOTH",
"101 64 OFFCURVE",
"118 86 OFFCURVE",
"151 86 CURVE SMOOTH",
"314 86 LINE",
"314 572 LINE",
"172 572 LINE SMOOTH"
);
},
{
closed = 1;
nodes = (
"978 907 OFFCURVE",
"827 1085 OFFCURVE",
"534 1085 CURVE SMOOTH",
"420 1085 LINE",
"420 648 LINE",
"607 648 LINE SMOOTH",
"640 648 OFFCURVE",
"646 630 OFFCURVE",
"646 611 CURVE SMOOTH",
"646 592 OFFCURVE",
"638 572 OFFCURVE",
"605 572 CURVE SMOOTH",
"420 572 LINE",
"420 86 LINE",
"520 86 LINE SMOOTH",
"851 86 OFFCURVE",
"978 256 OFFCURVE",
"978 591 CURVE SMOOTH"
);
}
);
width = 1240;
},
{
layerId = "87D9408F-A41F-4898-A746-FF2057AB3891";
paths = (
{
closed = 1;
nodes = (
"1872 301 OFFCURVE",
"1460 0 OFFCURVE",
"893 0 CURVE SMOOTH",
"135 0 LINE SMOOTH",
"88 0 OFFCURVE",
"61 40 OFFCURVE",
"61 84 CURVE SMOOTH",
"61 134 OFFCURVE",
"82 176 OFFCURVE",
"133 176 CURVE SMOOTH",
"401 176 LINE",
"401 809 LINE",
"252 809 LINE SMOOTH",
"197 809 OFFCURVE",
"170 849 OFFCURVE",
"170 888 CURVE SMOOTH",
"170 927 OFFCURVE",
"196 965 OFFCURVE",
"246 965 CURVE SMOOTH",
"401 965 LINE",
"401 1538 LINE",
"198 1538 LINE SMOOTH",
"147 1538 OFFCURVE",
"127 1580 OFFCURVE",
"127 1630 CURVE SMOOTH",
"127 1674 OFFCURVE",
"154 1714 OFFCURVE",
"201 1714 CURVE SMOOTH",
"893 1714 LINE SMOOTH",
"1472 1714 OFFCURVE",
"1872 1438 OFFCURVE",
"1872 866 CURVE SMOOTH"
);
},
{
closed = 1;
nodes = (
"1630 1297 OFFCURVE",
"1355 1538 OFFCURVE",
"921 1538 CURVE SMOOTH",
"635 1538 LINE",
"635 965 LINE",
"888 965 LINE SMOOTH",
"936 965 OFFCURVE",
"960 927 OFFCURVE",
"960 888 CURVE SMOOTH",
"960 849 OFFCURVE",
"935 809 OFFCURVE",
"886 809 CURVE SMOOTH",
"635 809 LINE",
"635 176 LINE",
"682 173 OFFCURVE",
"727 172 OFFCURVE",
"772 172 CURVE SMOOTH",
"1280 172 OFFCURVE",
"1630 346 OFFCURVE",
"1630 866 CURVE SMOOTH"
);
}
);
width = 2048;
}
);
unicode = 0110;
},
{
glyphname = E;
lastChange = "2018-12-03 22:39:08 +0000";
layers = (
{
anchors = (
{
name = bottom;
position = "{567, 0}";
},
{
name = ogonek;
position = "{1028, 7}";
},
{
name = top;
position = "{567, 1171}";
}
);
layerId = master01;
paths = (
{
closed = 1;
nodes = (
"925 0 LINE SMOOTH",
"953 0 OFFCURVE",
"968 22 OFFCURVE",
"970 53 CURVE SMOOTH",
"990 323 LINE SMOOTH",
"993 359 OFFCURVE",
"973 375 OFFCURVE",
"954 375 CURVE SMOOTH",
"931 375 OFFCURVE",
"911 360 OFFCURVE",
"907 336 CURVE SMOOTH",
"866 85 LINE",
"376 85 LINE",
"376 577 LINE",
"598 577 LINE",
"619 429 LINE SMOOTH",
"623 401 OFFCURVE",
"639 386 OFFCURVE",
"657 386 CURVE SMOOTH",
"677 386 OFFCURVE",
"693 402 OFFCURVE",
"692 437 CURVE SMOOTH",
"688 625 LINE",
"692 779 LINE SMOOTH",
"693 816 OFFCURVE",
"677 832 OFFCURVE",
"657 832 CURVE SMOOTH",
"639 832 OFFCURVE",
"624 817 OFFCURVE",
"619 787 CURVE SMOOTH",
"598 654 LINE",
"376 654 LINE",
"376 1085 LINE",
"864 1085 LINE",
"902 841 LINE SMOOTH",
"906 816 OFFCURVE",
"925 803 OFFCURVE",
"947 803 CURVE SMOOTH",
"967 803 OFFCURVE",
"986 817 OFFCURVE",
"983 847 CURVE SMOOTH",
"953 1117 LINE SMOOTH",
"949 1151 OFFCURVE",
"935 1171 OFFCURVE",
"909 1171 CURVE SMOOTH",
"166 1171 LINE SMOOTH",
"140 1171 OFFCURVE",
"125 1149 OFFCURVE",
"125 1127 CURVE SMOOTH",
"125 1106 OFFCURVE",
"138 1085 OFFCURVE",
"165 1085 CURVE SMOOTH",
"270 1085 LINE",
"270 85 LINE",
"121 85 LINE SMOOTH",
"94 85 OFFCURVE",
"81 64 OFFCURVE",
"81 43 CURVE SMOOTH",
"81 22 OFFCURVE",
"96 0 OFFCURVE",
"123 0 CURVE SMOOTH"
);
}
);
width = 1070;
},
{
anchors = (
{
name = bottom;
position = "{730, 0}";
},
{
name = ogonek;
position = "{1191, 7}";
},
{
name = top;
position = "{730, 1209}";
}
);
layerId = "48AFDEF4-2FAB-4AB6-AB64-D7DFD8485508";
paths = (
{
closed = 1;
nodes = (
"1069 0 LINE SMOOTH",
"1096 0 OFFCURVE",
"1101 21 OFFCURVE",
"1115 55 CURVE",
"1185 358 LINE",
"1185 391 OFFCURVE",
"1169 410 OFFCURVE",
"1139 410 CURVE SMOOTH",
"1102 410 OFFCURVE",
"1081 386 OFFCURVE",
"1062 356 CURVE",
"956 124 LINE",
"470 124 LINE",
"470 581 LINE",
"601 581 LINE",
"646 449 LINE SMOOTH",
"655 423 OFFCURVE",
"671 401 OFFCURVE",
"700 401 CURVE SMOOTH",
"732 401 OFFCURVE",
"746 425 OFFCURVE",
"746 458 CURVE",
"731 634 LINE",
"746 804 LINE",
"746 838 OFFCURVE",
"732 861 OFFCURVE",
"700 861 CURVE SMOOTH",
"671 861 OFFCURVE",
"654 839 OFFCURVE",
"645 813 CURVE SMOOTH",
"601 682 LINE",
"470 682 LINE",
"470 1085 LINE",
"960 1085 LINE",
"1060 904 LINE SMOOTH",
"1076 875 OFFCURVE",
"1099 851 OFFCURVE",
"1136 851 CURVE SMOOTH",
"1166 851 OFFCURVE",
"1185 872 OFFCURVE",
"1185 902 CURVE",
"1082 1154 LINE",
"1068 1187 OFFCURVE",
"1063 1209 OFFCURVE",
"1036 1209 CURVE SMOOTH",
"197 1209 LINE SMOOTH",
"171 1209 OFFCURVE",
"154 1180 OFFCURVE",
"154 1150 CURVE SMOOTH",
"154 1115 OFFCURVE",
"164 1085 OFFCURVE",
"197 1085 CURVE SMOOTH",
"296 1085 LINE",
"296 124 LINE",
"116 124 LINE SMOOTH",
"86 124 OFFCURVE",
"75 94 OFFCURVE",
"75 60 CURVE SMOOTH",
"75 28 OFFCURVE",
"92 0 OFFCURVE",
"119 0 CURVE SMOOTH"
);
}
);
width = 1257;
},
{
anchors = (
{
name = bottom;
position = "{623, 0}";
},
{
name = ogonek;
position = "{1200, 7}";
},
{
name = top;
position = "{623, 1171}";
}
);
layerId = "1027097C-2ACB-4125-B942-0F8B60E4A4BD";
paths = (
{
closed = 1;
nodes = (
"1081 0 LINE SMOOTH",
"1114 0 OFFCURVE",
"1137 19 OFFCURVE",
"1137 53 CURVE SMOOTH",
"1137 323 LINE SMOOTH",
"1137 359 OFFCURVE",
"1116 375 OFFCURVE",
"1095 375 CURVE SMOOTH",
"1076 375 OFFCURVE",
"1053 362 OFFCURVE",
"1051 336 CURVE SMOOTH",
"1035 85 LINE",
"420 85 LINE",
"420 577 LINE",
"746 577 LINE",
"759 429 LINE SMOOTH",
"761 404 OFFCURVE",
"778 386 OFFCURVE",
"799 386 CURVE SMOOTH",
"818 386 OFFCURVE",
"837 402 OFFCURVE",
"837 437 CURVE SMOOTH",
"837 625 LINE",
"837 779 LINE SMOOTH",
"837 816 OFFCURVE",
"818 832 OFFCURVE",
"799 832 CURVE SMOOTH",
"781 832 OFFCURVE",
"762 817 OFFCURVE",
"759 787 CURVE SMOOTH",
"746 654 LINE",
"420 654 LINE",
"420 1085 LINE",
"1029 1085 LINE",
"1043 841 LINE SMOOTH",
"1044 816 OFFCURVE",
"1066 803 OFFCURVE",
"1085 803 CURVE SMOOTH",
"1105 803 OFFCURVE",
"1125 817 OFFCURVE",
"1125 847 CURVE SMOOTH",
"1125 1117 LINE SMOOTH",
"1125 1151 OFFCURVE",
"1102 1171 OFFCURVE",
"1069 1171 CURVE SMOOTH",
"191 1171 LINE SMOOTH",
"158 1171 OFFCURVE",
"141 1149 OFFCURVE",
"141 1127 CURVE SMOOTH",
"141 1106 OFFCURVE",
"157 1085 OFFCURVE",
"189 1085 CURVE SMOOTH",
"324 1085 LINE",
"324 85 LINE",
"154 85 LINE SMOOTH",
"121 85 OFFCURVE",
"104 64 OFFCURVE",
"104 43 CURVE SMOOTH",
"104 22 OFFCURVE",
"121 0 OFFCURVE",
"155 0 CURVE SMOOTH"
);
}
);
width = 1240;
},
{
anchors = (
{
name = bottom;
position = "{786, 0}";
},
{
name = ogonek;
position = "{1363, 7}";
},
{
name = top;
position = "{786, 1209}";
}
);
layerId = "87D9408F-A41F-4898-A746-FF2057AB3891";
paths = (
{
closed = 1;
nodes = (
"1225 0 LINE SMOOTH",
"1258 0 OFFCURVE",
"1272 21 OFFCURVE",
"1282 55 CURVE",
"1331 358 LINE",
"1331 391 OFFCURVE",
"1311 410 OFFCURVE",
"1280 410 CURVE SMOOTH",
"1244 410 OFFCURVE",
"1221 386 OFFCURVE",
"1207 356 CURVE",
"1125 124 LINE",
"514 124 LINE",
"514 581 LINE",
"749 581 LINE",
"786 449 LINE SMOOTH",
"793 423 OFFCURVE",
"814 401 OFFCURVE",
"842 401 CURVE SMOOTH",
"873 401 OFFCURVE",
"891 425 OFFCURVE",
"891 458 CURVE",
"880 634 LINE",
"891 804 LINE",
"891 838 OFFCURVE",
"873 861 OFFCURVE",
"842 861 CURVE SMOOTH",
"814 861 OFFCURVE",
"793 839 OFFCURVE",
"786 813 CURVE SMOOTH",
"749 682 LINE",
"514 682 LINE",
"514 1085 LINE",
"1125 1085 LINE",
"1202 904 LINE SMOOTH",
"1214 875 OFFCURVE",
"1240 851 OFFCURVE",
"1274 851 CURVE SMOOTH",
"1304 851 OFFCURVE",
"1326 872 OFFCURVE",
"1326 902 CURVE",
"1253 1154 LINE",
"1243 1187 OFFCURVE",
"1230 1209 OFFCURVE",
"1196 1209 CURVE SMOOTH",
"222 1209 LINE SMOOTH",
"189 1209 OFFCURVE",
"170 1180 OFFCURVE",
"170 1150 CURVE SMOOTH",
"170 1114 OFFCURVE",
"184 1085 OFFCURVE",
"221 1085 CURVE SMOOTH",
"350 1085 LINE",
"350 124 LINE",
"149 124 LINE SMOOTH",
"113 124 OFFCURVE",
"98 94 OFFCURVE",
"98 60 CURVE SMOOTH",
"98 28 OFFCURVE",
"117 0 OFFCURVE",
"151 0 CURVE SMOOTH"
);
}
);
width = 1427;
}
);
unicode = 0045;
},
{
glyphname = F;
lastChange = "2018-12-02 23:35:38 +0000";
layers = (
{
layerId = master01;
paths = (
{
closed = 1;
nodes = (
"848 402 OFFCURVE",
"829 386 OFFCURVE",
"810 386 CURVE SMOOTH",
"791 386 OFFCURVE",
"772 401 OFFCURVE",
"770 429 CURVE SMOOTH",
"757 577 LINE",
"420 577 LINE",
"420 85 LINE",
"770 85 LINE SMOOTH",
"801 85 OFFCURVE",
"816 64 OFFCURVE",
"816 43 CURVE SMOOTH",
"816 21 OFFCURVE",
"800 0 OFFCURVE",
"771 0 CURVE SMOOTH",
"155 0 LINE SMOOTH",
"121 0 OFFCURVE",
"104 22 OFFCURVE",
"104 43 CURVE SMOOTH",
"104 64 OFFCURVE",
"121 85 OFFCURVE",
"154 85 CURVE SMOOTH",
"324 85 LINE",
"324 1085 LINE",
"189 1085 LINE SMOOTH",
"157 1085 OFFCURVE",
"141 1106 OFFCURVE",
"141 1127 CURVE SMOOTH",
"141 1149 OFFCURVE",
"158 1171 OFFCURVE",
"191 1171 CURVE SMOOTH",
"1082 1171 LINE SMOOTH",
"1115 1171 OFFCURVE",
"1138 1151 OFFCURVE",
"1138 1117 CURVE SMOOTH",
"1138 847 LINE SMOOTH",
"1138 817 OFFCURVE",
"1118 803 OFFCURVE",
"1098 803 CURVE SMOOTH",
"1078 803 OFFCURVE",
"1057 816 OFFCURVE",
"1056 841 CURVE SMOOTH",
"1042 1085 LINE",
"420 1085 LINE",
"420 654 LINE",
"757 654 LINE",
"770 787 LINE SMOOTH",
"773 817 OFFCURVE",
"792 832 OFFCURVE",
"810 832 CURVE SMOOTH",
"829 832 OFFCURVE",
"848 816 OFFCURVE",
"848 779 CURVE SMOOTH",
"848 437 LINE SMOOTH"
);
}
);
width = 1240;
},
{
layerId = "48AFDEF4-2FAB-4AB6-AB64-D7DFD8485508";
width = 600;
},
{
layerId = "1027097C-2ACB-4125-B942-0F8B60E4A4BD";
paths = (
{
closed = 1;
nodes = (
"848 402 OFFCURVE",
"829 386 OFFCURVE",
"810 386 CURVE SMOOTH",
"791 386 OFFCURVE",
"772 401 OFFCURVE",
"770 429 CURVE SMOOTH",
"757 577 LINE",
"420 577 LINE",
"420 85 LINE",
"770 85 LINE SMOOTH",
"801 85 OFFCURVE",
"816 64 OFFCURVE",
"816 43 CURVE SMOOTH",
"816 21 OFFCURVE",
"800 0 OFFCURVE",
"771 0 CURVE SMOOTH",
"155 0 LINE SMOOTH",
"121 0 OFFCURVE",
"104 22 OFFCURVE",
"104 43 CURVE SMOOTH",
"104 64 OFFCURVE",
"121 85 OFFCURVE",
"154 85 CURVE SMOOTH",
"324 85 LINE",
"324 1085 LINE",
"189 1085 LINE SMOOTH",
"157 1085 OFFCURVE",
"141 1106 OFFCURVE",
"141 1127 CURVE SMOOTH",
"141 1149 OFFCURVE",
"158 1171 OFFCURVE",
"191 1171 CURVE SMOOTH",
"1082 1171 LINE SMOOTH",
"1115 1171 OFFCURVE",
"1138 1151 OFFCURVE",
"1138 1117 CURVE SMOOTH",
"1138 847 LINE SMOOTH",
"1138 817 OFFCURVE",
"1118 803 OFFCURVE",
"1098 803 CURVE SMOOTH",
"1078 803 OFFCURVE",
"1057 816 OFFCURVE",
"1056 841 CURVE SMOOTH",
"1042 1085 LINE",
"420 1085 LINE",
"420 654 LINE",
"757 654 LINE",
"770 787 LINE SMOOTH",
"773 817 OFFCURVE",
"792 832 OFFCURVE",
"810 832 CURVE SMOOTH",
"829 832 OFFCURVE",
"848 816 OFFCURVE",
"848 779 CURVE SMOOTH",
"848 437 LINE SMOOTH"
);
}
);
width = 1240;
},
{
layerId = "87D9408F-A41F-4898-A746-FF2057AB3891";
paths = (
{
closed = 1;
nodes = (
"123 0 LINE SMOOTH",
"76 0 OFFCURVE",
"49 40 OFFCURVE",
"49 84 CURVE SMOOTH",
"49 134 OFFCURVE",
"70 176 OFFCURVE",
"121 176 CURVE SMOOTH",
"447 176 LINE",
"447 1538 LINE",
"203 1538 LINE SMOOTH",
"152 1538 OFFCURVE",
"131 1580 OFFCURVE",
"131 1630 CURVE SMOOTH",
"131 1674 OFFCURVE",
"158 1714 OFFCURVE",
"205 1714 CURVE SMOOTH",
"1655 1714 LINE SMOOTH",
"1703 1714 OFFCURVE",
"1721 1683 OFFCURVE",
"1737 1636 CURVE",
"1813 1319 LINE SMOOTH",
"1817 1304 OFFCURVE",
"1819 1291 OFFCURVE",
"1819 1280 CURVE SMOOTH",
"1819 1236 OFFCURVE",
"1788 1206 OFFCURVE",
"1745 1206 CURVE SMOOTH",
"1695 1206 OFFCURVE",
"1660 1240 OFFCURVE",
"1643 1282 CURVE",
"1555 1538 LINE",
"680 1538 LINE",
"680 928 LINE",
"1020 928 LINE",
"1071 1114 LINE SMOOTH",
"1082 1151 OFFCURVE",
"1109 1182 OFFCURVE",
"1151 1182 CURVE SMOOTH",
"1196 1182 OFFCURVE",
"1221 1149 OFFCURVE",
"1221 1102 CURVE",
"1207 860 LINE",
"1221 610 LINE",
"1221 563 OFFCURVE",
"1196 530 OFFCURVE",
"1151 530 CURVE SMOOTH",
"1109 530 OFFCURVE",
"1082 561 OFFCURVE",
"1071 598 CURVE SMOOTH",
"1020 784 LINE",
"680 784 LINE",
"680 176 LINE",
"985 176 LINE SMOOTH",
"1036 176 OFFCURVE",
"1057 134 OFFCURVE",
"1057 84 CURVE SMOOTH",
"1057 40 OFFCURVE",
"1030 0 OFFCURVE",
"983 0 CURVE SMOOTH"
);
}
);
width = 2048;
}
);
unicode = 0046;
},
{
glyphname = G;
lastChange = "2018-12-02 23:35:38 +0000";
layers = (
{
layerId = master01;
paths = (
{
closed = 1;
nodes = (
"1083 49 LINE SMOOTH",
"1083 11 OFFCURVE",
"1060 -8 OFFCURVE",
"1036 -8 CURVE SMOOTH",
"1012 -8 OFFCURVE",
"987 12 OFFCURVE",
"987 51 CURVE SMOOTH",
"987 175 LINE",
"937 62 OFFCURVE",
"784 -17 OFFCURVE",
"606 -17 CURVE SMOOTH",
"298 -17 OFFCURVE",
"89 225 OFFCURVE",
"89 607 CURVE SMOOTH",
"89 954 OFFCURVE",
"297 1187 OFFCURVE",
"605 1187 CURVE SMOOTH",
"764 1187 OFFCURVE",
"905 1113 OFFCURVE",
"959 1015 CURVE",
"959 1121 LINE SMOOTH",
"959 1154 OFFCURVE",
"984 1171 OFFCURVE",
"1008 1171 CURVE SMOOTH",
"1033 1171 OFFCURVE",
"1057 1154 OFFCURVE",
"1057 1120 CURVE SMOOTH",
"1057 827 LINE SMOOTH",
"1057 795 OFFCURVE",
"1034 780 OFFCURVE",
"1011 780 CURVE SMOOTH",
"987 780 OFFCURVE",
"968 797 OFFCURVE",
"963 827 CURVE SMOOTH",
"932 991 OFFCURVE",
"787 1101 OFFCURVE",
"608 1101 CURVE SMOOTH",
"333 1101 OFFCURVE",
"185 890 OFFCURVE",
"185 600 CURVE SMOOTH",
"185 263 OFFCURVE",
"372 69 OFFCURVE",
"607 69 CURVE SMOOTH",
"815 69 OFFCURVE",
"939 182 OFFCURVE",
"987 332 CURVE",
"987 510 LINE",
"863 510 LINE SMOOTH",
"830 510 OFFCURVE",
"813 532 OFFCURVE",
"813 554 CURVE SMOOTH",
"813 575 OFFCURVE",
"829 596 OFFCURVE",
"862 596 CURVE SMOOTH",
"1146 596 LINE SMOOTH",
"1179 596 OFFCURVE",
"1195 575 OFFCURVE",
"1195 554 CURVE SMOOTH",
"1195 532 OFFCURVE",
"1178 510 OFFCURVE",
"1144 510 CURVE SMOOTH",
"1083 510 LINE"
);
}
);
width = 1240;
},
{
layerId = "48AFDEF4-2FAB-4AB6-AB64-D7DFD8485508";
width = 600;
},
{
layerId = "1027097C-2ACB-4125-B942-0F8B60E4A4BD";
paths = (
{
closed = 1;
nodes = (
"1083 49 LINE SMOOTH",
"1083 11 OFFCURVE",
"1060 -8 OFFCURVE",
"1036 -8 CURVE SMOOTH",
"1012 -8 OFFCURVE",
"987 12 OFFCURVE",
"987 51 CURVE SMOOTH",
"987 175 LINE",
"937 62 OFFCURVE",
"784 -17 OFFCURVE",
"606 -17 CURVE SMOOTH",
"298 -17 OFFCURVE",
"89 225 OFFCURVE",
"89 607 CURVE SMOOTH",
"89 954 OFFCURVE",
"297 1187 OFFCURVE",
"605 1187 CURVE SMOOTH",
"764 1187 OFFCURVE",
"905 1113 OFFCURVE",
"959 1015 CURVE",
"959 1121 LINE SMOOTH",
"959 1154 OFFCURVE",
"984 1171 OFFCURVE",
"1008 1171 CURVE SMOOTH",
"1033 1171 OFFCURVE",
"1057 1154 OFFCURVE",
"1057 1120 CURVE SMOOTH",
"1057 827 LINE SMOOTH",
"1057 795 OFFCURVE",
"1034 780 OFFCURVE",
"1011 780 CURVE SMOOTH",
"987 780 OFFCURVE",
"968 797 OFFCURVE",
"963 827 CURVE SMOOTH",
"932 991 OFFCURVE",
"787 1101 OFFCURVE",
"608 1101 CURVE SMOOTH",
"333 1101 OFFCURVE",
"185 890 OFFCURVE",
"185 600 CURVE SMOOTH",
"185 263 OFFCURVE",
"372 69 OFFCURVE",
"607 69 CURVE SMOOTH",
"815 69 OFFCURVE",
"939 182 OFFCURVE",
"987 332 CURVE",
"987 510 LINE",
"863 510 LINE SMOOTH",
"830 510 OFFCURVE",
"813 532 OFFCURVE",
"813 554 CURVE SMOOTH",
"813 575 OFFCURVE",
"829 596 OFFCURVE",
"862 596 CURVE SMOOTH",
"1146 596 LINE SMOOTH",
"1179 596 OFFCURVE",
"1195 575 OFFCURVE",
"1195 554 CURVE SMOOTH",
"1195 532 OFFCURVE",
"1178 510 OFFCURVE",
"1144 510 CURVE SMOOTH",
"1083 510 LINE"
);
}
);
width = 1240;
},
{
anchors = (
{
name = bottom;
position = "{1024, 0}";
},
{
name = top;
position = "{1024, 1714}";
}
);
layerId = "87D9408F-A41F-4898-A746-FF2057AB3891";
paths = (
{
closed = 1;
nodes = (
"1304 164 OFFCURVE",
"1594 252 OFFCURVE",
"1594 569 CURVE SMOOTH",
"1594 696 LINE",
"1442 696 LINE SMOOTH",
"1395 696 OFFCURVE",
"1369 736 OFFCURVE",
"1369 780 CURVE SMOOTH",
"1369 830 OFFCURVE",
"1389 872 OFFCURVE",
"1440 872 CURVE SMOOTH",
"1856 872 LINE SMOOTH",
"1907 872 OFFCURVE",
"1928 830 OFFCURVE",
"1928 780 CURVE SMOOTH",
"1928 736 OFFCURVE",
"1901 696 OFFCURVE",
"1854 696 CURVE SMOOTH",
"1770 696 LINE",
"1770 72 LINE SMOOTH",
"1770 21 OFFCURVE",
"1728 0 OFFCURVE",
"1678 0 CURVE SMOOTH",
"1634 0 OFFCURVE",
"1594 27 OFFCURVE",
"1594 74 CURVE SMOOTH",
"1594 197 LINE",
"1478 38 OFFCURVE",
"1261 -25 OFFCURVE",
"990 -25 CURVE SMOOTH",
"461 -25 OFFCURVE",
"93 319 OFFCURVE",
"93 850 CURVE SMOOTH",
"93 1387 OFFCURVE",
"474 1739 OFFCURVE",
"1010 1739 CURVE SMOOTH",
"1252 1739 OFFCURVE",
"1419 1664 OFFCURVE",
"1559 1538 CURVE",
"1559 1642 LINE SMOOTH",
"1559 1693 OFFCURVE",
"1601 1714 OFFCURVE",
"1651 1714 CURVE SMOOTH",
"1695 1714 OFFCURVE",
"1735 1687 OFFCURVE",
"1735 1640 CURVE SMOOTH",
"1735 1266 LINE SMOOTH",
"1735 1219 OFFCURVE",
"1695 1192 OFFCURVE",
"1651 1192 CURVE SMOOTH",
"1605 1192 OFFCURVE",
"1589 1236 OFFCURVE",
"1567 1270 CURVE",
"1444 1443 OFFCURVE",
"1272 1550 OFFCURVE",
"1010 1550 CURVE SMOOTH",
"599 1550 OFFCURVE",
"355 1262 OFFCURVE",
"355 850 CURVE SMOOTH",
"355 444 OFFCURVE",
"588 164 OFFCURVE",
"990 164 CURVE SMOOTH"
);
}
);
width = 2048;
}
);
unicode = 0047;
},
{
glyphname = H;
lastChange = "2018-12-03 21:37:08 +0000";
layers = (
{
anchors = (
{
name = center;
position = "{550, 605}";
},
{
name = top;
position = "{550, 1171}";
}
);
layerId = master01;
paths = (
{
closed = 1;
nodes = (
"427 0 LINE SMOOTH",
"453 0 OFFCURVE",
"468 23 OFFCURVE",
"468 46 CURVE SMOOTH",
"468 66 OFFCURVE",
"455 86 OFFCURVE",
"428 86 CURVE SMOOTH",
"330 86 LINE",
"330 558 LINE",
"789 558 LINE",
"789 86 LINE",
"691 86 LINE SMOOTH",
"664 86 OFFCURVE",
"652 64 OFFCURVE",
"652 44 CURVE SMOOTH",
"652 22 OFFCURVE",
"667 0 OFFCURVE",
"693 0 CURVE SMOOTH",
"986 0 LINE SMOOTH",
"1012 0 OFFCURVE",
"1027 22 OFFCURVE",
"1027 43 CURVE SMOOTH",
"1027 65 OFFCURVE",
"1014 86 OFFCURVE",
"986 86 CURVE SMOOTH",
"895 86 LINE",
"895 1085 LINE",
"986 1085 LINE SMOOTH",
"1014 1085 OFFCURVE",
"1027 1107 OFFCURVE",
"1027 1130 CURVE SMOOTH",
"1027 1150 OFFCURVE",
"1012 1171 OFFCURVE",
"986 1171 CURVE SMOOTH",
"693 1171 LINE SMOOTH",
"667 1171 OFFCURVE",
"652 1149 OFFCURVE",
"652 1127 CURVE SMOOTH",
"652 1106 OFFCURVE",
"664 1085 OFFCURVE",
"691 1085 CURVE SMOOTH",
"789 1085 LINE",
"789 638 LINE",
"330 638 LINE",
"330 1085 LINE",
"428 1085 LINE SMOOTH",
"455 1085 OFFCURVE",
"468 1106 OFFCURVE",
"468 1127 CURVE SMOOTH",
"468 1149 OFFCURVE",
"453 1171 OFFCURVE",
"427 1171 CURVE SMOOTH",
"124 1171 LINE SMOOTH",
"98 1171 OFFCURVE",
"84 1148 OFFCURVE",
"84 1128 CURVE SMOOTH",
"84 1106 OFFCURVE",
"97 1085 OFFCURVE",
"124 1085 CURVE SMOOTH",
"225 1085 LINE",
"225 86 LINE",
"112 86 LINE SMOOTH",
"85 86 OFFCURVE",
"72 65 OFFCURVE",
"72 44 CURVE SMOOTH",
"72 22 OFFCURVE",
"87 0 OFFCURVE",
"113 0 CURVE SMOOTH"
);
}
);
width = 1099;
},
{
anchors = (
{
name = center;
position = "{678, 605}";
},
{
name = top;
position = "{678, 1210}";
}
);
layerId = "48AFDEF4-2FAB-4AB6-AB64-D7DFD8485508";
paths = (
{
closed = 1;
nodes = (
"571 0 LINE SMOOTH",
"597 0 OFFCURVE",
"614 28 OFFCURVE",
"614 60 CURVE SMOOTH",
"614 95 OFFCURVE",
"602 124 OFFCURVE",
"571 124 CURVE SMOOTH",
"430 124 LINE",
"430 556 LINE",
"954 556 LINE",
"954 124 LINE",
"813 124 LINE SMOOTH",
"782 124 OFFCURVE",
"771 94 OFFCURVE",
"771 60 CURVE SMOOTH",
"771 29 OFFCURVE",
"787 0 OFFCURVE",
"814 0 CURVE SMOOTH",
"1246 0 LINE SMOOTH",
"1272 0 OFFCURVE",
"1289 28 OFFCURVE",
"1289 60 CURVE SMOOTH",
"1289 95 OFFCURVE",
"1279 124 OFFCURVE",
"1247 124 CURVE SMOOTH",
"1128 124 LINE",
"1128 1085 LINE",
"1247 1085 LINE SMOOTH",
"1279 1085 OFFCURVE",
"1289 1115 OFFCURVE",
"1289 1150 CURVE SMOOTH",
"1289 1181 OFFCURVE",
"1272 1210 OFFCURVE",
"1246 1210 CURVE SMOOTH",
"814 1210 LINE SMOOTH",
"787 1210 OFFCURVE",
"771 1180 OFFCURVE",
"771 1150 CURVE SMOOTH",
"771 1115 OFFCURVE",
"783 1085 OFFCURVE",
"813 1085 CURVE SMOOTH",
"954 1085 LINE",
"954 679 LINE",
"430 679 LINE",
"430 1085 LINE",
"571 1085 LINE SMOOTH",
"602 1085 OFFCURVE",
"614 1116 OFFCURVE",
"614 1150 CURVE SMOOTH",
"614 1181 OFFCURVE",
"597 1210 OFFCURVE",
"571 1210 CURVE SMOOTH",
"122 1210 LINE SMOOTH",
"96 1210 OFFCURVE",
"80 1180 OFFCURVE",
"80 1150 CURVE SMOOTH",
"80 1116 OFFCURVE",
"90 1085 OFFCURVE",
"121 1085 CURVE SMOOTH",
"256 1085 LINE",
"256 124 LINE",
"110 124 LINE SMOOTH",
"78 124 OFFCURVE",
"67 94 OFFCURVE",
"67 60 CURVE SMOOTH",
"67 28 OFFCURVE",
"84 0 OFFCURVE",
"110 0 CURVE SMOOTH"
);
}
);
width = 1356;
},
{
anchors = (
{
name = center;
position = "{620, 605}";
},
{
name = top;
position = "{620, 1171}";
}
);
layerId = "1027097C-2ACB-4125-B942-0F8B60E4A4BD";
paths = (
{
closed = 1;
nodes = (
"459 0 LINE SMOOTH",
"492 0 OFFCURVE",
"509 23 OFFCURVE",
"509 46 CURVE SMOOTH",
"509 66 OFFCURVE",
"493 86 OFFCURVE",
"461 86 CURVE SMOOTH",
"361 86 LINE",
"361 558 LINE",
"901 558 LINE",
"901 86 LINE",
"801 86 LINE SMOOTH",
"769 86 OFFCURVE",
"753 65 OFFCURVE",
"753 44 CURVE SMOOTH",
"753 22 OFFCURVE",
"770 0 OFFCURVE",
"803 0 CURVE SMOOTH",
"1097 0 LINE SMOOTH",
"1130 0 OFFCURVE",
"1147 22 OFFCURVE",
"1147 43 CURVE SMOOTH",
"1147 65 OFFCURVE",
"1130 86 OFFCURVE",
"1097 86 CURVE SMOOTH",
"997 86 LINE",
"997 1085 LINE",
"1097 1085 LINE SMOOTH",
"1130 1085 OFFCURVE",
"1147 1107 OFFCURVE",
"1147 1130 CURVE SMOOTH",
"1147 1150 OFFCURVE",
"1130 1171 OFFCURVE",
"1097 1171 CURVE SMOOTH",
"803 1171 LINE SMOOTH",
"770 1171 OFFCURVE",
"753 1149 OFFCURVE",
"753 1127 CURVE SMOOTH",
"753 1106 OFFCURVE",
"768 1085 OFFCURVE",
"801 1085 CURVE SMOOTH",
"901 1085 LINE",
"901 638 LINE",
"361 638 LINE",
"361 1085 LINE",
"461 1085 LINE SMOOTH",
"494 1085 OFFCURVE",
"509 1106 OFFCURVE",
"509 1127 CURVE SMOOTH",
"509 1149 OFFCURVE",
"492 1171 OFFCURVE",
"459 1171 CURVE SMOOTH",
"157 1171 LINE SMOOTH",
"124 1171 OFFCURVE",
"107 1149 OFFCURVE",
"107 1128 CURVE SMOOTH",
"107 1106 OFFCURVE",
"124 1085 OFFCURVE",
"157 1085 CURVE SMOOTH",
"265 1085 LINE",
"265 86 LINE",
"141 86 LINE SMOOTH",
"109 86 OFFCURVE",
"93 65 OFFCURVE",
"93 44 CURVE SMOOTH",
"93 22 OFFCURVE",
"110 0 OFFCURVE",
"143 0 CURVE SMOOTH"
);
}
);
width = 1240;
},
{
anchors = (
{
name = center;
position = "{749, 605}";
},
{
name = top;
position = "{749, 1210}";
}
);
layerId = "87D9408F-A41F-4898-A746-FF2057AB3891";
paths = (
{
closed = 1;
nodes = (
"603 0 LINE SMOOTH",
"636 0 OFFCURVE",
"655 28 OFFCURVE",
"655 60 CURVE SMOOTH",
"655 95 OFFCURVE",
"640 124 OFFCURVE",
"604 124 CURVE SMOOTH",
"461 124 LINE",
"461 556 LINE",
"1066 556 LINE",
"1066 124 LINE",
"923 124 LINE SMOOTH",
"887 124 OFFCURVE",
"872 95 OFFCURVE",
"872 60 CURVE SMOOTH",
"872 28 OFFCURVE",
"891 0 OFFCURVE",
"924 0 CURVE SMOOTH",
"1357 0 LINE SMOOTH",
"1390 0 OFFCURVE",
"1409 28 OFFCURVE",
"1409 60 CURVE SMOOTH",
"1409 95 OFFCURVE",
"1395 124 OFFCURVE",
"1358 124 CURVE SMOOTH",
"1230 124 LINE",
"1230 1085 LINE",
"1358 1085 LINE SMOOTH",
"1395 1085 OFFCURVE",
"1409 1115 OFFCURVE",
"1409 1150 CURVE SMOOTH",
"1409 1181 OFFCURVE",
"1390 1210 OFFCURVE",
"1357 1210 CURVE SMOOTH",
"924 1210 LINE SMOOTH",
"891 1210 OFFCURVE",
"872 1181 OFFCURVE",
"872 1150 CURVE SMOOTH",
"872 1115 OFFCURVE",
"887 1085 OFFCURVE",
"923 1085 CURVE SMOOTH",
"1066 1085 LINE",
"1066 679 LINE",
"461 679 LINE",
"461 1085 LINE",
"604 1085 LINE SMOOTH",
"640 1085 OFFCURVE",
"655 1115 OFFCURVE",
"655 1150 CURVE SMOOTH",
"655 1181 OFFCURVE",
"636 1210 OFFCURVE",
"603 1210 CURVE SMOOTH",
"155 1210 LINE SMOOTH",
"122 1210 OFFCURVE",
"103 1181 OFFCURVE",
"103 1150 CURVE SMOOTH",
"103 1115 OFFCURVE",
"118 1085 OFFCURVE",
"154 1085 CURVE SMOOTH",
"296 1085 LINE",
"296 124 LINE",
"139 124 LINE SMOOTH",
"103 124 OFFCURVE",
"88 95 OFFCURVE",
"88 60 CURVE SMOOTH",
"88 28 OFFCURVE",
"107 0 OFFCURVE",
"140 0 CURVE SMOOTH"
);
}
);
width = 1497;
}
);
unicode = 0048;
},
{
glyphname = Hbar;
lastChange = "2018-12-02 23:35:38 +0000";
layers = (
{
components = (
{
name = H;
}
);
layerId = master01;
paths = (
{
closed = 1;
nodes = (
"116 855 OFFCURVE",
"107 875 OFFCURVE",
"107 894 CURVE SMOOTH",
"107 913 OFFCURVE",
"114 931 OFFCURVE",
"149 931 CURVE SMOOTH",
"1108 931 LINE SMOOTH",
"1141 931 OFFCURVE",
"1147 913 OFFCURVE",
"1147 894 CURVE SMOOTH",
"1147 875 OFFCURVE",
"1139 855 OFFCURVE",
"1106 855 CURVE SMOOTH",
"153 855 LINE SMOOTH"
);
}
);
width = 1240;
},
{
layerId = "48AFDEF4-2FAB-4AB6-AB64-D7DFD8485508";
width = 600;
},
{
components = (
{
name = H;
}
);
layerId = "1027097C-2ACB-4125-B942-0F8B60E4A4BD";
paths = (
{
closed = 1;
nodes = (
"116 855 OFFCURVE",
"107 875 OFFCURVE",
"107 894 CURVE SMOOTH",
"107 913 OFFCURVE",
"114 931 OFFCURVE",
"149 931 CURVE SMOOTH",
"1108 931 LINE SMOOTH",
"1141 931 OFFCURVE",
"1147 913 OFFCURVE",
"1147 894 CURVE SMOOTH",
"1147 875 OFFCURVE",
"1139 855 OFFCURVE",
"1106 855 CURVE SMOOTH",
"153 855 LINE SMOOTH"
);
}
);
width = 1240;
},
{
layerId = "87D9408F-A41F-4898-A746-FF2057AB3891";
paths = (
{
closed = 1;
nodes = (
"565 1170 LINE",
"565 963 LINE",
"1497 963 LINE",
"1497 1170 LINE"
);
},
{
closed = 1;
nodes = (
"36 134 OFFCURVE",
"57 176 OFFCURVE",
"108 176 CURVE SMOOTH",
"331 176 LINE",
"331 1170 LINE",
"187 1170 LINE SMOOTH",
"131.003 1170 OFFCURVE",
"104 1210 OFFCURVE",
"104 1249 CURVE SMOOTH",
"104 1287 OFFCURVE",
"130.003 1325 OFFCURVE",
"181 1325 CURVE SMOOTH",
"331 1325 LINE",
"331 1538 LINE",
"129 1538 LINE SMOOTH",
"78 1538 OFFCURVE",
"57 1580 OFFCURVE",
"57 1630 CURVE SMOOTH",
"57 1674 OFFCURVE",
"84 1714 OFFCURVE",
"131 1714 CURVE SMOOTH",
"766 1714 LINE SMOOTH",
"813 1714 OFFCURVE",
"839 1674 OFFCURVE",
"839 1630 CURVE SMOOTH",
"839 1580 OFFCURVE",
"819 1538 OFFCURVE",
"768 1538 CURVE SMOOTH",
"565 1538 LINE",
"565 1325 LINE",
"1497 1325 LINE",
"1497 1538 LINE",
"1294 1538 LINE SMOOTH",
"1243 1538 OFFCURVE",
"1222 1580 OFFCURVE",
"1222 1630 CURVE SMOOTH",
"1222 1674 OFFCURVE",
"1249 1714 OFFCURVE",
"1296 1714 CURVE SMOOTH",
"1910 1714 LINE SMOOTH",
"1957 1714 OFFCURVE",
"1984 1674 OFFCURVE",
"1984 1630 CURVE SMOOTH",
"1984 1580 OFFCURVE",
"1963 1538 OFFCURVE",
"1912 1538 CURVE SMOOTH",
"1730 1538 LINE",
"1730 1325 LINE",
"1871.5 1325 LINE SMOOTH",
"1919.5 1325 OFFCURVE",
"1943.5 1287 OFFCURVE",
"1943.5 1249 CURVE SMOOTH",
"1943.5 1210 OFFCURVE",
"1918.5 1170 OFFCURVE",
"1869.5 1170 CURVE SMOOTH",
"1730 1170 LINE",
"1730 176 LINE",
"1912 176 LINE SMOOTH",
"1963 176 OFFCURVE",
"1984 134 OFFCURVE",
"1984 84 CURVE SMOOTH",
"1984 40 OFFCURVE",
"1957 0 OFFCURVE",
"1910 0 CURVE SMOOTH",
"1296 0 LINE SMOOTH",
"1249 0 OFFCURVE",
"1222 40 OFFCURVE",
"1222 84 CURVE SMOOTH",
"1222 134 OFFCURVE",
"1243 176 OFFCURVE",
"1294 176 CURVE SMOOTH",
"1497 176 LINE",
"1497 788 LINE",
"565 788 LINE",
"565 176 LINE",
"768 176 LINE SMOOTH",
"819 176 OFFCURVE",
"839 134 OFFCURVE",
"839 84 CURVE SMOOTH",
"839 40 OFFCURVE",
"813 0 OFFCURVE",
"766 0 CURVE SMOOTH",
"110 0 LINE SMOOTH",
"63 0 OFFCURVE",
"36 40 OFFCURVE",
"36 84 CURVE SMOOTH"
);
}
);
width = 2048;
}
);
unicode = 0126;
},
{
glyphname = I;
lastChange = "2018-12-02 23:35:38 +0000";
layers = (
{
layerId = master01;
paths = (
{
closed = 1;
nodes = (
"277 0 OFFCURVE",
"259 21 OFFCURVE",
"259 43 CURVE SMOOTH",
"259 64 OFFCURVE",
"276 86 OFFCURVE",
"309 86 CURVE SMOOTH",
"614 86 LINE",
"614 1085 LINE",
"309 1085 LINE SMOOTH",
"276 1085 OFFCURVE",
"259 1106 OFFCURVE",
"259 1127 CURVE SMOOTH",
"259 1149 OFFCURVE",
"277 1171 OFFCURVE",
"310 1171 CURVE SMOOTH",
"995 1171 LINE SMOOTH",
"1028 1171 OFFCURVE",
"1045 1149 OFFCURVE",
"1045 1127 CURVE SMOOTH",
"1045 1106 OFFCURVE",
"1029 1085 OFFCURVE",
"996 1085 CURVE SMOOTH",
"710 1085 LINE",
"710 86 LINE",
"996 86 LINE SMOOTH",
"1029 86 OFFCURVE",
"1045 64 OFFCURVE",
"1045 43 CURVE SMOOTH",
"1045 21 OFFCURVE",
"1028 0 OFFCURVE",
"995 0 CURVE SMOOTH",
"310 0 LINE SMOOTH"
);
}
);
width = 1240;
},
{
layerId = "48AFDEF4-2FAB-4AB6-AB64-D7DFD8485508";
width = 600;
},
{
layerId = "1027097C-2ACB-4125-B942-0F8B60E4A4BD";
paths = (
{
closed = 1;
nodes = (
"277 0 OFFCURVE",
"259 21 OFFCURVE",
"259 43 CURVE SMOOTH",
"259 64 OFFCURVE",
"276 86 OFFCURVE",
"309 86 CURVE SMOOTH",
"614 86 LINE",
"614 1085 LINE",
"309 1085 LINE SMOOTH",
"276 1085 OFFCURVE",
"259 1106 OFFCURVE",
"259 1127 CURVE SMOOTH",
"259 1149 OFFCURVE",
"277 1171 OFFCURVE",
"310 1171 CURVE SMOOTH",
"995 1171 LINE SMOOTH",
"1028 1171 OFFCURVE",
"1045 1149 OFFCURVE",
"1045 1127 CURVE SMOOTH",
"1045 1106 OFFCURVE",
"1029 1085 OFFCURVE",
"996 1085 CURVE SMOOTH",
"710 1085 LINE",
"710 86 LINE",
"996 86 LINE SMOOTH",
"1029 86 OFFCURVE",
"1045 64 OFFCURVE",
"1045 43 CURVE SMOOTH",
"1045 21 OFFCURVE",
"1028 0 OFFCURVE",
"995 0 CURVE SMOOTH",
"310 0 LINE SMOOTH"
);
}
);
width = 1240;
},
{
anchors = (
{
name = ogonek;
position = "{1843, 10}";
},
{
name = top;
position = "{1024, 1714}";
}
);
layerId = "87D9408F-A41F-4898-A746-FF2057AB3891";
paths = (
{
closed = 1;
nodes = (
"592 134 OFFCURVE",
"612 176 OFFCURVE",
"663 176 CURVE SMOOTH",
"907 176 LINE",
"907 1538 LINE",
"663 1538 LINE SMOOTH",
"612 1538 OFFCURVE",
"592 1580 OFFCURVE",
"592 1630 CURVE SMOOTH",
"592 1674 OFFCURVE",
"618 1714 OFFCURVE",
"665 1714 CURVE SMOOTH",
"1382 1714 LINE SMOOTH",
"1429 1714 OFFCURVE",
"1456 1674 OFFCURVE",
"1456 1630 CURVE SMOOTH",
"1456 1580 OFFCURVE",
"1435 1538 OFFCURVE",
"1384 1538 CURVE SMOOTH",
"1141 1538 LINE",
"1141 176 LINE",
"1384 176 LINE SMOOTH",
"1435 176 OFFCURVE",
"1456 134 OFFCURVE",
"1456 84 CURVE SMOOTH",
"1456 40 OFFCURVE",
"1429 0 OFFCURVE",
"1382 0 CURVE SMOOTH",
"665 0 LINE SMOOTH",
"618 0 OFFCURVE",
"592 40 OFFCURVE",
"592 84 CURVE SMOOTH"
);
}
);
width = 2048;
}
);
unicode = 0049;
},
{
glyphname = IJ;
lastChange = "2018-12-02 23:35:38 +0000";
layers = (
{
layerId = master01;
paths = (
{
closed = 1;
nodes = (
"1040 74 OFFCURVE",
"963 0 OFFCURVE",
"676 0 CURVE SMOOTH",
"655 0 OFFCURVE",
"644 20 OFFCURVE",
"644 41 CURVE SMOOTH",
"644 61 OFFCURVE",
"654 81 OFFCURVE",
"676 81 CURVE SMOOTH",
"919 81 OFFCURVE",
"944 125 OFFCURVE",
"944 304 CURVE SMOOTH",
"944 1085 LINE",
"348 1085 LINE",
"348 86 LINE",
"479 86 LINE SMOOTH",
"512 86 OFFCURVE",
"528 64 OFFCURVE",
"528 43 CURVE SMOOTH",
"528 21 OFFCURVE",
"511 0 OFFCURVE",
"478 0 CURVE SMOOTH",
"118 0 LINE SMOOTH",
"85 0 OFFCURVE",
"67 21 OFFCURVE",
"67 43 CURVE SMOOTH",
"67 64 OFFCURVE",
"84 86 OFFCURVE",
"117 86 CURVE SMOOTH",
"252 86 LINE",
"252 1085 LINE",
"97 1085 LINE SMOOTH",
"64 1085 OFFCURVE",
"47 1106 OFFCURVE",
"47 1127 CURVE SMOOTH",
"47 1149 OFFCURVE",
"65 1171 OFFCURVE",
"98 1171 CURVE SMOOTH",
"1142 1171 LINE SMOOTH",
"1175 1171 OFFCURVE",
"1192 1150 OFFCURVE",
"1192 1128 CURVE SMOOTH",
"1192 1107 OFFCURVE",
"1176 1085 OFFCURVE",
"1143 1085 CURVE SMOOTH",
"1040 1085 LINE",
"1040 307 LINE SMOOTH"
);
}
);
width = 1240;
},
{
layerId = "48AFDEF4-2FAB-4AB6-AB64-D7DFD8485508";
width = 600;
},
{
layerId = "1027097C-2ACB-4125-B942-0F8B60E4A4BD";
paths = (
{
closed = 1;
nodes = (
"1040 74 OFFCURVE",
"963 0 OFFCURVE",
"676 0 CURVE SMOOTH",
"655 0 OFFCURVE",
"644 20 OFFCURVE",
"644 41 CURVE SMOOTH",
"644 61 OFFCURVE",
"654 81 OFFCURVE",
"676 81 CURVE SMOOTH",
"919 81 OFFCURVE",
"944 125 OFFCURVE",
"944 304 CURVE SMOOTH",
"944 1085 LINE",
"348 1085 LINE",
"348 86 LINE",
"479 86 LINE SMOOTH",
"512 86 OFFCURVE",
"528 64 OFFCURVE",
"528 43 CURVE SMOOTH",
"528 21 OFFCURVE",
"511 0 OFFCURVE",
"478 0 CURVE SMOOTH",
"118 0 LINE SMOOTH",
"85 0 OFFCURVE",
"67 21 OFFCURVE",
"67 43 CURVE SMOOTH",
"67 64 OFFCURVE",
"84 86 OFFCURVE",
"117 86 CURVE SMOOTH",
"252 86 LINE",
"252 1085 LINE",
"97 1085 LINE SMOOTH",
"64 1085 OFFCURVE",
"47 1106 OFFCURVE",
"47 1127 CURVE SMOOTH",
"47 1149 OFFCURVE",
"65 1171 OFFCURVE",
"98 1171 CURVE SMOOTH",
"1142 1171 LINE SMOOTH",
"1175 1171 OFFCURVE",
"1192 1150 OFFCURVE",
"1192 1128 CURVE SMOOTH",
"1192 1107 OFFCURVE",
"1176 1085 OFFCURVE",
"1143 1085 CURVE SMOOTH",
"1040 1085 LINE",
"1040 307 LINE SMOOTH"
);
}
);
width = 1240;
},
{
components = (
{
name = I;
},
{
name = J;
transform = "{1, 0, 0, 1, 2048, 0}";
}
);
layerId = "87D9408F-A41F-4898-A746-FF2057AB3891";
width = 4096;
}
);
unicode = 0132;
},
{
glyphname = J;
lastChange = "2018-12-02 23:35:38 +0000";
layers = (
{
layerId = master01;
paths = (
{
closed = 1;
nodes = (
"855 84 OFFCURVE",
"644 -13 OFFCURVE",
"451 -13 CURVE SMOOTH",
"288 -13 OFFCURVE",
"138 56 OFFCURVE",
"138 171 CURVE SMOOTH",
"138 283 LINE SMOOTH",
"138 312 OFFCURVE",
"163 328 OFFCURVE",
"187 328 CURVE SMOOTH",
"211 328 OFFCURVE",
"234 313 OFFCURVE",
"234 283 CURVE SMOOTH",
"234 182 LINE SMOOTH",
"234 114 OFFCURVE",
"342 68 OFFCURVE",
"460 68 CURVE SMOOTH",
"602 68 OFFCURVE",
"759 135 OFFCURVE",
"759 314 CURVE SMOOTH",
"759 1085 LINE",
"409 1085 LINE SMOOTH",
"377 1085 OFFCURVE",
"361 1106 OFFCURVE",
"361 1127 CURVE SMOOTH",
"361 1149 OFFCURVE",
"377 1171 OFFCURVE",
"410 1171 CURVE SMOOTH",
"1025 1171 LINE SMOOTH",
"1058 1171 OFFCURVE",
"1075 1150 OFFCURVE",
"1075 1128 CURVE SMOOTH",
"1075 1107 OFFCURVE",
"1059 1085 OFFCURVE",
"1026 1085 CURVE SMOOTH",
"855 1085 LINE",
"855 317 LINE SMOOTH"
);
}
);
width = 1240;
},
{
layerId = "48AFDEF4-2FAB-4AB6-AB64-D7DFD8485508";
width = 600;
},
{
layerId = "1027097C-2ACB-4125-B942-0F8B60E4A4BD";
paths = (
{
closed = 1;
nodes = (
"855 84 OFFCURVE",
"644 -13 OFFCURVE",
"451 -13 CURVE SMOOTH",
"288 -13 OFFCURVE",
"138 56 OFFCURVE",
"138 171 CURVE SMOOTH",
"138 283 LINE SMOOTH",
"138 312 OFFCURVE",
"163 328 OFFCURVE",
"187 328 CURVE SMOOTH",
"211 328 OFFCURVE",
"234 313 OFFCURVE",
"234 283 CURVE SMOOTH",
"234 182 LINE SMOOTH",
"234 114 OFFCURVE",
"342 68 OFFCURVE",
"460 68 CURVE SMOOTH",
"602 68 OFFCURVE",
"759 135 OFFCURVE",
"759 314 CURVE SMOOTH",
"759 1085 LINE",
"409 1085 LINE SMOOTH",
"377 1085 OFFCURVE",
"361 1106 OFFCURVE",
"361 1127 CURVE SMOOTH",
"361 1149 OFFCURVE",
"377 1171 OFFCURVE",
"410 1171 CURVE SMOOTH",
"1025 1171 LINE SMOOTH",
"1058 1171 OFFCURVE",
"1075 1150 OFFCURVE",
"1075 1128 CURVE SMOOTH",
"1075 1107 OFFCURVE",
"1059 1085 OFFCURVE",
"1026 1085 CURVE SMOOTH",
"855 1085 LINE",
"855 317 LINE SMOOTH"
);
}
);
width = 1240;
},
{
anchors = (
{
name = top;
position = "{1024, 1714}";
}
);
layerId = "87D9408F-A41F-4898-A746-FF2057AB3891";
paths = (
{
closed = 1;
nodes = (
"965 24 OFFCURVE",
"745 -158 OFFCURVE",
"461 -158 CURVE SMOOTH",
"257 -158 OFFCURVE",
"85 -47 OFFCURVE",
"85 93 CURVE SMOOTH",
"85 226 LINE SMOOTH",
"85 303 OFFCURVE",
"118 343 OFFCURVE",
"202 343 CURVE SMOOTH",
"266 343 OFFCURVE",
"323 311 OFFCURVE",
"323 249 CURVE SMOOTH",
"323 122 LINE",
"324 73 OFFCURVE",
"394 31 OFFCURVE",
"476 31 CURVE SMOOTH",
"592 31 OFFCURVE",
"732 123 OFFCURVE",
"732 417 CURVE SMOOTH",
"732 1538 LINE",
"410 1538 LINE SMOOTH",
"359 1538 OFFCURVE",
"339 1580 OFFCURVE",
"339 1630 CURVE SMOOTH",
"339 1674 OFFCURVE",
"365 1714 OFFCURVE",
"412 1714 CURVE SMOOTH",
"1228 1714 LINE SMOOTH",
"1275 1714 OFFCURVE",
"1301 1674 OFFCURVE",
"1301 1630 CURVE SMOOTH",
"1301 1580 OFFCURVE",
"1281 1538 OFFCURVE",
"1230 1538 CURVE SMOOTH",
"965 1538 LINE",
"965 443 LINE SMOOTH"
);
}
);
width = 2048;
}
);
unicode = 004A;
},
{
glyphname = K;
lastChange = "2018-12-02 23:35:38 +0000";
layers = (
{
layerId = master01;
paths = (
{
closed = 1;
nodes = (
"50 0 OFFCURVE",
"33 21 OFFCURVE",
"33 43 CURVE SMOOTH",
"33 64 OFFCURVE",
"50 86 OFFCURVE",
"83 86 CURVE SMOOTH",
"242 86 LINE",
"242 1084 LINE",
"83 1084 LINE SMOOTH",
"50 1084 OFFCURVE",
"33 1105 OFFCURVE",
"33 1127 CURVE SMOOTH",
"33 1149 OFFCURVE",
"50 1171 OFFCURVE",
"84 1171 CURVE SMOOTH",
"529 1171 LINE SMOOTH",
"562 1171 OFFCURVE",
"579 1148 OFFCURVE",
"579 1126 CURVE SMOOTH",
"579 1105 OFFCURVE",
"564 1084 OFFCURVE",
"531 1084 CURVE SMOOTH",
"338 1084 LINE",
"338 558 LINE",
"914 1078 LINE SMOOTH",
"917 1081 OFFCURVE",
"921 1085 OFFCURVE",
"921 1088 CURVE SMOOTH",
"921 1091 OFFCURVE",
"917 1094 OFFCURVE",
"902 1094 CURVE SMOOTH",
"813 1094 LINE SMOOTH",
"780 1094 OFFCURVE",
"764 1112 OFFCURVE",
"764 1131 CURVE SMOOTH",
"764 1151 OFFCURVE",
"782 1171 OFFCURVE",
"814 1171 CURVE SMOOTH",
"1176 1171 LINE SMOOTH",
"1209 1171 OFFCURVE",
"1225 1149 OFFCURVE",
"1225 1127 CURVE SMOOTH",
"1225 1105 OFFCURVE",
"1209 1084 OFFCURVE",
"1177 1084 CURVE SMOOTH",
"1039 1084 LINE",
"601 676 LINE",
"1122 86 LINE",
"1259 86 LINE SMOOTH",
"1291 86 OFFCURVE",
"1307 64 OFFCURVE",
"1307 43 CURVE SMOOTH",
"1307 21 OFFCURVE",
"1291 0 OFFCURVE",
"1258 0 CURVE SMOOTH",
"840 0 LINE SMOOTH",
"807 0 OFFCURVE",
"790 21 OFFCURVE",
"790 43 CURVE SMOOTH",
"790 64 OFFCURVE",
"806 86 OFFCURVE",
"839 86 CURVE SMOOTH",
"1005 86 LINE",
"527 621 LINE",
"342 465 LINE",
"342 86 LINE",
"586 86 LINE SMOOTH",
"619 86 OFFCURVE",
"635 64 OFFCURVE",
"635 43 CURVE SMOOTH",
"635 21 OFFCURVE",
"618 0 OFFCURVE",
"585 0 CURVE SMOOTH",
"84 0 LINE SMOOTH"
);
}
);
width = 1240;
},
{
layerId = "48AFDEF4-2FAB-4AB6-AB64-D7DFD8485508";
width = 600;
},
{
layerId = "1027097C-2ACB-4125-B942-0F8B60E4A4BD";
paths = (
{
closed = 1;
nodes = (
"50 0 OFFCURVE",
"33 21 OFFCURVE",
"33 43 CURVE SMOOTH",
"33 64 OFFCURVE",
"50 86 OFFCURVE",
"83 86 CURVE SMOOTH",
"242 86 LINE",
"242 1084 LINE",
"83 1084 LINE SMOOTH",
"50 1084 OFFCURVE",
"33 1105 OFFCURVE",
"33 1127 CURVE SMOOTH",
"33 1149 OFFCURVE",
"50 1171 OFFCURVE",
"84 1171 CURVE SMOOTH",
"529 1171 LINE SMOOTH",
"562 1171 OFFCURVE",
"579 1148 OFFCURVE",
"579 1126 CURVE SMOOTH",
"579 1105 OFFCURVE",
"564 1084 OFFCURVE",
"531 1084 CURVE SMOOTH",
"338 1084 LINE",
"338 558 LINE",
"914 1078 LINE SMOOTH",
"917 1081 OFFCURVE",
"921 1085 OFFCURVE",
"921 1088 CURVE SMOOTH",
"921 1091 OFFCURVE",
"917 1094 OFFCURVE",
"902 1094 CURVE SMOOTH",
"813 1094 LINE SMOOTH",
"780 1094 OFFCURVE",
"764 1112 OFFCURVE",
"764 1131 CURVE SMOOTH",
"764 1151 OFFCURVE",
"782 1171 OFFCURVE",
"814 1171 CURVE SMOOTH",
"1176 1171 LINE SMOOTH",
"1209 1171 OFFCURVE",
"1225 1149 OFFCURVE",
"1225 1127 CURVE SMOOTH",
"1225 1105 OFFCURVE",
"1209 1084 OFFCURVE",
"1177 1084 CURVE SMOOTH",
"1039 1084 LINE",
"601 676 LINE",
"1122 86 LINE",
"1259 86 LINE SMOOTH",
"1291 86 OFFCURVE",
"1307 64 OFFCURVE",
"1307 43 CURVE SMOOTH",
"1307 21 OFFCURVE",
"1291 0 OFFCURVE",
"1258 0 CURVE SMOOTH",
"840 0 LINE SMOOTH",
"807 0 OFFCURVE",
"790 21 OFFCURVE",
"790 43 CURVE SMOOTH",
"790 64 OFFCURVE",
"806 86 OFFCURVE",
"839 86 CURVE SMOOTH",
"1005 86 LINE",
"527 621 LINE",
"342 465 LINE",
"342 86 LINE",
"586 86 LINE SMOOTH",
"619 86 OFFCURVE",
"635 64 OFFCURVE",
"635 43 CURVE SMOOTH",
"635 21 OFFCURVE",
"618 0 OFFCURVE",
"585 0 CURVE SMOOTH",
"84 0 LINE SMOOTH"
);
}
);
width = 1240;
},
{
anchors = (
{
name = bottom;
position = "{1024, 0}";
},
{
name = top;
position = "{1024, 1714}";
}
);
layerId = "87D9408F-A41F-4898-A746-FF2057AB3891";
paths = (
{
closed = 1;
nodes = (
"49 134 OFFCURVE",
"70 176 OFFCURVE",
"121 176 CURVE SMOOTH",
"340 176 LINE",
"340 1538 LINE",
"121 1538 LINE SMOOTH",
"70 1538 OFFCURVE",
"49 1580 OFFCURVE",
"49 1630 CURVE SMOOTH",
"49 1674 OFFCURVE",
"76 1714 OFFCURVE",
"123 1714 CURVE SMOOTH",
"774 1714 LINE SMOOTH",
"821 1714 OFFCURVE",
"848 1674 OFFCURVE",
"848 1630 CURVE SMOOTH",
"848 1580 OFFCURVE",
"828 1538 OFFCURVE",
"777 1538 CURVE SMOOTH",
"574 1538 LINE",
"574 842 LINE",
"1366 1499 LINE SMOOTH",
"1372 1505 OFFCURVE",
"1381 1517 OFFCURVE",
"1381 1530 CURVE SMOOTH",
"1381 1545 OFFCURVE",
"1370 1552 OFFCURVE",
"1348 1552 CURVE SMOOTH",
"1278 1552 LINE SMOOTH",
"1230 1552 OFFCURVE",
"1207 1578 OFFCURVE",
"1207 1630 CURVE SMOOTH",
"1207 1674 OFFCURVE",
"1233 1714 OFFCURVE",
"1280 1714 CURVE SMOOTH",
"1809 1714 LINE SMOOTH",
"1856 1714 OFFCURVE",
"1882 1674 OFFCURVE",
"1882 1630 CURVE SMOOTH",
"1882 1580 OFFCURVE",
"1862 1538 OFFCURVE",
"1811 1538 CURVE SMOOTH",
"1653 1538 LINE",
"1047 1016 LINE",
"1833 176 LINE",
"1975 176 LINE SMOOTH",
"2026 176 OFFCURVE",
"2046 134 OFFCURVE",
"2046 84 CURVE SMOOTH",
"2046 40 OFFCURVE",
"2020 0 OFFCURVE",
"1973 0 CURVE SMOOTH",
"1362 0 LINE SMOOTH",
"1315 0 OFFCURVE",
"1289 40 OFFCURVE",
"1289 84 CURVE SMOOTH",
"1289 134 OFFCURVE",
"1309 176 OFFCURVE",
"1360 176 CURVE SMOOTH",
"1559 176 LINE",
"897 911 LINE",
"574 662 LINE",
"574 176 LINE",
"858 176 LINE SMOOTH",
"909 176 OFFCURVE",
"930 134 OFFCURVE",
"930 84 CURVE SMOOTH",
"930 40 OFFCURVE",
"903 0 OFFCURVE",
"856 0 CURVE SMOOTH",
"123 0 LINE SMOOTH",
"76 0 OFFCURVE",
"49 40 OFFCURVE",
"49 84 CURVE SMOOTH"
);
}
);
width = 2048;
}
);
unicode = 004B;
},
{
glyphname = L;
lastChange = "2018-12-02 23:35:38 +0000";
layers = (
{
layerId = master01;
paths = (
{
closed = 1;
nodes = (
"674 1171 OFFCURVE",
"691 1149 OFFCURVE",
"691 1127 CURVE SMOOTH",
"691 1106 OFFCURVE",
"674 1085 OFFCURVE",
"641 1085 CURVE SMOOTH",
"489 1085 LINE",
"489 86 LINE",
"946 86 LINE",
"968 88 OFFCURVE",
"984 92 OFFCURVE",
"987 123 CURVE SMOOTH",
"1021 399 LINE SMOOTH",
"1025 428 OFFCURVE",
"1048 442 OFFCURVE",
"1071 442 CURVE SMOOTH",
"1097 442 OFFCURVE",
"1122 425 OFFCURVE",
"1122 393 CURVE SMOOTH",
"1122 387 LINE",
"1092 66 LINE",
"1087 29 OFFCURVE",
"1063 0 OFFCURVE",
"1020 0 CURVE SMOOTH",
"125 0 LINE SMOOTH",
"91 0 OFFCURVE",
"74 21 OFFCURVE",
"74 43 CURVE SMOOTH",
"74 64 OFFCURVE",
"91 86 OFFCURVE",
"124 86 CURVE SMOOTH",
"393 86 LINE",
"393 1085 LINE",
"166 1085 LINE SMOOTH",
"133 1085 OFFCURVE",
"117 1106 OFFCURVE",
"117 1127 CURVE SMOOTH",
"117 1149 OFFCURVE",
"134 1171 OFFCURVE",
"167 1171 CURVE SMOOTH",
"640 1171 LINE SMOOTH"
);
}
);
width = 1240;
},
{
layerId = "48AFDEF4-2FAB-4AB6-AB64-D7DFD8485508";
width = 600;
},
{
layerId = "1027097C-2ACB-4125-B942-0F8B60E4A4BD";
paths = (
{
closed = 1;
nodes = (
"674 1171 OFFCURVE",
"691 1149 OFFCURVE",
"691 1127 CURVE SMOOTH",
"691 1106 OFFCURVE",
"674 1085 OFFCURVE",
"641 1085 CURVE SMOOTH",
"489 1085 LINE",
"489 86 LINE",
"946 86 LINE",
"968 88 OFFCURVE",
"984 92 OFFCURVE",
"987 123 CURVE SMOOTH",
"1021 399 LINE SMOOTH",
"1025 428 OFFCURVE",
"1048 442 OFFCURVE",
"1071 442 CURVE SMOOTH",
"1097 442 OFFCURVE",
"1122 425 OFFCURVE",
"1122 393 CURVE SMOOTH",
"1122 387 LINE",
"1092 66 LINE",
"1087 29 OFFCURVE",
"1063 0 OFFCURVE",
"1020 0 CURVE SMOOTH",
"125 0 LINE SMOOTH",
"91 0 OFFCURVE",
"74 21 OFFCURVE",
"74 43 CURVE SMOOTH",
"74 64 OFFCURVE",
"91 86 OFFCURVE",
"124 86 CURVE SMOOTH",
"393 86 LINE",
"393 1085 LINE",
"166 1085 LINE SMOOTH",
"133 1085 OFFCURVE",
"117 1106 OFFCURVE",
"117 1127 CURVE SMOOTH",
"117 1149 OFFCURVE",
"134 1171 OFFCURVE",
"167 1171 CURVE SMOOTH",
"640 1171 LINE SMOOTH"
);
}
);
width = 1240;
},
{
anchors = (
{
name = bottom;
position = "{1024, 0}";
},
{
name = top;
position = "{1024, 1714}";
}
);
layerId = "87D9408F-A41F-4898-A746-FF2057AB3891";
paths = (
{
closed = 1;
nodes = (
"951 1580 OFFCURVE",
"930 1538 OFFCURVE",
"879 1538 CURVE SMOOTH",
"656 1538 LINE",
"656 176 LINE",
"1360 176 LINE SMOOTH",
"1474 176 OFFCURVE",
"1566 197 OFFCURVE",
"1575 303 CURVE",
"1604 584 LINE SMOOTH",
"1609 628 OFFCURVE",
"1639 647 OFFCURVE",
"1686 647 CURVE SMOOTH",
"1735 647 OFFCURVE",
"1778 620 OFFCURVE",
"1778 567 CURVE",
"1733 68 LINE SMOOTH",
"1729 30 OFFCURVE",
"1709 0 OFFCURVE",
"1672 0 CURVE SMOOTH",
"123 0 LINE SMOOTH",
"76 0 OFFCURVE",
"49 40 OFFCURVE",
"49 84 CURVE SMOOTH",
"49 134 OFFCURVE",
"70 176 OFFCURVE",
"121 176 CURVE SMOOTH",
"422 176 LINE",
"422 1538 LINE",
"183 1538 LINE SMOOTH",
"132 1538 OFFCURVE",
"111 1580 OFFCURVE",
"111 1630 CURVE SMOOTH",
"111 1674 OFFCURVE",
"138 1714 OFFCURVE",
"185 1714 CURVE SMOOTH",
"877 1714 LINE SMOOTH",
"924 1714 OFFCURVE",
"951 1674 OFFCURVE",
"951 1630 CURVE SMOOTH"
);
}
);
width = 2048;
}
);
unicode = 004C;
},
{
glyphname = Lslash;
lastChange = "2018-12-02 23:35:38 +0000";
layers = (
{
components = (
{
name = L;
}
);
layerId = master01;
paths = (
{
closed = 1;
nodes = (
"802 768 OFFCURVE",
"818 750 OFFCURVE",
"818 722 CURVE SMOOTH",
"818 703 OFFCURVE",
"806 692 OFFCURVE",
"780 685 CURVE SMOOTH",
"245 551 LINE SMOOTH",
"237 549 OFFCURVE",
"229 548 OFFCURVE",
"223 548 CURVE SMOOTH",
"198 548 OFFCURVE",
"183 566 OFFCURVE",
"183 594 CURVE SMOOTH",
"183 613 OFFCURVE",
"196 627 OFFCURVE",
"223 634 CURVE SMOOTH",
"758 765 LINE SMOOTH",
"765 767 OFFCURVE",
"771 768 OFFCURVE",
"777 768 CURVE SMOOTH"
);
}
);
width = 1240;
},
{
layerId = "48AFDEF4-2FAB-4AB6-AB64-D7DFD8485508";
width = 600;
},
{
components = (
{
name = L;
}
);
layerId = "1027097C-2ACB-4125-B942-0F8B60E4A4BD";
paths = (
{
closed = 1;
nodes = (
"802 768 OFFCURVE",
"818 750 OFFCURVE",
"818 722 CURVE SMOOTH",
"818 703 OFFCURVE",
"806 692 OFFCURVE",
"780 685 CURVE SMOOTH",
"245 551 LINE SMOOTH",
"237 549 OFFCURVE",
"229 548 OFFCURVE",
"223 548 CURVE SMOOTH",
"198 548 OFFCURVE",
"183 566 OFFCURVE",
"183 594 CURVE SMOOTH",
"183 613 OFFCURVE",
"196 627 OFFCURVE",
"223 634 CURVE SMOOTH",
"758 765 LINE SMOOTH",
"765 767 OFFCURVE",
"771 768 OFFCURVE",
"777 768 CURVE SMOOTH"
);
}
);
width = 1240;
},
{
layerId = "87D9408F-A41F-4898-A746-FF2057AB3891";
paths = (
{
closed = 1;
nodes = (
"970 1580 OFFCURVE",
"949 1538 OFFCURVE",
"898 1538 CURVE SMOOTH",
"675 1538 LINE",
"675 1149 LINE",
"937 1250 LINE",
"958 1256 OFFCURVE",
"976 1259 OFFCURVE",
"992 1259 CURVE SMOOTH",
"1042 1259 OFFCURVE",
"1060 1228 OFFCURVE",
"1060 1195 CURVE SMOOTH",
"1060 1160 OFFCURVE",
"1040 1122 OFFCURVE",
"1016 1115 CURVE",
"675 984 LINE",
"675 176 LINE",
"1379 176 LINE SMOOTH",
"1493 176 OFFCURVE",
"1585 197 OFFCURVE",
"1594 303 CURVE",
"1623 584 LINE SMOOTH",
"1628 628 OFFCURVE",
"1658 647 OFFCURVE",
"1705 647 CURVE SMOOTH",
"1754 647 OFFCURVE",
"1797 620 OFFCURVE",
"1797 567 CURVE",
"1752 68 LINE SMOOTH",
"1748 30 OFFCURVE",
"1728 0 OFFCURVE",
"1691 0 CURVE SMOOTH",
"142 0 LINE SMOOTH",
"95 0 OFFCURVE",
"68 40 OFFCURVE",
"68 84 CURVE SMOOTH",
"68 134 OFFCURVE",
"89 176 OFFCURVE",
"140 176 CURVE SMOOTH",
"441 176 LINE",
"441 893 LINE",
"310 843 LINE",
"286 836 OFFCURVE",
"266 833 OFFCURVE",
"249 833 CURVE SMOOTH",
"197 833 OFFCURVE",
"178 864 OFFCURVE",
"178 897 CURVE SMOOTH",
"178 931 OFFCURVE",
"197 967 OFFCURVE",
"223 975 CURVE",
"441 1059 LINE",
"441 1538 LINE",
"202 1538 LINE SMOOTH",
"151 1538 OFFCURVE",
"130 1580 OFFCURVE",
"130 1630 CURVE SMOOTH",
"130 1674 OFFCURVE",
"157 1714 OFFCURVE",
"204 1714 CURVE SMOOTH",
"896 1714 LINE SMOOTH",
"943 1714 OFFCURVE",
"970 1674 OFFCURVE",
"970 1630 CURVE SMOOTH"
);
}
);
width = 2048;
}
);
unicode = 0141;
},
{
glyphname = M;
lastChange = "2018-12-02 23:35:38 +0000";
layers = (
{
layerId = master01;
paths = (
{
closed = 1;
nodes = (
"783 0 OFFCURVE",
"766 22 OFFCURVE",
"766 44 CURVE SMOOTH",
"766 65 OFFCURVE",
"782 86 OFFCURVE",
"815 86 CURVE SMOOTH",
"948 86 LINE",
"948 982 LINE",
"691 390 LINE SMOOTH",
"677 358 OFFCURVE",
"651 342 OFFCURVE",
"625 342 CURVE SMOOTH",
"601 342 OFFCURVE",
"578 355 OFFCURVE",
"565 385 CURVE SMOOTH",
"298 978 LINE",
"298 86 LINE",
"418 86 LINE SMOOTH",
"452 86 OFFCURVE",
"468 65 OFFCURVE",
"468 44 CURVE SMOOTH",
"468 22 OFFCURVE",
"451 0 OFFCURVE",
"417 0 CURVE SMOOTH",
"70 0 LINE SMOOTH",
"37 0 OFFCURVE",
"20 21 OFFCURVE",
"20 43 CURVE SMOOTH",
"20 64 OFFCURVE",
"36 86 OFFCURVE",
"69 86 CURVE SMOOTH",
"202 86 LINE",
"202 1085 LINE",
"83 1085 LINE SMOOTH",
"50 1085 OFFCURVE",
"34 1106 OFFCURVE",
"34 1127 CURVE SMOOTH",
"34 1149 OFFCURVE",
"51 1171 OFFCURVE",
"84 1171 CURVE SMOOTH",
"282 1171 LINE SMOOTH",
"306 1171 OFFCURVE",
"320 1154 OFFCURVE",
"328 1136 CURVE SMOOTH",
"629 473 LINE",
"919 1141 LINE SMOOTH",
"926 1158 OFFCURVE",
"942 1171 OFFCURVE",
"964 1171 CURVE SMOOTH",
"1156 1171 LINE SMOOTH",
"1190 1171 OFFCURVE",
"1207 1149 OFFCURVE",
"1207 1127 CURVE SMOOTH",
"1207 1106 OFFCURVE",
"1190 1085 OFFCURVE",
"1157 1085 CURVE SMOOTH",
"1044 1085 LINE",
"1044 86 LINE",
"1172 86 LINE SMOOTH",
"1204 86 OFFCURVE",
"1220 65 OFFCURVE",
"1220 44 CURVE SMOOTH",
"1220 22 OFFCURVE",
"1203 0 OFFCURVE",
"1170 0 CURVE SMOOTH",
"817 0 LINE SMOOTH"
);
}
);
width = 1240;
},
{
layerId = "48AFDEF4-2FAB-4AB6-AB64-D7DFD8485508";
width = 600;
},
{
layerId = "1027097C-2ACB-4125-B942-0F8B60E4A4BD";
paths = (
{
closed = 1;
nodes = (
"783 0 OFFCURVE",
"766 22 OFFCURVE",
"766 44 CURVE SMOOTH",
"766 65 OFFCURVE",
"782 86 OFFCURVE",
"815 86 CURVE SMOOTH",
"948 86 LINE",
"948 982 LINE",
"691 390 LINE SMOOTH",
"677 358 OFFCURVE",
"651 342 OFFCURVE",
"625 342 CURVE SMOOTH",
"601 342 OFFCURVE",
"578 355 OFFCURVE",
"565 385 CURVE SMOOTH",
"298 978 LINE",
"298 86 LINE",
"418 86 LINE SMOOTH",
"452 86 OFFCURVE",
"468 65 OFFCURVE",
"468 44 CURVE SMOOTH",
"468 22 OFFCURVE",
"451 0 OFFCURVE",
"417 0 CURVE SMOOTH",
"70 0 LINE SMOOTH",
"37 0 OFFCURVE",
"20 21 OFFCURVE",
"20 43 CURVE SMOOTH",
"20 64 OFFCURVE",
"36 86 OFFCURVE",
"69 86 CURVE SMOOTH",
"202 86 LINE",
"202 1085 LINE",
"83 1085 LINE SMOOTH",
"50 1085 OFFCURVE",
"34 1106 OFFCURVE",
"34 1127 CURVE SMOOTH",
"34 1149 OFFCURVE",
"51 1171 OFFCURVE",
"84 1171 CURVE SMOOTH",
"282 1171 LINE SMOOTH",
"306 1171 OFFCURVE",
"320 1154 OFFCURVE",
"328 1136 CURVE SMOOTH",
"629 473 LINE",
"919 1141 LINE SMOOTH",
"926 1158 OFFCURVE",
"942 1171 OFFCURVE",
"964 1171 CURVE SMOOTH",
"1156 1171 LINE SMOOTH",
"1190 1171 OFFCURVE",
"1207 1149 OFFCURVE",
"1207 1127 CURVE SMOOTH",
"1207 1106 OFFCURVE",
"1190 1085 OFFCURVE",
"1157 1085 CURVE SMOOTH",
"1044 1085 LINE",
"1044 86 LINE",
"1172 86 LINE SMOOTH",
"1204 86 OFFCURVE",
"1220 65 OFFCURVE",
"1220 44 CURVE SMOOTH",
"1220 22 OFFCURVE",
"1203 0 OFFCURVE",
"1170 0 CURVE SMOOTH",
"817 0 LINE SMOOTH"
);
}
);
width = 1240;
},
{
layerId = "87D9408F-A41F-4898-A746-FF2057AB3891";
paths = (
{
closed = 1;
nodes = (
"1455.5 134 OFFCURVE",
"1476.5 176 OFFCURVE",
"1527.5 176 CURVE SMOOTH",
"1709.5 176 LINE",
"1709.5 1235 LINE",
"1105.5 102 LINE",
"1092.5 67 OFFCURVE",
"1057.5 37 OFFCURVE",
"1011.5 37 CURVE SMOOTH",
"970.5 37 OFFCURVE",
"935.5 63 OFFCURVE",
"921.5 92 CURVE SMOOTH",
"355.5 1249 LINE",
"355.5 176 LINE",
"558.5 176 LINE SMOOTH",
"609.5 176 OFFCURVE",
"630.5 134 OFFCURVE",
"630.5 84 CURVE SMOOTH",
"630.5 40 OFFCURVE",
"603.5 0 OFFCURVE",
"556.5 0 CURVE SMOOTH",
"-74.5 0 LINE SMOOTH",
"-121.5 0 OFFCURVE",
"-148.5 40 OFFCURVE",
"-148.5 84 CURVE SMOOTH",
"-148.5 134 OFFCURVE",
"-127.5 176 OFFCURVE",
"-76.5 176 CURVE SMOOTH",
"146.5 176 LINE",
"146.5 1538 LINE",
"-55.5 1538 LINE SMOOTH",
"-106.5 1538 OFFCURVE",
"-127.5 1580 OFFCURVE",
"-127.5 1630 CURVE SMOOTH",
"-127.5 1674 OFFCURVE",
"-100.5 1714 OFFCURVE",
"-53.5 1714 CURVE SMOOTH",
"282.5 1714 LINE SMOOTH",
"318.5 1714 OFFCURVE",
"337.5 1688 OFFCURVE",
"349.5 1663 CURVE SMOOTH",
"1011.5 328 LINE",
"1717.5 1671 LINE SMOOTH",
"1729.5 1694 OFFCURVE",
"1749.5 1714 OFFCURVE",
"1783.5 1714 CURVE SMOOTH",
"2102.5 1714 LINE SMOOTH",
"2149.5 1714 OFFCURVE",
"2176.5 1674 OFFCURVE",
"2176.5 1630 CURVE SMOOTH",
"2176.5 1580 OFFCURVE",
"2155.5 1538 OFFCURVE",
"2104.5 1538 CURVE SMOOTH",
"1922.5 1538 LINE",
"1922.5 176 LINE",
"2125.5 176 LINE SMOOTH",
"2176.5 176 OFFCURVE",
"2196.5 134 OFFCURVE",
"2196.5 84 CURVE SMOOTH",
"2196.5 40 OFFCURVE",
"2170.5 0 OFFCURVE",
"2123.5 0 CURVE SMOOTH",
"1529.5 0 LINE SMOOTH",
"1482.5 0 OFFCURVE",
"1455.5 40 OFFCURVE",
"1455.5 84 CURVE SMOOTH"
);
}
);
width = 2048;
}
);
unicode = 004D;
},
{
glyphname = N;
lastChange = "2018-12-02 23:35:38 +0000";
layers = (
{
layerId = master01;
paths = (
{
closed = 1;
nodes = (
"96 1085 OFFCURVE",
"80 1106 OFFCURVE",
"80 1127 CURVE SMOOTH",
"80 1149 OFFCURVE",
"97 1171 OFFCURVE",
"130 1171 CURVE SMOOTH",
"417 1171 LINE SMOOTH",
"439 1171 OFFCURVE",
"449 1163 OFFCURVE",
"457 1147 CURVE SMOOTH",
"943 194 LINE",
"943 1085 LINE",
"794 1085 LINE SMOOTH",
"761 1085 OFFCURVE",
"745 1106 OFFCURVE",
"745 1127 CURVE SMOOTH",
"745 1149 OFFCURVE",
"762 1171 OFFCURVE",
"796 1171 CURVE SMOOTH",
"1133 1171 LINE SMOOTH",
"1166 1171 OFFCURVE",
"1183 1149 OFFCURVE",
"1183 1127 CURVE SMOOTH",
"1183 1106 OFFCURVE",
"1167 1085 OFFCURVE",
"1135 1085 CURVE SMOOTH",
"1039 1085 LINE",
"1039 47 LINE SMOOTH",
"1039 4 OFFCURVE",
"1016 -16 OFFCURVE",
"990 -16 CURVE SMOOTH",
"969 -16 OFFCURVE",
"947 -3 OFFCURVE",
"934 22 CURVE SMOOTH",
"381 1084 LINE",
"381 86 LINE",
"519 86 LINE SMOOTH",
"552 86 OFFCURVE",
"568 64 OFFCURVE",
"568 43 CURVE SMOOTH",
"568 21 OFFCURVE",
"551 0 OFFCURVE",
"518 0 CURVE SMOOTH",
"160 0 LINE SMOOTH",
"127 0 OFFCURVE",
"110 21 OFFCURVE",
"110 43 CURVE SMOOTH",
"110 64 OFFCURVE",
"126 86 OFFCURVE",
"159 86 CURVE SMOOTH",
"285 86 LINE",
"285 1085 LINE",
"129 1085 LINE SMOOTH"
);
}
);
width = 1240;
},
{
layerId = "48AFDEF4-2FAB-4AB6-AB64-D7DFD8485508";
width = 600;
},
{
layerId = "1027097C-2ACB-4125-B942-0F8B60E4A4BD";
paths = (
{
closed = 1;
nodes = (
"96 1085 OFFCURVE",
"80 1106 OFFCURVE",
"80 1127 CURVE SMOOTH",
"80 1149 OFFCURVE",
"97 1171 OFFCURVE",
"130 1171 CURVE SMOOTH",
"417 1171 LINE SMOOTH",
"439 1171 OFFCURVE",
"449 1163 OFFCURVE",
"457 1147 CURVE SMOOTH",
"943 194 LINE",
"943 1085 LINE",
"794 1085 LINE SMOOTH",
"761 1085 OFFCURVE",
"745 1106 OFFCURVE",
"745 1127 CURVE SMOOTH",
"745 1149 OFFCURVE",
"762 1171 OFFCURVE",
"796 1171 CURVE SMOOTH",
"1133 1171 LINE SMOOTH",
"1166 1171 OFFCURVE",
"1183 1149 OFFCURVE",
"1183 1127 CURVE SMOOTH",
"1183 1106 OFFCURVE",
"1167 1085 OFFCURVE",
"1135 1085 CURVE SMOOTH",
"1039 1085 LINE",
"1039 47 LINE SMOOTH",
"1039 4 OFFCURVE",
"1016 -16 OFFCURVE",
"990 -16 CURVE SMOOTH",
"969 -16 OFFCURVE",
"947 -3 OFFCURVE",
"934 22 CURVE SMOOTH",
"381 1084 LINE",
"381 86 LINE",
"519 86 LINE SMOOTH",
"552 86 OFFCURVE",
"568 64 OFFCURVE",
"568 43 CURVE SMOOTH",
"568 21 OFFCURVE",
"551 0 OFFCURVE",
"518 0 CURVE SMOOTH",
"160 0 LINE SMOOTH",
"127 0 OFFCURVE",
"110 21 OFFCURVE",
"110 43 CURVE SMOOTH",
"110 64 OFFCURVE",
"126 86 OFFCURVE",
"159 86 CURVE SMOOTH",
"285 86 LINE",
"285 1085 LINE",
"129 1085 LINE SMOOTH"
);
}
);
width = 1240;
},
{
anchors = (
{
name = bottom;
position = "{1024, 0}";
},
{
name = top;
position = "{1024, 1714}";
}
);
layerId = "87D9408F-A41F-4898-A746-FF2057AB3891";
paths = (
{
closed = 1;
nodes = (
"48 1674 OFFCURVE",
"75 1714 OFFCURVE",
"122 1714 CURVE SMOOTH",
"585 1714 LINE SMOOTH",
"617 1714 OFFCURVE",
"632 1704 OFFCURVE",
"644 1679 CURVE",
"1523 426 LINE",
"1523 1538 LINE",
"1343 1538 LINE SMOOTH",
"1292 1538 OFFCURVE",
"1271 1580 OFFCURVE",
"1271 1630 CURVE SMOOTH",
"1271 1674 OFFCURVE",
"1298 1714 OFFCURVE",
"1345 1714 CURVE SMOOTH",
"1927 1714 LINE SMOOTH",
"1974 1714 OFFCURVE",
"2000 1674 OFFCURVE",
"2000 1630 CURVE SMOOTH",
"2000 1580 OFFCURVE",
"1980 1538 OFFCURVE",
"1929 1538 CURVE SMOOTH",
"1730 1538 LINE",
"1730 53 LINE SMOOTH",
"1730 2 OFFCURVE",
"1689 -37 OFFCURVE",
"1640 -37 CURVE SMOOTH",
"1597 -37 OFFCURVE",
"1568 -13 OFFCURVE",
"1548 16 CURVE SMOOTH",
"530 1456 LINE",
"530 176 LINE",
"706 176 LINE SMOOTH",
"757 176 OFFCURVE",
"778 134 OFFCURVE",
"778 84 CURVE SMOOTH",
"778 40 OFFCURVE",
"751 0 OFFCURVE",
"704 0 CURVE SMOOTH",
"122 0 LINE SMOOTH",
"75 0 OFFCURVE",
"48 40 OFFCURVE",
"48 84 CURVE SMOOTH",
"48 134 OFFCURVE",
"69 176 OFFCURVE",
"120 176 CURVE SMOOTH",
"319 176 LINE",
"319 1538 LINE",
"120 1538 LINE SMOOTH",
"69 1538 OFFCURVE",
"48 1580 OFFCURVE",
"48 1630 CURVE SMOOTH"
);
}
);
width = 2048;
}
);
unicode = 004E;
},
{
glyphname = Eng;
lastChange = "2018-12-02 23:35:38 +0000";
layers = (
{
layerId = master01;
paths = (
{
closed = 1;
nodes = (
"603 -401 OFFCURVE",
"589 -380 OFFCURVE",
"589 -359 CURVE SMOOTH",
"589 -339 OFFCURVE",
"602 -320 OFFCURVE",
"630 -320 CURVE SMOOTH",
"782 -320 OFFCURVE",
"943 -211 OFFCURVE",
"943 -32 CURVE SMOOTH",
"943 52 LINE",
"875 177 OFFCURVE",
"506 844 OFFCURVE",
"381 1084 CURVE",
"381 86 LINE",
"519 86 LINE SMOOTH",
"552 86 OFFCURVE",
"568 64 OFFCURVE",
"568 43 CURVE SMOOTH",
"568 21 OFFCURVE",
"551 0 OFFCURVE",
"518 0 CURVE SMOOTH",
"160 0 LINE SMOOTH",
"127 0 OFFCURVE",
"110 21 OFFCURVE",
"110 43 CURVE SMOOTH",
"110 64 OFFCURVE",
"126 86 OFFCURVE",
"159 86 CURVE SMOOTH",
"285 86 LINE",
"285 1085 LINE",
"129 1085 LINE SMOOTH",
"96 1085 OFFCURVE",
"80 1106 OFFCURVE",
"80 1127 CURVE SMOOTH",
"80 1149 OFFCURVE",
"97 1171 OFFCURVE",
"130 1171 CURVE SMOOTH",
"407 1171 LINE SMOOTH",
"429 1171 OFFCURVE",
"439 1163 OFFCURVE",
"447 1147 CURVE SMOOTH",
"943 224 LINE",
"943 1085 LINE",
"794 1085 LINE SMOOTH",
"761 1085 OFFCURVE",
"745 1106 OFFCURVE",
"745 1127 CURVE SMOOTH",
"745 1149 OFFCURVE",
"762 1171 OFFCURVE",
"796 1171 CURVE SMOOTH",
"1133 1171 LINE SMOOTH",
"1166 1171 OFFCURVE",
"1183 1149 OFFCURVE",
"1183 1127 CURVE SMOOTH",
"1183 1106 OFFCURVE",
"1167 1085 OFFCURVE",
"1135 1085 CURVE SMOOTH",
"1039 1085 LINE",
"1039 -19 LINE SMOOTH",
"1039 -252 OFFCURVE",
"841 -401 OFFCURVE",
"629 -401 CURVE SMOOTH"
);
}
);
width = 1240;
},
{
layerId = "48AFDEF4-2FAB-4AB6-AB64-D7DFD8485508";
width = 600;
},
{
layerId = "1027097C-2ACB-4125-B942-0F8B60E4A4BD";
paths = (
{
closed = 1;
nodes = (
"603 -401 OFFCURVE",
"589 -380 OFFCURVE",
"589 -359 CURVE SMOOTH",
"589 -339 OFFCURVE",
"602 -320 OFFCURVE",
"630 -320 CURVE SMOOTH",
"782 -320 OFFCURVE",
"943 -211 OFFCURVE",
"943 -32 CURVE SMOOTH",
"943 52 LINE",
"875 177 OFFCURVE",
"506 844 OFFCURVE",
"381 1084 CURVE",
"381 86 LINE",
"519 86 LINE SMOOTH",
"552 86 OFFCURVE",
"568 64 OFFCURVE",
"568 43 CURVE SMOOTH",
"568 21 OFFCURVE",
"551 0 OFFCURVE",
"518 0 CURVE SMOOTH",
"160 0 LINE SMOOTH",
"127 0 OFFCURVE",
"110 21 OFFCURVE",
"110 43 CURVE SMOOTH",
"110 64 OFFCURVE",
"126 86 OFFCURVE",
"159 86 CURVE SMOOTH",
"285 86 LINE",
"285 1085 LINE",
"129 1085 LINE SMOOTH",
"96 1085 OFFCURVE",
"80 1106 OFFCURVE",
"80 1127 CURVE SMOOTH",
"80 1149 OFFCURVE",
"97 1171 OFFCURVE",
"130 1171 CURVE SMOOTH",
"407 1171 LINE SMOOTH",
"429 1171 OFFCURVE",
"439 1163 OFFCURVE",
"447 1147 CURVE SMOOTH",
"943 224 LINE",
"943 1085 LINE",
"794 1085 LINE SMOOTH",
"761 1085 OFFCURVE",
"745 1106 OFFCURVE",
"745 1127 CURVE SMOOTH",
"745 1149 OFFCURVE",
"762 1171 OFFCURVE",
"796 1171 CURVE SMOOTH",
"1133 1171 LINE SMOOTH",
"1166 1171 OFFCURVE",
"1183 1149 OFFCURVE",
"1183 1127 CURVE SMOOTH",
"1183 1106 OFFCURVE",
"1167 1085 OFFCURVE",
"1135 1085 CURVE SMOOTH",
"1039 1085 LINE",
"1039 -19 LINE SMOOTH",
"1039 -252 OFFCURVE",
"841 -401 OFFCURVE",
"629 -401 CURVE SMOOTH"
);
}
);
width = 1240;
},
{
layerId = "87D9408F-A41F-4898-A746-FF2057AB3891";
paths = (
{
closed = 1;
nodes = (
"68 1674 OFFCURVE",
"95 1714 OFFCURVE",
"142 1714 CURVE SMOOTH",
"605 1714 LINE SMOOTH",
"637 1714 OFFCURVE",
"652 1704 OFFCURVE",
"664 1679 CURVE",
"1543 426 LINE",
"1543 1538 LINE",
"1363 1538 LINE SMOOTH",
"1312 1538 OFFCURVE",
"1291 1580 OFFCURVE",
"1291 1630 CURVE SMOOTH",
"1291 1674 OFFCURVE",
"1318 1714 OFFCURVE",
"1365 1714 CURVE SMOOTH",
"1947 1714 LINE SMOOTH",
"1994 1714 OFFCURVE",
"2020 1674 OFFCURVE",
"2020 1630 CURVE SMOOTH",
"2020 1580 OFFCURVE",
"2000 1538 OFFCURVE",
"1949 1538 CURVE SMOOTH",
"1750 1538 LINE",
"1750 -52 LINE SMOOTH",
"1750 -425 OFFCURVE",
"1555 -587 OFFCURVE",
"1302 -587 CURVE SMOOTH",
"1121 -587 OFFCURVE",
"967 -489 OFFCURVE",
"967 -364 CURVE SMOOTH",
"967 -245 LINE SMOOTH",
"967 -176 OFFCURVE",
"997 -141 OFFCURVE",
"1071 -141 CURVE SMOOTH",
"1128 -141 OFFCURVE",
"1179 -170 OFFCURVE",
"1179 -225 CURVE SMOOTH",
"1179 -338 LINE",
"1180 -381 OFFCURVE",
"1242 -419 OFFCURVE",
"1315 -419 CURVE SMOOTH",
"1418 -419 OFFCURVE",
"1543 -336 OFFCURVE",
"1543 -75 CURVE SMOOTH",
"1543 51 LINE",
"550 1456 LINE",
"550 176 LINE",
"726 176 LINE SMOOTH",
"777 176 OFFCURVE",
"798 134 OFFCURVE",
"798 84 CURVE SMOOTH",
"798 40 OFFCURVE",
"771 0 OFFCURVE",
"724 0 CURVE SMOOTH",
"142 0 LINE SMOOTH",
"95 0 OFFCURVE",
"68 40 OFFCURVE",
"68 84 CURVE SMOOTH",
"68 134 OFFCURVE",
"89 176 OFFCURVE",
"140 176 CURVE SMOOTH",
"339 176 LINE",
"339 1538 LINE",
"140 1538 LINE SMOOTH",
"89 1538 OFFCURVE",
"68 1580 OFFCURVE",
"68 1630 CURVE SMOOTH"
);
}
);
width = 2048;
}
);
unicode = 014A;
},
{
glyphname = O;
lastChange = "2018-12-02 23:35:38 +0000";
layers = (
{
layerId = master01;
paths = (
{
closed = 1;
nodes = (
"279 -17 OFFCURVE",
"108 281 OFFCURVE",
"108 582 CURVE SMOOTH",
"108 883 OFFCURVE",
"279 1187 OFFCURVE",
"620 1187 CURVE SMOOTH",
"961 1187 OFFCURVE",
"1132 883 OFFCURVE",
"1132 582 CURVE SMOOTH",
"1132 281 OFFCURVE",
"961 -17 OFFCURVE",
"620 -17 CURVE SMOOTH"
);
},
{
closed = 1;
nodes = (
"344 1101 OFFCURVE",
"204 842 OFFCURVE",
"204 582 CURVE SMOOTH",
"204 326 OFFCURVE",
"340 69 OFFCURVE",
"620 69 CURVE SMOOTH",
"900 69 OFFCURVE",
"1036 326 OFFCURVE",
"1036 582 CURVE SMOOTH",
"1036 842 OFFCURVE",
"896 1101 OFFCURVE",
"620 1101 CURVE SMOOTH"
);
}
);
width = 1240;
},
{
layerId = "48AFDEF4-2FAB-4AB6-AB64-D7DFD8485508";
width = 600;
},
{
layerId = "1027097C-2ACB-4125-B942-0F8B60E4A4BD";
paths = (
{
closed = 1;
nodes = (
"279 -17 OFFCURVE",
"108 281 OFFCURVE",
"108 582 CURVE SMOOTH",
"108 883 OFFCURVE",
"279 1187 OFFCURVE",
"620 1187 CURVE SMOOTH",
"961 1187 OFFCURVE",
"1132 883 OFFCURVE",
"1132 582 CURVE SMOOTH",
"1132 281 OFFCURVE",
"961 -17 OFFCURVE",
"620 -17 CURVE SMOOTH"
);
},
{
closed = 1;
nodes = (
"344 1101 OFFCURVE",
"204 842 OFFCURVE",
"204 582 CURVE SMOOTH",
"204 326 OFFCURVE",
"340 69 OFFCURVE",
"620 69 CURVE SMOOTH",
"900 69 OFFCURVE",
"1036 326 OFFCURVE",
"1036 582 CURVE SMOOTH",
"1036 842 OFFCURVE",
"896 1101 OFFCURVE",
"620 1101 CURVE SMOOTH"
);
}
);
width = 1240;
},
{
anchors = (
{
name = top;
position = "{1024, 1714}";
}
);
layerId = "87D9408F-A41F-4898-A746-FF2057AB3891";
paths = (
{
closed = 1;
nodes = (
"171 320 OFFCURVE",
"171 850 CURVE SMOOTH",
"171 1382 OFFCURVE",
"496 1739 OFFCURVE",
"1020 1739 CURVE SMOOTH",
"1550 1739 OFFCURVE",
"1867 1382 OFFCURVE",
"1867 850 CURVE SMOOTH",
"1867 320 OFFCURVE",
"1548 -25 OFFCURVE",
"1020 -25 CURVE SMOOTH",
"496 -25 OFFCURVE"
);
},
{
closed = 1;
nodes = (
"421 501 OFFCURVE",
"615 164 OFFCURVE",
"1004 164 CURVE SMOOTH",
"1012 164 OFFCURVE",
"1020 164 OFFCURVE",
"1028 164 CURVE",
"1226 164 OFFCURVE",
"1220 1550 OFFCURVE",
"1011 1550 CURVE",
"617 1536 OFFCURVE",
"421 1188 OFFCURVE",
"421 843 CURVE SMOOTH"
);
}
);
width = 2048;
}
);
unicode = 004F;
},
{
glyphname = Oslash;
lastChange = "2018-12-02 23:35:38 +0000";
layers = (
{
components = (
{
name = O;
}
);
layerId = master01;
paths = (
{
closed = 1;
nodes = (
"288 -187 OFFCURVE",
"277 -192 OFFCURVE",
"265 -192 CURVE SMOOTH",
"246 -192 OFFCURVE",
"226 -176 OFFCURVE",
"226 -158 CURVE SMOOTH",
"226 -154 OFFCURVE",
"227 -150 OFFCURVE",
"229 -146 CURVE SMOOTH",
"972 1305 LINE SMOOTH",
"978 1316 OFFCURVE",
"988 1321 OFFCURVE",
"999 1321 CURVE SMOOTH",
"1017 1321 OFFCURVE",
"1037 1308 OFFCURVE",
"1037 1289 CURVE SMOOTH",
"1037 1284 OFFCURVE",
"1036 1279 OFFCURVE",
"1033 1274 CURVE SMOOTH",
"295 -172 LINE SMOOTH"
);
}
);
width = 1240;
},
{
layerId = "48AFDEF4-2FAB-4AB6-AB64-D7DFD8485508";
width = 600;
},
{
components = (
{
name = O;
}
);
layerId = "1027097C-2ACB-4125-B942-0F8B60E4A4BD";
paths = (
{
closed = 1;
nodes = (
"288 -187 OFFCURVE",
"277 -192 OFFCURVE",
"265 -192 CURVE SMOOTH",
"246 -192 OFFCURVE",
"226 -176 OFFCURVE",
"226 -158 CURVE SMOOTH",
"226 -154 OFFCURVE",
"227 -150 OFFCURVE",
"229 -146 CURVE SMOOTH",
"972 1305 LINE SMOOTH",
"978 1316 OFFCURVE",
"988 1321 OFFCURVE",
"999 1321 CURVE SMOOTH",
"1017 1321 OFFCURVE",
"1037 1308 OFFCURVE",
"1037 1289 CURVE SMOOTH",
"1037 1284 OFFCURVE",
"1036 1279 OFFCURVE",
"1033 1274 CURVE SMOOTH",
"295 -172 LINE SMOOTH"
);
}
);
width = 1240;
},
{
anchors = (
{
name = top;
position = "{1024, 1714}";
}
);
layerId = "87D9408F-A41F-4898-A746-FF2057AB3891";
paths = (
{
closed = 1;
nodes = (
"558 1550 OFFCURVE",
"327 1256 OFFCURVE",
"327 850 CURVE SMOOTH",
"327 594 OFFCURVE",
"422 387 OFFCURVE",
"595 270 CURVE",
"1190 1515 LINE",
"1120 1538 OFFCURVE",
"1042 1550 OFFCURVE",
"957 1550 CURVE SMOOTH"
);
},
{
closed = 1;
nodes = (
"1375 164 OFFCURVE",
"1615 438 OFFCURVE",
"1615 848 CURVE SMOOTH",
"1615 1106 OFFCURVE",
"1519 1315 OFFCURVE",
"1348 1436 CURVE",
"755 195 LINE",
"821 175 OFFCURVE",
"894 164 OFFCURVE",
"974 164 CURVE SMOOTH"
);
},
{
closed = 1;
nodes = (
"484 -370 OFFCURVE",
"467 -389 OFFCURVE",
"432 -389 CURVE SMOOTH",
"385 -389 OFFCURVE",
"327 -351 OFFCURVE",
"327 -303 CURVE SMOOTH",
"327 -292 OFFCURVE",
"330 -282 OFFCURVE",
"335 -272 CURVE SMOOTH",
"505 83 LINE",
"240 224 OFFCURVE",
"77 496 OFFCURVE",
"77 850 CURVE SMOOTH",
"77 1382 OFFCURVE",
"442 1739 OFFCURVE",
"966 1739 CURVE SMOOTH",
"1077 1739 OFFCURVE",
"1181 1723 OFFCURVE",
"1276 1694 CURVE",
"1443 2042 LINE",
"1454 2068 OFFCURVE",
"1475 2081 OFFCURVE",
"1505 2081 CURVE SMOOTH",
"1551 2081 OFFCURVE",
"1607 2045 OFFCURVE",
"1607 1995 CURVE SMOOTH",
"1607 1985 OFFCURVE",
"1605 1977 OFFCURVE",
"1601 1967 CURVE SMOOTH",
"1438 1625 LINE",
"1701 1479 OFFCURVE",
"1863 1203 OFFCURVE",
"1863 850 CURVE SMOOTH",
"1863 320 OFFCURVE",
"1494 -25 OFFCURVE",
"966 -25 CURVE SMOOTH",
"860 -25 OFFCURVE",
"761 -11 OFFCURVE",
"669 16 CURVE",
"499 -341 LINE"
);
}
);
width = 2048;
}
);
unicode = 00D8;
},
{
glyphname = OE;
lastChange = "2018-12-02 23:35:38 +0000";
layers = (
{
layerId = master01;
paths = (
{
closed = 1;
nodes = (
"924 402 OFFCURVE",
"905 386 OFFCURVE",
"886 386 CURVE SMOOTH",
"867 386 OFFCURVE",
"848 401 OFFCURVE",
"846 429 CURVE SMOOTH",
"833 577 LINE",
"677 577 LINE",
"677 85 LINE",
"1012 85 LINE",
"1028 336 LINE SMOOTH",
"1029 360 OFFCURVE",
"1051 375 OFFCURVE",
"1072 375 CURVE SMOOTH",
"1093 375 OFFCURVE",
"1114 359 OFFCURVE",
"1114 323 CURVE SMOOTH",
"1114 53 LINE SMOOTH",
"1114 19 OFFCURVE",
"1091 0 OFFCURVE",
"1058 0 CURVE SMOOTH",
"564 0 LINE SMOOTH",
"563 0 LINE SMOOTH",
"340 0 OFFCURVE",
"118 200 OFFCURVE",
"118 582 CURVE SMOOTH",
"118 965 OFFCURVE",
"342 1172 OFFCURVE",
"566 1172 CURVE SMOOTH",
"726 1172 OFFCURVE",
"886 1171 OFFCURVE",
"1046 1171 CURVE SMOOTH",
"1079 1171 OFFCURVE",
"1102 1151 OFFCURVE",
"1102 1117 CURVE SMOOTH",
"1102 847 LINE SMOOTH",
"1102 817 OFFCURVE",
"1082 803 OFFCURVE",
"1062 803 CURVE SMOOTH",
"1042 803 OFFCURVE",
"1021 816 OFFCURVE",
"1020 841 CURVE SMOOTH",
"1006 1084 LINE",
"677 1084 LINE",
"677 654 LINE",
"833 654 LINE",
"846 787 LINE SMOOTH",
"849 817 OFFCURVE",
"868 832 OFFCURVE",
"886 832 CURVE SMOOTH",
"905 832 OFFCURVE",
"924 816 OFFCURVE",
"924 779 CURVE SMOOTH",
"924 437 LINE SMOOTH"
);
},
{
closed = 1;
nodes = (
"214 260 OFFCURVE",
"387 82 OFFCURVE",
"561 82 CURVE SMOOTH",
"579 82 LINE",
"579 1084 LINE",
"564 1084 LINE SMOOTH",
"389 1084 OFFCURVE",
"214 913 OFFCURVE",
"214 582 CURVE SMOOTH"
);
}
);
width = 1240;
},
{
layerId = "48AFDEF4-2FAB-4AB6-AB64-D7DFD8485508";
width = 600;
},
{
layerId = "1027097C-2ACB-4125-B942-0F8B60E4A4BD";
paths = (
{
closed = 1;
nodes = (
"924 402 OFFCURVE",
"905 386 OFFCURVE",
"886 386 CURVE SMOOTH",
"867 386 OFFCURVE",
"848 401 OFFCURVE",
"846 429 CURVE SMOOTH",
"833 577 LINE",
"677 577 LINE",
"677 85 LINE",
"1012 85 LINE",
"1028 336 LINE SMOOTH",
"1029 360 OFFCURVE",
"1051 375 OFFCURVE",
"1072 375 CURVE SMOOTH",
"1093 375 OFFCURVE",
"1114 359 OFFCURVE",
"1114 323 CURVE SMOOTH",
"1114 53 LINE SMOOTH",
"1114 19 OFFCURVE",
"1091 0 OFFCURVE",
"1058 0 CURVE SMOOTH",
"564 0 LINE SMOOTH",
"563 0 LINE SMOOTH",
"340 0 OFFCURVE",
"118 200 OFFCURVE",
"118 582 CURVE SMOOTH",
"118 965 OFFCURVE",
"342 1172 OFFCURVE",
"566 1172 CURVE SMOOTH",
"726 1172 OFFCURVE",
"886 1171 OFFCURVE",
"1046 1171 CURVE SMOOTH",
"1079 1171 OFFCURVE",
"1102 1151 OFFCURVE",
"1102 1117 CURVE SMOOTH",
"1102 847 LINE SMOOTH",
"1102 817 OFFCURVE",
"1082 803 OFFCURVE",
"1062 803 CURVE SMOOTH",
"1042 803 OFFCURVE",
"1021 816 OFFCURVE",
"1020 841 CURVE SMOOTH",
"1006 1084 LINE",
"677 1084 LINE",
"677 654 LINE",
"833 654 LINE",
"846 787 LINE SMOOTH",
"849 817 OFFCURVE",
"868 832 OFFCURVE",
"886 832 CURVE SMOOTH",
"905 832 OFFCURVE",
"924 816 OFFCURVE",
"924 779 CURVE SMOOTH",
"924 437 LINE SMOOTH"
);
},
{
closed = 1;
nodes = (
"214 260 OFFCURVE",
"387 82 OFFCURVE",
"561 82 CURVE SMOOTH",
"579 82 LINE",
"579 1084 LINE",
"564 1084 LINE SMOOTH",
"389 1084 OFFCURVE",
"214 913 OFFCURVE",
"214 582 CURVE SMOOTH"
);
}
);
width = 1240;
},
{
anchors = (
{
name = top;
position = "{1024, 1714}";
}
);
layerId = "87D9408F-A41F-4898-A746-FF2057AB3891";
paths = (
{
closed = 1;
nodes = (
"434 -25 OFFCURVE",
"74 320 OFFCURVE",
"74 850 CURVE SMOOTH",
"74 1382 OFFCURVE",
"434 1739 OFFCURVE",
"950 1739 CURVE SMOOTH",
"1222 1739 OFFCURVE",
"1485 1609 OFFCURVE",
"1589 1387 CURVE",
"1589 1714 LINE",
"2786 1714 LINE SMOOTH",
"2834 1714 OFFCURVE",
"2852 1683 OFFCURVE",
"2868 1636 CURVE",
"2964 1319 LINE SMOOTH",
"2968 1304 OFFCURVE",
"2970 1291 OFFCURVE",
"2970 1280 CURVE SMOOTH",
"2970 1236 OFFCURVE",
"2940 1206 OFFCURVE",
"2897 1206 CURVE SMOOTH",
"2847 1206 OFFCURVE",
"2811 1240 OFFCURVE",
"2794 1282 CURVE SMOOTH",
"2686 1538 LINE",
"1822 1538 LINE",
"1822 967 LINE",
"2156 967 LINE",
"2207 1153 LINE SMOOTH",
"2218 1190 OFFCURVE",
"2245 1221 OFFCURVE",
"2287 1221 CURVE SMOOTH",
"2332 1221 OFFCURVE",
"2357 1188 OFFCURVE",
"2357 1141 CURVE",
"2342 899 LINE",
"2357 649 LINE",
"2357 602 OFFCURVE",
"2332 569 OFFCURVE",
"2287 569 CURVE SMOOTH",
"2245 569 OFFCURVE",
"2218 600 OFFCURVE",
"2207 637 CURVE SMOOTH",
"2156 823 LINE",
"1822 823 LINE",
"1822 176 LINE",
"2686 176 LINE",
"2802 506 LINE",
"2821 548 OFFCURVE",
"2853 582 OFFCURVE",
"2905 582 CURVE SMOOTH",
"2949 582 OFFCURVE",
"2978 554 OFFCURVE",
"2978 508 CURVE SMOOTH",
"2978 494 OFFCURVE",
"2976 481 OFFCURVE",
"2972 469 CURVE",
"2909 78 LINE",
"2895 30 OFFCURVE",
"2875 0 OFFCURVE",
"2827 0 CURVE SMOOTH",
"1589 0 LINE",
"1589 311 LINE",
"1505 108 OFFCURVE",
"1221 -25 OFFCURVE",
"950 -25 CURVE SMOOTH"
);
},
{
closed = 1;
nodes = (
"550 1550 OFFCURVE",
"324 1256 OFFCURVE",
"324 850 CURVE SMOOTH",
"324 444 OFFCURVE",
"556 164 OFFCURVE",
"958 164 CURVE SMOOTH",
"1353 164 OFFCURVE",
"1589 438 OFFCURVE",
"1589 848 CURVE SMOOTH",
"1589 1262 OFFCURVE",
"1347 1550 OFFCURVE",
"941 1550 CURVE SMOOTH"
);
}
);
width = 2048;
}
);
unicode = 0152;
},
{
glyphname = P;
lastChange = "2018-12-02 23:35:38 +0000";
layers = (
{
layerId = master01;
paths = (
{
closed = 1;
nodes = (
"1068 540 OFFCURVE",
"815 527 OFFCURVE",
"558 527 CURVE SMOOTH",
"442 527 LINE",
"442 86 LINE",
"771 86 LINE SMOOTH",
"804 86 OFFCURVE",
"820 64 OFFCURVE",
"820 43 CURVE SMOOTH",
"820 21 OFFCURVE",
"803 0 OFFCURVE",
"770 0 CURVE SMOOTH",
"174 0 LINE SMOOTH",
"140 0 OFFCURVE",
"123 21 OFFCURVE",
"123 43 CURVE SMOOTH",
"123 64 OFFCURVE",
"140 86 OFFCURVE",
"173 86 CURVE SMOOTH",
"346 86 LINE",
"346 1085 LINE",
"187 1085 LINE SMOOTH",
"154 1085 OFFCURVE",
"138 1106 OFFCURVE",
"138 1127 CURVE SMOOTH",
"138 1149 OFFCURVE",
"155 1171 OFFCURVE",
"188 1171 CURVE SMOOTH",
"532 1171 LINE SMOOTH",
"802 1171 OFFCURVE",
"1068 1154 OFFCURVE",
"1068 847 CURVE SMOOTH"
);
},
{
closed = 1;
nodes = (
"972 1085 OFFCURVE",
"742 1085 OFFCURVE",
"552 1085 CURVE SMOOTH",
"442 1085 LINE",
"442 607 LINE",
"594 607 LINE SMOOTH",
"788 607 OFFCURVE",
"972 616 OFFCURVE",
"972 843 CURVE SMOOTH"
);
}
);
width = 1240;
},
{
layerId = "48AFDEF4-2FAB-4AB6-AB64-D7DFD8485508";
width = 600;
},
{
layerId = "1027097C-2ACB-4125-B942-0F8B60E4A4BD";
paths = (
{
closed = 1;
nodes = (
"1068 540 OFFCURVE",
"815 527 OFFCURVE",
"558 527 CURVE SMOOTH",
"442 527 LINE",
"442 86 LINE",
"771 86 LINE SMOOTH",
"804 86 OFFCURVE",
"820 64 OFFCURVE",
"820 43 CURVE SMOOTH",
"820 21 OFFCURVE",
"803 0 OFFCURVE",
"770 0 CURVE SMOOTH",
"174 0 LINE SMOOTH",
"140 0 OFFCURVE",
"123 21 OFFCURVE",
"123 43 CURVE SMOOTH",
"123 64 OFFCURVE",
"140 86 OFFCURVE",
"173 86 CURVE SMOOTH",
"346 86 LINE",
"346 1085 LINE",
"187 1085 LINE SMOOTH",
"154 1085 OFFCURVE",
"138 1106 OFFCURVE",
"138 1127 CURVE SMOOTH",
"138 1149 OFFCURVE",
"155 1171 OFFCURVE",
"188 1171 CURVE SMOOTH",
"532 1171 LINE SMOOTH",
"802 1171 OFFCURVE",
"1068 1154 OFFCURVE",
"1068 847 CURVE SMOOTH"
);
},
{
closed = 1;
nodes = (
"972 1085 OFFCURVE",
"742 1085 OFFCURVE",
"552 1085 CURVE SMOOTH",
"442 1085 LINE",
"442 607 LINE",
"594 607 LINE SMOOTH",
"788 607 OFFCURVE",
"972 616 OFFCURVE",
"972 843 CURVE SMOOTH"
);
}
);
width = 1240;
},
{
layerId = "87D9408F-A41F-4898-A746-FF2057AB3891";
paths = (
{
closed = 1;
nodes = (
"1448 1538 OFFCURVE",
"1107 1538 OFFCURVE",
"826 1538 CURVE SMOOTH",
"619 1538 LINE",
"619 889 LINE",
"887 889 LINE SMOOTH",
"1175 889 OFFCURVE",
"1448 903 OFFCURVE",
"1448 1223 CURVE SMOOTH"
);
},
{
closed = 1;
nodes = (
"1684 745 OFFCURVE",
"1262 725 OFFCURVE",
"834 725 CURVE SMOOTH",
"619 725 LINE",
"619 176 LINE",
"924 176 LINE SMOOTH",
"975 176 OFFCURVE",
"996 134 OFFCURVE",
"996 84 CURVE SMOOTH",
"996 40 OFFCURVE",
"969 0 OFFCURVE",
"922 0 CURVE SMOOTH",
"123 0 LINE SMOOTH",
"76 0 OFFCURVE",
"49 40 OFFCURVE",
"49 84 CURVE SMOOTH",
"49 134 OFFCURVE",
"70 176 OFFCURVE",
"121 176 CURVE SMOOTH",
"385 176 LINE",
"385 1538 LINE",
"142 1538 LINE SMOOTH",
"91 1538 OFFCURVE",
"70 1580 OFFCURVE",
"70 1630 CURVE SMOOTH",
"70 1674 OFFCURVE",
"97 1714 OFFCURVE",
"144 1714 CURVE SMOOTH",
"797 1714 LINE SMOOTH",
"1244 1714 OFFCURVE",
"1684 1688 OFFCURVE",
"1684 1208 CURVE SMOOTH"
);
}
);
width = 2048;
}
);
unicode = 0050;
},
{
glyphname = Thorn;
lastChange = "2018-12-02 23:35:38 +0000";
layers = (
{
layerId = master01;
paths = (
{
closed = 1;
nodes = (
"971 802 OFFCURVE",
"856 851 OFFCURVE",
"429 851 CURVE",
"429 392 LINE",
"830 392 OFFCURVE",
"971 433 OFFCURVE",
"971 626 CURVE SMOOTH"
);
},
{
closed = 1;
nodes = (
"1067 321 OFFCURVE",
"724 318 OFFCURVE",
"429 318 CURVE",
"429 82 LINE",
"656 82 LINE SMOOTH",
"689 82 OFFCURVE",
"695 61 OFFCURVE",
"695 41 CURVE SMOOTH",
"695 20 OFFCURVE",
"688 0 OFFCURVE",
"655 0 CURVE SMOOTH",
"109 0 LINE SMOOTH",
"75 0 OFFCURVE",
"68 20 OFFCURVE",
"68 41 CURVE SMOOTH",
"68 61 OFFCURVE",
"75 82 OFFCURVE",
"108 82 CURVE SMOOTH",
"333 82 LINE",
"333 1085 LINE",
"121 1085 LINE SMOOTH",
"88 1085 OFFCURVE",
"82 1106 OFFCURVE",
"82 1127 CURVE SMOOTH",
"82 1149 OFFCURVE",
"89 1171 OFFCURVE",
"123 1171 CURVE SMOOTH",
"600 1171 LINE SMOOTH",
"627 1171 OFFCURVE",
"631 1151 OFFCURVE",
"631 1130 CURVE SMOOTH",
"631 1108 OFFCURVE",
"625 1085 OFFCURVE",
"592 1085 CURVE SMOOTH",
"429 1085 LINE",
"429 928 LINE",
"743 928 OFFCURVE",
"1067 927 OFFCURVE",
"1067 619 CURVE SMOOTH"
);
}
);
width = 1240;
},
{
layerId = "48AFDEF4-2FAB-4AB6-AB64-D7DFD8485508";
width = 600;
},
{
layerId = "1027097C-2ACB-4125-B942-0F8B60E4A4BD";
paths = (
{
closed = 1;
nodes = (
"971 802 OFFCURVE",
"856 851 OFFCURVE",
"429 851 CURVE",
"429 392 LINE",
"830 392 OFFCURVE",
"971 433 OFFCURVE",
"971 626 CURVE SMOOTH"
);
},
{
closed = 1;
nodes = (
"1067 321 OFFCURVE",
"724 318 OFFCURVE",
"429 318 CURVE",
"429 82 LINE",
"656 82 LINE SMOOTH",
"689 82 OFFCURVE",
"695 61 OFFCURVE",
"695 41 CURVE SMOOTH",
"695 20 OFFCURVE",
"688 0 OFFCURVE",
"655 0 CURVE SMOOTH",
"109 0 LINE SMOOTH",
"75 0 OFFCURVE",
"68 20 OFFCURVE",
"68 41 CURVE SMOOTH",
"68 61 OFFCURVE",
"75 82 OFFCURVE",
"108 82 CURVE SMOOTH",
"333 82 LINE",
"333 1085 LINE",
"121 1085 LINE SMOOTH",
"88 1085 OFFCURVE",
"82 1106 OFFCURVE",
"82 1127 CURVE SMOOTH",
"82 1149 OFFCURVE",
"89 1171 OFFCURVE",
"123 1171 CURVE SMOOTH",
"600 1171 LINE SMOOTH",
"627 1171 OFFCURVE",
"631 1151 OFFCURVE",
"631 1130 CURVE SMOOTH",
"631 1108 OFFCURVE",
"625 1085 OFFCURVE",
"592 1085 CURVE SMOOTH",
"429 1085 LINE",
"429 928 LINE",
"743 928 OFFCURVE",
"1067 927 OFFCURVE",
"1067 619 CURVE SMOOTH"
);
}
);
width = 1240;
},
{
layerId = "87D9408F-A41F-4898-A746-FF2057AB3891";
paths = (
{
closed = 1;
nodes = (
"1545 471 OFFCURVE",
"1070 460 OFFCURVE",
"638 460 CURVE",
"638 176 LINE",
"943 176 LINE SMOOTH",
"994 176 OFFCURVE",
"1015 134 OFFCURVE",
"1015 84 CURVE SMOOTH",
"1015 40 OFFCURVE",
"988 0 OFFCURVE",
"941 0 CURVE SMOOTH",
"142 0 LINE SMOOTH",
"95 0 OFFCURVE",
"68 40 OFFCURVE",
"68 84 CURVE SMOOTH",
"68 134 OFFCURVE",
"89 176 OFFCURVE",
"140 176 CURVE SMOOTH",
"404 176 LINE",
"404 1536 LINE",
"160 1536 LINE SMOOTH",
"109 1536 OFFCURVE",
"88 1578 OFFCURVE",
"88 1628 CURVE SMOOTH",
"88 1672 OFFCURVE",
"115 1712 OFFCURVE",
"162 1712 CURVE SMOOTH",
"861 1712 LINE SMOOTH",
"899 1712 OFFCURVE",
"921 1672 OFFCURVE",
"921 1628 CURVE SMOOTH",
"921 1578 OFFCURVE",
"900 1536 OFFCURVE",
"849 1536 CURVE SMOOTH",
"638 1536 LINE",
"638 1359 LINE",
"1098 1359 OFFCURVE",
"1545 1358 OFFCURVE",
"1545 907 CURVE SMOOTH"
);
},
{
closed = 1;
nodes = (
"1309 1175 OFFCURVE",
"1093 1191 OFFCURVE",
"638 1191 CURVE",
"638 624 LINE",
"1105 624 OFFCURVE",
"1309 635 OFFCURVE",
"1309 917 CURVE SMOOTH"
);
}
);
width = 2048;
}
);
unicode = 00DE;
},
{
glyphname = Q;
lastChange = "2018-12-02 23:35:38 +0000";
layers = (
{
layerId = master01;
paths = (
{
closed = 1;
nodes = (
"344 1101 OFFCURVE",
"204 842 OFFCURVE",
"204 582 CURVE SMOOTH",
"204 326 OFFCURVE",
"340 69 OFFCURVE",
"620 69 CURVE SMOOTH",
"900 69 OFFCURVE",
"1036 326 OFFCURVE",
"1036 582 CURVE SMOOTH",
"1036 842 OFFCURVE",
"896 1101 OFFCURVE",
"620 1101 CURVE SMOOTH"
);
},
{
closed = 1;
nodes = (
"541 -13 OFFCURVE",
"580 -17 OFFCURVE",
"620 -17 CURVE SMOOTH",
"636 -17 LINE",
"722 -108 LINE SMOOTH",
"753 -142 OFFCURVE",
"790 -162 OFFCURVE",
"836 -162 CURVE SMOOTH",
"882 -162 OFFCURVE",
"938 -142 OFFCURVE",
"1008 -95 CURVE SMOOTH",
"1018 -88 OFFCURVE",
"1028 -86 OFFCURVE",
"1037 -86 CURVE SMOOTH",
"1059 -86 OFFCURVE",
"1077 -108 OFFCURVE",
"1077 -130 CURVE SMOOTH",
"1077 -144 OFFCURVE",
"1070 -159 OFFCURVE",
"1054 -169 CURVE",
"1002 -218 OFFCURVE",
"901 -246 OFFCURVE",
"854 -246 CURVE SMOOTH",
"696 -246 OFFCURVE",
"646 -177 OFFCURVE",
"506 -5 CURVE"
);
},
{
closed = 1;
nodes = (
"241 53 OFFCURVE",
"108 316 OFFCURVE",
"108 582 CURVE SMOOTH",
"108 883 OFFCURVE",
"279 1187 OFFCURVE",
"620 1187 CURVE SMOOTH",
"961 1187 OFFCURVE",
"1132 883 OFFCURVE",
"1132 582 CURVE SMOOTH",
"1132 286 OFFCURVE",
"967 -8 OFFCURVE",
"636 -17 CURVE",
"617 3 LINE",
"504 -2 LINE",
"505 -3 OFFCURVE",
"505 -4 OFFCURVE",
"506 -5 CURVE"
);
}
);
width = 1240;
},
{
layerId = "48AFDEF4-2FAB-4AB6-AB64-D7DFD8485508";
width = 600;
},
{
layerId = "1027097C-2ACB-4125-B942-0F8B60E4A4BD";
paths = (
{
closed = 1;
nodes = (
"344 1101 OFFCURVE",
"204 842 OFFCURVE",
"204 582 CURVE SMOOTH",
"204 326 OFFCURVE",
"340 69 OFFCURVE",
"620 69 CURVE SMOOTH",
"900 69 OFFCURVE",
"1036 326 OFFCURVE",
"1036 582 CURVE SMOOTH",
"1036 842 OFFCURVE",
"896 1101 OFFCURVE",
"620 1101 CURVE SMOOTH"
);
},
{
closed = 1;
nodes = (
"541 -13 OFFCURVE",
"580 -17 OFFCURVE",
"620 -17 CURVE SMOOTH",
"636 -17 LINE",
"722 -108 LINE SMOOTH",
"753 -142 OFFCURVE",
"790 -162 OFFCURVE",
"836 -162 CURVE SMOOTH",
"882 -162 OFFCURVE",
"938 -142 OFFCURVE",
"1008 -95 CURVE SMOOTH",
"1018 -88 OFFCURVE",
"1028 -86 OFFCURVE",
"1037 -86 CURVE SMOOTH",
"1059 -86 OFFCURVE",
"1077 -108 OFFCURVE",
"1077 -130 CURVE SMOOTH",
"1077 -144 OFFCURVE",
"1070 -159 OFFCURVE",
"1054 -169 CURVE",
"1002 -218 OFFCURVE",
"901 -246 OFFCURVE",
"854 -246 CURVE SMOOTH",
"696 -246 OFFCURVE",
"646 -177 OFFCURVE",
"506 -5 CURVE"
);
},
{
closed = 1;
nodes = (
"241 53 OFFCURVE",
"108 316 OFFCURVE",
"108 582 CURVE SMOOTH",
"108 883 OFFCURVE",
"279 1187 OFFCURVE",
"620 1187 CURVE SMOOTH",
"961 1187 OFFCURVE",
"1132 883 OFFCURVE",
"1132 582 CURVE SMOOTH",
"1132 286 OFFCURVE",
"967 -8 OFFCURVE",
"636 -17 CURVE",
"617 3 LINE",
"504 -2 LINE",
"505 -3 OFFCURVE",
"505 -4 OFFCURVE",
"506 -5 CURVE"
);
}
);
width = 1240;
},
{
layerId = "87D9408F-A41F-4898-A746-FF2057AB3891";
paths = (
{
closed = 1;
nodes = (
"621 1550 OFFCURVE",
"389 1255 OFFCURVE",
"389 850 CURVE SMOOTH",
"389 444 OFFCURVE",
"622 164 OFFCURVE",
"1024 164 CURVE SMOOTH",
"1434 164 OFFCURVE",
"1679 439 OFFCURVE",
"1679 850 CURVE SMOOTH",
"1679 1263 OFFCURVE",
"1434 1550 OFFCURVE",
"1024 1550 CURVE SMOOTH"
);
},
{
closed = 1;
nodes = (
"1418 -161 LINE",
"1451 -178 OFFCURVE",
"1488 -183 OFFCURVE",
"1526 -183 CURVE SMOOTH",
"1586 -183 OFFCURVE",
"1657 -154 OFFCURVE",
"1739 -95 CURVE SMOOTH",
"1751 -87 OFFCURVE",
"1765 -83 OFFCURVE",
"1780 -83 CURVE SMOOTH",
"1836 -83 OFFCURVE",
"1889 -136 OFFCURVE",
"1889 -191 CURVE SMOOTH",
"1889 -314 OFFCURVE",
"1618 -384 OFFCURVE",
"1514 -384 CURVE SMOOTH",
"1247 -384 OFFCURVE",
"1127 -91 OFFCURVE",
"928 -21 CURVE",
"451 18 OFFCURVE",
"127 352 OFFCURVE",
"127 850 CURVE SMOOTH",
"127 1382 OFFCURVE",
"494 1739 OFFCURVE",
"1024 1739 CURVE SMOOTH",
"1554 1739 OFFCURVE",
"1921 1382 OFFCURVE",
"1921 850 CURVE SMOOTH",
"1921 377 OFFCURVE",
"1629 52 OFFCURVE",
"1190 -13 CURVE"
);
}
);
width = 2048;
}
);
unicode = 0051;
},
{
glyphname = R;
lastChange = "2018-12-02 23:35:38 +0000";
layers = (
{
layerId = master01;
paths = (
{
closed = 1;
nodes = (
"658 21 OFFCURVE",
"642 0 OFFCURVE",
"608 0 CURVE SMOOTH",
"209 0 LINE SMOOTH",
"175 0 OFFCURVE",
"158 21 OFFCURVE",
"158 41 CURVE SMOOTH",
"158 62 OFFCURVE",
"175 82 OFFCURVE",
"208 82 CURVE SMOOTH",
"333 82 LINE",
"333 1085 LINE",
"236 1085 LINE SMOOTH",
"203 1085 OFFCURVE",
"186 1106 OFFCURVE",
"186 1127 CURVE SMOOTH",
"186 1149 OFFCURVE",
"203 1171 OFFCURVE",
"237 1171 CURVE SMOOTH",
"557 1171 LINE SMOOTH",
"847 1171 OFFCURVE",
"1047 1124 OFFCURVE",
"1047 853 CURVE SMOOTH",
"1047 699 OFFCURVE",
"945 616 OFFCURVE",
"841 578 CURVE",
"1045 82 LINE",
"1129 82 LINE SMOOTH",
"1179 82 OFFCURVE",
"1193 62 OFFCURVE",
"1193 42 CURVE SMOOTH",
"1193 21 OFFCURVE",
"1177 0 OFFCURVE",
"1130 0 CURVE SMOOTH",
"895 0 LINE SMOOTH",
"861 0 OFFCURVE",
"844 21 OFFCURVE",
"844 42 CURVE SMOOTH",
"844 62 OFFCURVE",
"860 82 OFFCURVE",
"893 82 CURVE SMOOTH",
"944 82 LINE",
"764 556 LINE",
"750 551 OFFCURVE",
"651 542 OFFCURVE",
"604 542 CURVE SMOOTH",
"429 542 LINE",
"429 82 LINE",
"609 82 LINE SMOOTH",
"642 82 OFFCURVE",
"658 62 OFFCURVE",
"658 41 CURVE SMOOTH"
);
},
{
closed = 1;
nodes = (
"536 619 LINE SMOOTH",
"784 619 OFFCURVE",
"951 647 OFFCURVE",
"951 846 CURVE SMOOTH",
"951 1050 OFFCURVE",
"838 1085 OFFCURVE",
"556 1085 CURVE SMOOTH",
"429 1085 LINE",
"429 619 LINE"
);
}
);
width = 1240;
},
{
layerId = "48AFDEF4-2FAB-4AB6-AB64-D7DFD8485508";
width = 600;
},
{
layerId = "1027097C-2ACB-4125-B942-0F8B60E4A4BD";
paths = (
{
closed = 1;
nodes = (
"658 21 OFFCURVE",
"642 0 OFFCURVE",
"608 0 CURVE SMOOTH",
"209 0 LINE SMOOTH",
"175 0 OFFCURVE",
"158 21 OFFCURVE",
"158 41 CURVE SMOOTH",
"158 62 OFFCURVE",
"175 82 OFFCURVE",
"208 82 CURVE SMOOTH",
"333 82 LINE",
"333 1085 LINE",
"236 1085 LINE SMOOTH",
"203 1085 OFFCURVE",
"186 1106 OFFCURVE",
"186 1127 CURVE SMOOTH",
"186 1149 OFFCURVE",
"203 1171 OFFCURVE",
"237 1171 CURVE SMOOTH",
"557 1171 LINE SMOOTH",
"847 1171 OFFCURVE",
"1047 1124 OFFCURVE",
"1047 853 CURVE SMOOTH",
"1047 699 OFFCURVE",
"945 616 OFFCURVE",
"841 578 CURVE",
"1045 82 LINE",
"1129 82 LINE SMOOTH",
"1179 82 OFFCURVE",
"1193 62 OFFCURVE",
"1193 42 CURVE SMOOTH",
"1193 21 OFFCURVE",
"1177 0 OFFCURVE",
"1130 0 CURVE SMOOTH",
"895 0 LINE SMOOTH",
"861 0 OFFCURVE",
"844 21 OFFCURVE",
"844 42 CURVE SMOOTH",
"844 62 OFFCURVE",
"860 82 OFFCURVE",
"893 82 CURVE SMOOTH",
"944 82 LINE",
"764 556 LINE",
"750 551 OFFCURVE",
"651 542 OFFCURVE",
"604 542 CURVE SMOOTH",
"429 542 LINE",
"429 82 LINE",
"609 82 LINE SMOOTH",
"642 82 OFFCURVE",
"658 62 OFFCURVE",
"658 41 CURVE SMOOTH"
);
},
{
closed = 1;
nodes = (
"536 619 LINE SMOOTH",
"784 619 OFFCURVE",
"951 647 OFFCURVE",
"951 846 CURVE SMOOTH",
"951 1050 OFFCURVE",
"838 1085 OFFCURVE",
"556 1085 CURVE SMOOTH",
"429 1085 LINE",
"429 619 LINE"
);
}
);
width = 1240;
},
{
anchors = (
{
name = bottom;
position = "{1024, 0}";
},
{
name = top;
position = "{1024, 1714}";
}
);
layerId = "87D9408F-A41F-4898-A746-FF2057AB3891";
paths = (
{
closed = 1;
nodes = (
"1067 942 OFFCURVE",
"1338 947 OFFCURVE",
"1338 1239 CURVE SMOOTH",
"1338 1537 OFFCURVE",
"1022 1538 OFFCURVE",
"725 1538 CURVE SMOOTH",
"578 1538 LINE",
"578 942 LINE",
"762 942 LINE SMOOTH"
);
},
{
closed = 1;
nodes = (
"1581 976 OFFCURVE",
"1361 861 OFFCURVE",
"1101 816 CURVE",
"1268 774 OFFCURVE",
"1343 686 OFFCURVE",
"1403 540 CURVE SMOOTH",
"1553 177 LINE",
"1700 177 LINE SMOOTH",
"1780 177 OFFCURVE",
"1808 153 OFFCURVE",
"1808 84 CURVE SMOOTH",
"1808 9 OFFCURVE",
"1764 0 OFFCURVE",
"1701 0 CURVE SMOOTH",
"1187 0 LINE SMOOTH",
"1140 0 OFFCURVE",
"1113 40 OFFCURVE",
"1113 84 CURVE SMOOTH",
"1113 134 OFFCURVE",
"1134 177 OFFCURVE",
"1185 177 CURVE SMOOTH",
"1314 177 LINE",
"1202 460 LINE SMOOTH",
"1142 611 OFFCURVE",
"1059 764 OFFCURVE",
"805 764 CURVE SMOOTH",
"578 764 LINE",
"578 177 LINE",
"842 177 LINE SMOOTH",
"893 177 OFFCURVE",
"914 134 OFFCURVE",
"914 84 CURVE SMOOTH",
"914 40 OFFCURVE",
"887 0 OFFCURVE",
"840 0 CURVE SMOOTH",
"123 0 LINE SMOOTH",
"76 0 OFFCURVE",
"49 40 OFFCURVE",
"49 84 CURVE SMOOTH",
"49 134 OFFCURVE",
"70 177 OFFCURVE",
"121 177 CURVE SMOOTH",
"344 177 LINE",
"344 1538 LINE",
"162 1538 LINE SMOOTH",
"111 1538 OFFCURVE",
"90 1580 OFFCURVE",
"90 1630 CURVE SMOOTH",
"90 1674 OFFCURVE",
"117 1714 OFFCURVE",
"164 1714 CURVE SMOOTH",
"756 1714 LINE SMOOTH",
"1191 1714 OFFCURVE",
"1581 1678 OFFCURVE",
"1581 1249 CURVE SMOOTH"
);
}
);
width = 2048;
}
);
unicode = 0052;
},
{
glyphname = S;
lastChange = "2018-12-04 01:08:02 +0000";
layers = (
{
anchors = (
{
name = bottom;
position = "{634, -17}";
},
{
name = top;
position = "{634, 1185}";
}
);
layerId = master01;
paths = (
{
closed = 1;
nodes = (
"288 -17 OFFCURVE",
"302 30 OFFCURVE",
"302 105 CURVE",
"377 19 OFFCURVE",
"467 -17 OFFCURVE",
"563 -17 CURVE SMOOTH",
"712 -17 OFFCURVE",
"885 71 OFFCURVE",
"885 300 CURVE SMOOTH",
"885 511 OFFCURVE",
"737 573 OFFCURVE",
"637 616 CURVE SMOOTH",
"506 672 LINE SMOOTH",
"397 718 OFFCURVE",
"335 749 OFFCURVE",
"335 882 CURVE SMOOTH",
"335 1018 OFFCURVE",
"399 1101 OFFCURVE",
"544 1101 CURVE SMOOTH",
"655 1101 OFFCURVE",
"751 1053 OFFCURVE",
"762 949 CURVE",
"762 858 LINE SMOOTH",
"762 827 OFFCURVE",
"782 811 OFFCURVE",
"805 811 CURVE SMOOTH",
"829 811 OFFCURVE",
"849 828 OFFCURVE",
"849 864 CURVE SMOOTH",
"849 1134 LINE SMOOTH",
"849 1170 OFFCURVE",
"827 1187 OFFCURVE",
"806 1187 CURVE SMOOTH",
"775 1187 OFFCURVE",
"762 1153 OFFCURVE",
"762 1095 CURVE",
"710 1168 OFFCURVE",
"615 1187 OFFCURVE",
"541 1187 CURVE SMOOTH",
"367 1187 OFFCURVE",
"234 1081 OFFCURVE",
"234 878 CURVE SMOOTH",
"234 693 OFFCURVE",
"341 637 OFFCURVE",
"464 588 CURVE SMOOTH",
"619 526 LINE SMOOTH",
"681 501 OFFCURVE",
"789 459 OFFCURVE",
"789 303 CURVE SMOOTH",
"789 133 OFFCURVE",
"662 69 OFFCURVE",
"551 69 CURVE SMOOTH",
"416 69 OFFCURVE",
"298 164 OFFCURVE",
"298 250 CURVE SMOOTH",
"298 369 LINE SMOOTH",
"298 402 OFFCURVE",
"277 418 OFFCURVE",
"254 418 CURVE SMOOTH",
"230 418 OFFCURVE",
"211 403 OFFCURVE",
"211 371 CURVE SMOOTH",
"211 38 LINE SMOOTH",
"211 0 OFFCURVE",
"233 -17 OFFCURVE",
"254 -17 CURVE SMOOTH"
);
}
);
width = 1027;
},
{
anchors = (
{
name = bottom;
position = "{831, -8}";
},
{
name = top;
position = "{831, 1194}";
}
);
layerId = "48AFDEF4-2FAB-4AB6-AB64-D7DFD8485508";
paths = (
{
closed = 1;
nodes = (
"296 -17 OFFCURVE",
"326 -7 OFFCURVE",
"328 68 CURVE",
"417 2 OFFCURVE",
"467 -17 OFFCURVE",
"561 -17 CURVE SMOOTH",
"771 -17 OFFCURVE",
"979 76 OFFCURVE",
"979 337 CURVE SMOOTH",
"979 549 OFFCURVE",
"841 636 OFFCURVE",
"729 670 CURVE SMOOTH",
"533 729 LINE SMOOTH",
"489 742 OFFCURVE",
"412 770 OFFCURVE",
"412 918 CURVE SMOOTH",
"412 1002 OFFCURVE",
"437 1101 OFFCURVE",
"623 1101 CURVE SMOOTH",
"734 1101 OFFCURVE",
"815 1066 OFFCURVE",
"827 956 CURVE",
"827 888 LINE",
"827 848 OFFCURVE",
"853 832 OFFCURVE",
"886 832 CURVE SMOOTH",
"922 832 OFFCURVE",
"948 848 OFFCURVE",
"948 888 CURVE",
"948 1164 LINE",
"948 1193 OFFCURVE",
"917 1211 OFFCURVE",
"890 1211 CURVE SMOOTH",
"853 1211 OFFCURVE",
"828 1172 OFFCURVE",
"828 1133 CURVE",
"774 1189 OFFCURVE",
"696 1211 OFFCURVE",
"611 1211 CURVE SMOOTH",
"414 1211 OFFCURVE",
"253 1094 OFFCURVE",
"253 873 CURVE SMOOTH",
"253 703 OFFCURVE",
"349 610 OFFCURVE",
"485 575 CURVE",
"705 505 LINE SMOOTH",
"762 487 OFFCURVE",
"836 445 OFFCURVE",
"836 330 CURVE SMOOTH",
"836 147 OFFCURVE",
"650 106 OFFCURVE",
"547 106 CURVE SMOOTH",
"355 106 OFFCURVE",
"324 250 OFFCURVE",
"324 286 CURVE SMOOTH",
"324 373 LINE",
"324 416 OFFCURVE",
"296 429 OFFCURVE",
"264 429 CURVE SMOOTH",
"228 429 OFFCURVE",
"202 416 OFFCURVE",
"202 373 CURVE",
"202 39 LINE SMOOTH",
"202 -2 OFFCURVE",
"233 -17 OFFCURVE",
"269 -17 CURVE SMOOTH"
);
}
);
width = 1110;
},
{
anchors = (
{
name = bottom;
position = "{689, -17}";
},
{
name = top;
position = "{689, 1185}";
}
);
layerId = "1027097C-2ACB-4125-B942-0F8B60E4A4BD";
paths = (
{
closed = 1;
nodes = (
"353 -17 OFFCURVE",
"363 28 OFFCURVE",
"363 105 CURVE",
"437 27 OFFCURVE",
"582 -17 OFFCURVE",
"689 -17 CURVE SMOOTH",
"881 -17 OFFCURVE",
"1057 71 OFFCURVE",
"1057 308 CURVE SMOOTH",
"1057 495 OFFCURVE",
"917 563 OFFCURVE",
"751 621 CURVE SMOOTH",
"615 668 LINE SMOOTH",
"453 724 OFFCURVE",
"378 748 OFFCURVE",
"378 886 CURVE SMOOTH",
"378 1018 OFFCURVE",
"479 1101 OFFCURVE",
"650 1101 CURVE SMOOTH",
"767 1101 OFFCURVE",
"906 1053 OFFCURVE",
"918 949 CURVE",
"918 858 LINE SMOOTH",
"918 827 OFFCURVE",
"940 811 OFFCURVE",
"963 811 CURVE SMOOTH",
"988 811 OFFCURVE",
"1009 828 OFFCURVE",
"1009 864 CURVE SMOOTH",
"1009 1134 LINE SMOOTH",
"1009 1170 OFFCURVE",
"988 1187 OFFCURVE",
"963 1187 CURVE SMOOTH",
"925 1187 OFFCURVE",
"917 1154 OFFCURVE",
"917 1095 CURVE",
"848 1171 OFFCURVE",
"723 1187 OFFCURVE",
"627 1187 CURVE SMOOTH",
"439 1187 OFFCURVE",
"282 1081 OFFCURVE",
"282 881 CURVE SMOOTH",
"282 697 OFFCURVE",
"410 640 OFFCURVE",
"567 586 CURVE SMOOTH",
"731 530 LINE SMOOTH",
"873 482 OFFCURVE",
"961 435 OFFCURVE",
"961 304 CURVE SMOOTH",
"961 133 OFFCURVE",
"838 69 OFFCURVE",
"692 69 CURVE SMOOTH",
"526 69 OFFCURVE",
"358 164 OFFCURVE",
"358 250 CURVE SMOOTH",
"358 369 LINE SMOOTH",
"358 402 OFFCURVE",
"336 418 OFFCURVE",
"312 418 CURVE SMOOTH",
"288 418 OFFCURVE",
"268 403 OFFCURVE",
"268 371 CURVE SMOOTH",
"268 38 LINE SMOOTH",
"268 0 OFFCURVE",
"288 -17 OFFCURVE",
"314 -17 CURVE SMOOTH"
);
}
);
width = 1240;
},
{
anchors = (
{
name = bottom;
position = "{886, -8}";
},
{
name = top;
position = "{886, 1194}";
}
);
layerId = "87D9408F-A41F-4898-A746-FF2057AB3891";
paths = (
{
closed = 1;
nodes = (
"362 -17 OFFCURVE",
"388 -7 OFFCURVE",
"389 68 CURVE",
"478 7 OFFCURVE",
"585 -17 OFFCURVE",
"684 -17 CURVE SMOOTH",
"928 -17 OFFCURVE",
"1151 79 OFFCURVE",
"1151 320 CURVE SMOOTH",
"1151 558 OFFCURVE",
"998 635 OFFCURVE",
"842 674 CURVE SMOOTH",
"643 724 LINE SMOOTH",
"537 751 OFFCURVE",
"455 792 OFFCURVE",
"455 896 CURVE SMOOTH",
"455 1002 OFFCURVE",
"507 1101 OFFCURVE",
"731 1101 CURVE SMOOTH",
"850 1101 OFFCURVE",
"971 1062 OFFCURVE",
"983 956 CURVE",
"983 888 LINE",
"983 848 OFFCURVE",
"1011 832 OFFCURVE",
"1044 832 CURVE SMOOTH",
"1081 832 OFFCURVE",
"1108 848 OFFCURVE",
"1108 888 CURVE",
"1108 1164 LINE",
"1108 1193 OFFCURVE",
"1076 1211 OFFCURVE",
"1047 1211 CURVE SMOOTH",
"1009 1211 OFFCURVE",
"983 1172 OFFCURVE",
"983 1133 CURVE",
"915 1189 OFFCURVE",
"805 1211 OFFCURVE",
"708 1211 CURVE SMOOTH",
"483 1211 OFFCURVE",
"301 1090 OFFCURVE",
"301 885 CURVE SMOOTH",
"301 698 OFFCURVE",
"422 613 OFFCURVE",
"589 575 CURVE",
"817 510 LINE SMOOTH",
"910 483 OFFCURVE",
"1008 454 OFFCURVE",
"1008 321 CURVE SMOOTH",
"1008 147 OFFCURVE",
"826 106 OFFCURVE",
"666 106 CURVE SMOOTH",
"523 106 OFFCURVE",
"384 200 OFFCURVE",
"384 286 CURVE SMOOTH",
"384 373 LINE",
"384 416 OFFCURVE",
"355 429 OFFCURVE",
"322 429 CURVE SMOOTH",
"286 429 OFFCURVE",
"259 416 OFFCURVE",
"259 373 CURVE",
"259 39 LINE SMOOTH",
"259 -2 OFFCURVE",
"289 -17 OFFCURVE",
"326 -17 CURVE SMOOTH"
);
}
);
width = 1323;
}
);
unicode = 0053;
},
{
glyphname = T;
lastChange = "2018-12-02 23:35:38 +0000";
layers = (
{
layerId = master01;
paths = (
{
closed = 1;
nodes = (
"208 783 OFFCURVE",
"189 769 OFFCURVE",
"169 769 CURVE SMOOTH",
"145 769 OFFCURVE",
"120 788 OFFCURVE",
"120 823 CURVE SMOOTH",
"120 1117 LINE SMOOTH",
"120 1153 OFFCURVE",
"131 1171 OFFCURVE",
"162 1171 CURVE SMOOTH",
"1078 1171 LINE SMOOTH",
"1107 1171 OFFCURVE",
"1118 1152 OFFCURVE",
"1118 1117 CURVE SMOOTH",
"1118 823 LINE SMOOTH",
"1118 788 OFFCURVE",
"1095 771 OFFCURVE",
"1072 771 CURVE SMOOTH",
"1051 771 OFFCURVE",
"1030 786 OFFCURVE",
"1028 814 CURVE SMOOTH",
"1018 1085 LINE",
"666 1085 LINE",
"666 86 LINE",
"908 86 LINE SMOOTH",
"940 86 OFFCURVE",
"957 65 OFFCURVE",
"957 44 CURVE SMOOTH",
"957 22 OFFCURVE",
"939 0 OFFCURVE",
"906 0 CURVE SMOOTH",
"330 0 LINE SMOOTH",
"296 0 OFFCURVE",
"278 22 OFFCURVE",
"278 44 CURVE SMOOTH",
"278 65 OFFCURVE",
"295 86 OFFCURVE",
"328 86 CURVE SMOOTH",
"570 86 LINE",
"570 1085 LINE",
"222 1085 LINE",
"210 814 LINE SMOOTH"
);
}
);
width = 1240;
},
{
layerId = "48AFDEF4-2FAB-4AB6-AB64-D7DFD8485508";
width = 600;
},
{
layerId = "1027097C-2ACB-4125-B942-0F8B60E4A4BD";
paths = (
{
closed = 1;
nodes = (
"208 783 OFFCURVE",
"189 769 OFFCURVE",
"169 769 CURVE SMOOTH",
"145 769 OFFCURVE",
"120 788 OFFCURVE",
"120 823 CURVE SMOOTH",
"120 1117 LINE SMOOTH",
"120 1153 OFFCURVE",
"131 1171 OFFCURVE",
"162 1171 CURVE SMOOTH",
"1078 1171 LINE SMOOTH",
"1107 1171 OFFCURVE",
"1118 1152 OFFCURVE",
"1118 1117 CURVE SMOOTH",
"1118 823 LINE SMOOTH",
"1118 788 OFFCURVE",
"1095 771 OFFCURVE",
"1072 771 CURVE SMOOTH",
"1051 771 OFFCURVE",
"1030 786 OFFCURVE",
"1028 814 CURVE SMOOTH",
"1018 1085 LINE",
"666 1085 LINE",
"666 86 LINE",
"908 86 LINE SMOOTH",
"940 86 OFFCURVE",
"957 65 OFFCURVE",
"957 44 CURVE SMOOTH",
"957 22 OFFCURVE",
"939 0 OFFCURVE",
"906 0 CURVE SMOOTH",
"330 0 LINE SMOOTH",
"296 0 OFFCURVE",
"278 22 OFFCURVE",
"278 44 CURVE SMOOTH",
"278 65 OFFCURVE",
"295 86 OFFCURVE",
"328 86 CURVE SMOOTH",
"570 86 LINE",
"570 1085 LINE",
"222 1085 LINE",
"210 814 LINE SMOOTH"
);
}
);
width = 1240;
},
{
anchors = (
{
name = bottom;
position = "{1024, 0}";
},
{
name = center;
position = "{1024, 857}";
},
{
name = top;
position = "{1024, 1714}";
}
);
layerId = "87D9408F-A41F-4898-A746-FF2057AB3891";
paths = (
{
closed = 1;
nodes = (
"251 1184 OFFCURVE",
"227 1216 OFFCURVE",
"227 1264 CURVE",
"242 1636 LINE SMOOTH",
"244 1688 OFFCURVE",
"258 1714 OFFCURVE",
"303 1714 CURVE SMOOTH",
"1745 1714 LINE SMOOTH",
"1788 1714 OFFCURVE",
"1804 1687 OFFCURVE",
"1806 1636 CURVE SMOOTH",
"1821 1264 LINE",
"1821 1216 OFFCURVE",
"1797 1184 OFFCURVE",
"1753 1184 CURVE SMOOTH",
"1706 1184 OFFCURVE",
"1676 1201 OFFCURVE",
"1671 1251 CURVE SMOOTH",
"1640 1538 LINE",
"1130 1538 LINE",
"1130 176 LINE",
"1395 176 LINE SMOOTH",
"1446 176 OFFCURVE",
"1466 134 OFFCURVE",
"1466 84 CURVE SMOOTH",
"1466 40 OFFCURVE",
"1440 0 OFFCURVE",
"1393 0 CURVE SMOOTH",
"635 0 LINE SMOOTH",
"588 0 OFFCURVE",
"561 40 OFFCURVE",
"561 84 CURVE SMOOTH",
"561 134 OFFCURVE",
"582 176 OFFCURVE",
"633 176 CURVE SMOOTH",
"897 176 LINE",
"897 1538 LINE",
"407 1538 LINE",
"377 1251 LINE SMOOTH",
"372 1200 OFFCURVE",
"342 1184 OFFCURVE",
"295 1184 CURVE SMOOTH"
);
}
);
width = 2048;
}
);
unicode = 0054;
},
{
glyphname = Tbar;
lastChange = "2018-12-03 19:44:33 +0000";
layers = (
{
components = (
{
name = T;
}
);
layerId = master01;
paths = (
{
closed = 1;
nodes = (
"872 648 OFFCURVE",
"878 630 OFFCURVE",
"878 611 CURVE SMOOTH",
"878 592 OFFCURVE",
"870 572 OFFCURVE",
"837 572 CURVE SMOOTH",
"404 572 LINE SMOOTH",
"367 572 OFFCURVE",
"358 592 OFFCURVE",
"358 611 CURVE SMOOTH",
"358 630 OFFCURVE",
"365 648 OFFCURVE",
"400 648 CURVE SMOOTH",
"839 648 LINE SMOOTH"
);
}
);
width = 1240;
},
{
layerId = "48AFDEF4-2FAB-4AB6-AB64-D7DFD8485508";
width = 600;
},
{
components = (
{
name = T;
}
);
layerId = "1027097C-2ACB-4125-B942-0F8B60E4A4BD";
paths = (
{
closed = 1;
nodes = (
"872 648 OFFCURVE",
"878 630 OFFCURVE",
"878 611 CURVE SMOOTH",
"878 592 OFFCURVE",
"870 572 OFFCURVE",
"837 572 CURVE SMOOTH",
"404 572 LINE SMOOTH",
"367 572 OFFCURVE",
"358 592 OFFCURVE",
"358 611 CURVE SMOOTH",
"358 630 OFFCURVE",
"365 648 OFFCURVE",
"400 648 CURVE SMOOTH",
"839 648 LINE SMOOTH"
);
}
);
width = 1240;
},
{
layerId = "87D9408F-A41F-4898-A746-FF2057AB3891";
width = 600;
}
);
unicode = 0166;
},
{
glyphname = U;
lastChange = "2018-12-02 23:35:38 +0000";
layers = (
{
layerId = master01;
paths = (
{
closed = 1;
nodes = (
"415 -17 OFFCURVE",
"249 142 OFFCURVE",
"249 413 CURVE SMOOTH",
"249 1085 LINE",
"104 1085 LINE SMOOTH",
"71 1085 OFFCURVE",
"55 1106 OFFCURVE",
"55 1127 CURVE SMOOTH",
"55 1149 OFFCURVE",
"72 1171 OFFCURVE",
"105 1171 CURVE SMOOTH",
"506 1171 LINE SMOOTH",
"539 1171 OFFCURVE",
"556 1149 OFFCURVE",
"556 1127 CURVE SMOOTH",
"556 1106 OFFCURVE",
"540 1085 OFFCURVE",
"507 1085 CURVE SMOOTH",
"345 1085 LINE",
"345 413 LINE SMOOTH",
"345 195 OFFCURVE",
"455 69 OFFCURVE",
"654 69 CURVE SMOOTH",
"840 69 OFFCURVE",
"960 211 OFFCURVE",
"960 411 CURVE SMOOTH",
"960 1085 LINE",
"839 1085 LINE SMOOTH",
"806 1085 OFFCURVE",
"789 1106 OFFCURVE",
"789 1127 CURVE SMOOTH",
"789 1149 OFFCURVE",
"806 1171 OFFCURVE",
"840 1171 CURVE SMOOTH",
"1173 1171 LINE SMOOTH",
"1220 1171 OFFCURVE",
"1243 1149 OFFCURVE",
"1243 1127 CURVE SMOOTH",
"1243 1106 OFFCURVE",
"1220 1085 OFFCURVE",
"1174 1085 CURVE SMOOTH",
"1056 1085 LINE",
"1056 411 LINE SMOOTH",
"1056 157 OFFCURVE",
"893 -17 OFFCURVE",
"654 -17 CURVE SMOOTH"
);
}
);
width = 1240;
},
{
layerId = "48AFDEF4-2FAB-4AB6-AB64-D7DFD8485508";
width = 600;
},
{
layerId = "1027097C-2ACB-4125-B942-0F8B60E4A4BD";
paths = (
{
closed = 1;
nodes = (
"415 -17 OFFCURVE",
"249 142 OFFCURVE",
"249 413 CURVE SMOOTH",
"249 1085 LINE",
"104 1085 LINE SMOOTH",
"71 1085 OFFCURVE",
"55 1106 OFFCURVE",
"55 1127 CURVE SMOOTH",
"55 1149 OFFCURVE",
"72 1171 OFFCURVE",
"105 1171 CURVE SMOOTH",
"506 1171 LINE SMOOTH",
"539 1171 OFFCURVE",
"556 1149 OFFCURVE",
"556 1127 CURVE SMOOTH",
"556 1106 OFFCURVE",
"540 1085 OFFCURVE",
"507 1085 CURVE SMOOTH",
"345 1085 LINE",
"345 413 LINE SMOOTH",
"345 195 OFFCURVE",
"455 69 OFFCURVE",
"654 69 CURVE SMOOTH",
"840 69 OFFCURVE",
"960 211 OFFCURVE",
"960 411 CURVE SMOOTH",
"960 1085 LINE",
"839 1085 LINE SMOOTH",
"806 1085 OFFCURVE",
"789 1106 OFFCURVE",
"789 1127 CURVE SMOOTH",
"789 1149 OFFCURVE",
"806 1171 OFFCURVE",
"840 1171 CURVE SMOOTH",
"1173 1171 LINE SMOOTH",
"1220 1171 OFFCURVE",
"1243 1149 OFFCURVE",
"1243 1127 CURVE SMOOTH",
"1243 1106 OFFCURVE",
"1220 1085 OFFCURVE",
"1174 1085 CURVE SMOOTH",
"1056 1085 LINE",
"1056 411 LINE SMOOTH",
"1056 157 OFFCURVE",
"893 -17 OFFCURVE",
"654 -17 CURVE SMOOTH"
);
}
);
width = 1240;
},
{
anchors = (
{
name = ogonek;
position = "{1843, 10}";
},
{
name = top;
position = "{1024, 1714}";
}
);
layerId = "87D9408F-A41F-4898-A746-FF2057AB3891";
paths = (
{
closed = 1;
nodes = (
"640 -25 OFFCURVE",
"360 207 OFFCURVE",
"360 604 CURVE SMOOTH",
"360 1538 LINE",
"209 1538 LINE SMOOTH",
"158 1538 OFFCURVE",
"137 1580 OFFCURVE",
"137 1630 CURVE SMOOTH",
"137 1674 OFFCURVE",
"164 1714 OFFCURVE",
"211 1714 CURVE SMOOTH",
"795 1714 LINE SMOOTH",
"842 1714 OFFCURVE",
"868 1674 OFFCURVE",
"868 1630 CURVE SMOOTH",
"868 1580 OFFCURVE",
"848 1538 OFFCURVE",
"797 1538 CURVE SMOOTH",
"594 1538 LINE",
"594 604 LINE SMOOTH",
"594 318 OFFCURVE",
"754 154 OFFCURVE",
"1042 154 CURVE SMOOTH",
"1304 154 OFFCURVE",
"1473 340 OFFCURVE",
"1473 602 CURVE SMOOTH",
"1473 1538 LINE",
"1282 1538 LINE SMOOTH",
"1231 1538 OFFCURVE",
"1210 1580 OFFCURVE",
"1210 1630 CURVE SMOOTH",
"1210 1674 OFFCURVE",
"1237 1714 OFFCURVE",
"1284 1714 CURVE SMOOTH",
"1837 1714 LINE SMOOTH",
"1884 1714 OFFCURVE",
"1911 1674 OFFCURVE",
"1911 1630 CURVE SMOOTH",
"1911 1580 OFFCURVE",
"1890 1538 OFFCURVE",
"1839 1538 CURVE SMOOTH",
"1665 1538 LINE",
"1665 602 LINE SMOOTH",
"1665 230 OFFCURVE",
"1413 -25 OFFCURVE",
"1042 -25 CURVE SMOOTH"
);
}
);
width = 2048;
}
);
unicode = 0055;
},
{
glyphname = V;
lastChange = "2018-12-02 23:35:38 +0000";
layers = (
{
layerId = master01;
paths = (
{
closed = 1;
nodes = (
"1164 1171 OFFCURVE",
"1181 1150 OFFCURVE",
"1181 1128 CURVE SMOOTH",
"1181 1107 OFFCURVE",
"1165 1085 OFFCURVE",
"1132 1085 CURVE SMOOTH",
"1046 1085 LINE",
"730 20 LINE",
"714 -16 OFFCURVE",
"702 -36 OFFCURVE",
"666 -36 CURVE SMOOTH",
"630 -36 OFFCURVE",
"613 -13 OFFCURVE",
"602 20 CURVE SMOOTH",
"260 1085 LINE",
"156 1085 LINE SMOOTH",
"124 1085 OFFCURVE",
"108 1106 OFFCURVE",
"108 1127 CURVE SMOOTH",
"108 1149 OFFCURVE",
"125 1171 OFFCURVE",
"158 1171 CURVE SMOOTH",
"498 1171 LINE SMOOTH",
"531 1171 OFFCURVE",
"548 1150 OFFCURVE",
"548 1128 CURVE SMOOTH",
"548 1107 OFFCURVE",
"532 1085 OFFCURVE",
"499 1085 CURVE SMOOTH",
"368 1085 LINE",
"671 119 LINE",
"946 1085 LINE",
"826 1085 LINE SMOOTH",
"793 1085 OFFCURVE",
"776 1107 OFFCURVE",
"776 1128 CURVE SMOOTH",
"776 1150 OFFCURVE",
"793 1171 OFFCURVE",
"827 1171 CURVE SMOOTH",
"1131 1171 LINE SMOOTH"
);
}
);
width = 1240;
},
{
layerId = "48AFDEF4-2FAB-4AB6-AB64-D7DFD8485508";
width = 600;
},
{
layerId = "1027097C-2ACB-4125-B942-0F8B60E4A4BD";
paths = (
{
closed = 1;
nodes = (
"1164 1171 OFFCURVE",
"1181 1150 OFFCURVE",
"1181 1128 CURVE SMOOTH",
"1181 1107 OFFCURVE",
"1165 1085 OFFCURVE",
"1132 1085 CURVE SMOOTH",
"1046 1085 LINE",
"730 20 LINE",
"714 -16 OFFCURVE",
"702 -36 OFFCURVE",
"666 -36 CURVE SMOOTH",
"630 -36 OFFCURVE",
"613 -13 OFFCURVE",
"602 20 CURVE SMOOTH",
"260 1085 LINE",
"156 1085 LINE SMOOTH",
"124 1085 OFFCURVE",
"108 1106 OFFCURVE",
"108 1127 CURVE SMOOTH",
"108 1149 OFFCURVE",
"125 1171 OFFCURVE",
"158 1171 CURVE SMOOTH",
"498 1171 LINE SMOOTH",
"531 1171 OFFCURVE",
"548 1150 OFFCURVE",
"548 1128 CURVE SMOOTH",
"548 1107 OFFCURVE",
"532 1085 OFFCURVE",
"499 1085 CURVE SMOOTH",
"368 1085 LINE",
"671 119 LINE",
"946 1085 LINE",
"826 1085 LINE SMOOTH",
"793 1085 OFFCURVE",
"776 1107 OFFCURVE",
"776 1128 CURVE SMOOTH",
"776 1150 OFFCURVE",
"793 1171 OFFCURVE",
"827 1171 CURVE SMOOTH",
"1131 1171 LINE SMOOTH"
);
}
);
width = 1240;
},
{
layerId = "87D9408F-A41F-4898-A746-FF2057AB3891";
paths = (
{
closed = 1;
nodes = (
"1934 1580 OFFCURVE",
"1914 1538 OFFCURVE",
"1863 1538 CURVE SMOOTH",
"1693 1538 LINE",
"1142 29 LINE",
"1119 -23 OFFCURVE",
"1101 -53 OFFCURVE",
"1048 -53 CURVE SMOOTH",
"996 -53 OFFCURVE",
"973 -19 OFFCURVE",
"955 29 CURVE SMOOTH",
"396 1538 LINE",
"185 1538 LINE SMOOTH",
"134 1538 OFFCURVE",
"114 1580 OFFCURVE",
"114 1630 CURVE SMOOTH",
"114 1674 OFFCURVE",
"140 1714 OFFCURVE",
"187 1714 CURVE SMOOTH",
"802 1714 LINE SMOOTH",
"849 1714 OFFCURVE",
"876 1674 OFFCURVE",
"876 1630 CURVE SMOOTH",
"876 1580 OFFCURVE",
"855 1538 OFFCURVE",
"804 1538 CURVE SMOOTH",
"642 1538 LINE",
"1076 332 LINE",
"1488 1538 LINE",
"1326 1538 LINE SMOOTH",
"1275 1538 OFFCURVE",
"1254 1580 OFFCURVE",
"1254 1630 CURVE SMOOTH",
"1254 1674 OFFCURVE",
"1281 1714 OFFCURVE",
"1328 1714 CURVE SMOOTH",
"1861 1714 LINE SMOOTH",
"1908 1714 OFFCURVE",
"1934 1674 OFFCURVE",
"1934 1630 CURVE SMOOTH"
);
}
);
width = 2048;
}
);
unicode = 0056;
},
{
glyphname = W;
lastChange = "2018-12-02 23:35:38 +0000";
layers = (
{
layerId = master01;
paths = (
{
closed = 1;
nodes = (
"840 1085 OFFCURVE",
"823 1107 OFFCURVE",
"823 1129 CURVE SMOOTH",
"823 1150 OFFCURVE",
"839 1171 OFFCURVE",
"872 1171 CURVE SMOOTH",
"1151 1171 LINE SMOOTH",
"1184 1171 OFFCURVE",
"1201 1150 OFFCURVE",
"1201 1129 CURVE SMOOTH",
"1201 1107 OFFCURVE",
"1184 1085 OFFCURVE",
"1150 1085 CURVE SMOOTH",
"1080 1085 LINE",
"916 27 LINE SMOOTH",
"911 -3 OFFCURVE",
"889 -17 OFFCURVE",
"864 -17 CURVE SMOOTH",
"843 -17 OFFCURVE",
"820 1 OFFCURVE",
"811 35 CURVE SMOOTH",
"641 701 LINE",
"454 27 LINE SMOOTH",
"446 -3 OFFCURVE",
"425 -17 OFFCURVE",
"403 -17 CURVE SMOOTH",
"379 -17 OFFCURVE",
"355 1 OFFCURVE",
"351 35 CURVE",
"185 1085 LINE",
"101 1085 LINE SMOOTH",
"68 1085 OFFCURVE",
"51 1107 OFFCURVE",
"51 1129 CURVE SMOOTH",
"51 1150 OFFCURVE",
"67 1171 OFFCURVE",
"100 1171 CURVE SMOOTH",
"402 1171 LINE SMOOTH",
"435 1171 OFFCURVE",
"451 1150 OFFCURVE",
"451 1129 CURVE SMOOTH",
"451 1107 OFFCURVE",
"434 1085 OFFCURVE",
"400 1085 CURVE SMOOTH",
"286 1085 LINE",
"424 199 LINE",
"601 850 LINE SMOOTH",
"607 874 OFFCURVE",
"627 886 OFFCURVE",
"646 886 CURVE SMOOTH",
"665 886 OFFCURVE",
"683 874 OFFCURVE",
"689 850 CURVE SMOOTH",
"858 196 LINE",
"980 1085 LINE",
"873 1085 LINE SMOOTH"
);
}
);
width = 1240;
},
{
layerId = "48AFDEF4-2FAB-4AB6-AB64-D7DFD8485508";
width = 600;
},
{
layerId = "1027097C-2ACB-4125-B942-0F8B60E4A4BD";
paths = (
{
closed = 1;
nodes = (
"840 1085 OFFCURVE",
"823 1107 OFFCURVE",
"823 1129 CURVE SMOOTH",
"823 1150 OFFCURVE",
"839 1171 OFFCURVE",
"872 1171 CURVE SMOOTH",
"1151 1171 LINE SMOOTH",
"1184 1171 OFFCURVE",
"1201 1150 OFFCURVE",
"1201 1129 CURVE SMOOTH",
"1201 1107 OFFCURVE",
"1184 1085 OFFCURVE",
"1150 1085 CURVE SMOOTH",
"1080 1085 LINE",
"916 27 LINE SMOOTH",
"911 -3 OFFCURVE",
"889 -17 OFFCURVE",
"864 -17 CURVE SMOOTH",
"843 -17 OFFCURVE",
"820 1 OFFCURVE",
"811 35 CURVE SMOOTH",
"641 701 LINE",
"454 27 LINE SMOOTH",
"446 -3 OFFCURVE",
"425 -17 OFFCURVE",
"403 -17 CURVE SMOOTH",
"379 -17 OFFCURVE",
"355 1 OFFCURVE",
"351 35 CURVE",
"185 1085 LINE",
"101 1085 LINE SMOOTH",
"68 1085 OFFCURVE",
"51 1107 OFFCURVE",
"51 1129 CURVE SMOOTH",
"51 1150 OFFCURVE",
"67 1171 OFFCURVE",
"100 1171 CURVE SMOOTH",
"402 1171 LINE SMOOTH",
"435 1171 OFFCURVE",
"451 1150 OFFCURVE",
"451 1129 CURVE SMOOTH",
"451 1107 OFFCURVE",
"434 1085 OFFCURVE",
"400 1085 CURVE SMOOTH",
"286 1085 LINE",
"424 199 LINE",
"601 850 LINE SMOOTH",
"607 874 OFFCURVE",
"627 886 OFFCURVE",
"646 886 CURVE SMOOTH",
"665 886 OFFCURVE",
"683 874 OFFCURVE",
"689 850 CURVE SMOOTH",
"858 196 LINE",
"980 1085 LINE",
"873 1085 LINE SMOOTH"
);
}
);
width = 1240;
},
{
anchors = (
{
name = top;
position = "{1024, 1714}";
}
);
layerId = "87D9408F-A41F-4898-A746-FF2057AB3891";
paths = (
{
closed = 1;
nodes = (
"1522.5 1672 OFFCURVE",
"1543.5 1714 OFFCURVE",
"1594.5 1714 CURVE SMOOTH",
"2091.5 1714 LINE SMOOTH",
"2142.5 1714 OFFCURVE",
"2163.5 1672 OFFCURVE",
"2163.5 1622 CURVE SMOOTH",
"2163.5 1578 OFFCURVE",
"2136.5 1538 OFFCURVE",
"2089.5 1538 CURVE SMOOTH",
"1923.5 1538 LINE",
"1487.5 39 LINE",
"1473.5 3 OFFCURVE",
"1427.5 -27 OFFCURVE",
"1377.5 -27 CURVE SMOOTH",
"1326.5 -27 OFFCURVE",
"1285.5 -2 OFFCURVE",
"1278.5 47 CURVE",
"1020.5 1135 LINE",
"723.5 39 LINE",
"710.5 2 OFFCURVE",
"659.5 -27 OFFCURVE",
"609.5 -27 CURVE SMOOTH",
"553.5 -27 OFFCURVE",
"514.5 -2 OFFCURVE",
"504.5 51 CURVE",
"121.5 1538 LINE",
"-42.5 1538 LINE SMOOTH",
"-89.5 1538 OFFCURVE",
"-115.5 1578 OFFCURVE",
"-115.5 1622 CURVE SMOOTH",
"-115.5 1672 OFFCURVE",
"-95.5 1714 OFFCURVE",
"-44.5 1714 CURVE SMOOTH",
"453.5 1714 LINE SMOOTH",
"504.5 1714 OFFCURVE",
"525.5 1672 OFFCURVE",
"525.5 1622 CURVE SMOOTH",
"525.5 1578 OFFCURVE",
"498.5 1538 OFFCURVE",
"451.5 1538 CURVE SMOOTH",
"357.5 1538 LINE",
"641.5 381 LINE",
"965.5 1538 LINE",
"873.5 1538 LINE SMOOTH",
"826.5 1538 OFFCURVE",
"799.5 1578 OFFCURVE",
"799.5 1622 CURVE SMOOTH",
"799.5 1672 OFFCURVE",
"820.5 1714 OFFCURVE",
"871.5 1714 CURVE SMOOTH",
"1225.5 1714 LINE SMOOTH",
"1276.5 1714 OFFCURVE",
"1297.5 1672 OFFCURVE",
"1297.5 1622 CURVE SMOOTH",
"1297.5 1578 OFFCURVE",
"1270.5 1538 OFFCURVE",
"1223.5 1538 CURVE SMOOTH",
"1123.5 1538 LINE",
"1401.5 401 LINE",
"1717.5 1538 LINE",
"1596.5 1538 LINE SMOOTH",
"1549.5 1538 OFFCURVE",
"1522.5 1578 OFFCURVE",
"1522.5 1622 CURVE SMOOTH"
);
}
);
width = 2048;
}
);
unicode = 0057;
},
{
glyphname = X;
lastChange = "2018-12-02 23:35:38 +0000";
layers = (
{
layerId = master01;
paths = (
{
closed = 1;
nodes = (
"1127 1171 OFFCURVE",
"1134 1149 OFFCURVE",
"1134 1127 CURVE SMOOTH",
"1134 1106 OFFCURVE",
"1128 1085 OFFCURVE",
"1095 1085 CURVE SMOOTH",
"1022 1085 LINE",
"686 589 LINE",
"1027 82 LINE",
"1100 82 LINE SMOOTH",
"1133 82 OFFCURVE",
"1139 62 OFFCURVE",
"1139 42 CURVE SMOOTH",
"1139 21 OFFCURVE",
"1132 0 OFFCURVE",
"1098 0 CURVE SMOOTH",
"766 0 LINE SMOOTH",
"733 0 OFFCURVE",
"716 20 OFFCURVE",
"716 41 CURVE SMOOTH",
"716 61 OFFCURVE",
"732 82 OFFCURVE",
"765 82 CURVE SMOOTH",
"921 82 LINE",
"632 510 LINE",
"342 82 LINE",
"491 82 LINE SMOOTH",
"524 82 OFFCURVE",
"530 61 OFFCURVE",
"530 41 CURVE SMOOTH",
"530 20 OFFCURVE",
"523 0 OFFCURVE",
"490 0 CURVE SMOOTH",
"142 0 LINE SMOOTH",
"109 0 OFFCURVE",
"102 20 OFFCURVE",
"102 41 CURVE SMOOTH",
"102 61 OFFCURVE",
"108 82 OFFCURVE",
"141 82 CURVE SMOOTH",
"226 82 LINE",
"574 596 LINE",
"245 1085 LINE",
"163 1085 LINE SMOOTH",
"130 1085 OFFCURVE",
"124 1106 OFFCURVE",
"124 1127 CURVE SMOOTH",
"124 1149 OFFCURVE",
"131 1171 OFFCURVE",
"164 1171 CURVE SMOOTH",
"500 1171 LINE SMOOTH",
"533 1171 OFFCURVE",
"540 1149 OFFCURVE",
"540 1127 CURVE SMOOTH",
"540 1106 OFFCURVE",
"534 1085 OFFCURVE",
"501 1085 CURVE SMOOTH",
"353 1085 LINE",
"628 676 LINE",
"905 1085 LINE",
"804 1085 LINE SMOOTH",
"771 1085 OFFCURVE",
"765 1106 OFFCURVE",
"765 1127 CURVE SMOOTH",
"765 1149 OFFCURVE",
"772 1171 OFFCURVE",
"805 1171 CURVE SMOOTH",
"1094 1171 LINE SMOOTH"
);
}
);
width = 1240;
},
{
layerId = "48AFDEF4-2FAB-4AB6-AB64-D7DFD8485508";
width = 600;
},
{
layerId = "1027097C-2ACB-4125-B942-0F8B60E4A4BD";
paths = (
{
closed = 1;
nodes = (
"1127 1171 OFFCURVE",
"1134 1149 OFFCURVE",
"1134 1127 CURVE SMOOTH",
"1134 1106 OFFCURVE",
"1128 1085 OFFCURVE",
"1095 1085 CURVE SMOOTH",
"1022 1085 LINE",
"686 589 LINE",
"1027 82 LINE",
"1100 82 LINE SMOOTH",
"1133 82 OFFCURVE",
"1139 62 OFFCURVE",
"1139 42 CURVE SMOOTH",
"1139 21 OFFCURVE",
"1132 0 OFFCURVE",
"1098 0 CURVE SMOOTH",
"766 0 LINE SMOOTH",
"733 0 OFFCURVE",
"716 20 OFFCURVE",
"716 41 CURVE SMOOTH",
"716 61 OFFCURVE",
"732 82 OFFCURVE",
"765 82 CURVE SMOOTH",
"921 82 LINE",
"632 510 LINE",
"342 82 LINE",
"491 82 LINE SMOOTH",
"524 82 OFFCURVE",
"530 61 OFFCURVE",
"530 41 CURVE SMOOTH",
"530 20 OFFCURVE",
"523 0 OFFCURVE",
"490 0 CURVE SMOOTH",
"142 0 LINE SMOOTH",
"109 0 OFFCURVE",
"102 20 OFFCURVE",
"102 41 CURVE SMOOTH",
"102 61 OFFCURVE",
"108 82 OFFCURVE",
"141 82 CURVE SMOOTH",
"226 82 LINE",
"574 596 LINE",
"245 1085 LINE",
"163 1085 LINE SMOOTH",
"130 1085 OFFCURVE",
"124 1106 OFFCURVE",
"124 1127 CURVE SMOOTH",
"124 1149 OFFCURVE",
"131 1171 OFFCURVE",
"164 1171 CURVE SMOOTH",
"500 1171 LINE SMOOTH",
"533 1171 OFFCURVE",
"540 1149 OFFCURVE",
"540 1127 CURVE SMOOTH",
"540 1106 OFFCURVE",
"534 1085 OFFCURVE",
"501 1085 CURVE SMOOTH",
"353 1085 LINE",
"628 676 LINE",
"905 1085 LINE",
"804 1085 LINE SMOOTH",
"771 1085 OFFCURVE",
"765 1106 OFFCURVE",
"765 1127 CURVE SMOOTH",
"765 1149 OFFCURVE",
"772 1171 OFFCURVE",
"805 1171 CURVE SMOOTH",
"1094 1171 LINE SMOOTH"
);
}
);
width = 1240;
},
{
layerId = "87D9408F-A41F-4898-A746-FF2057AB3891";
paths = (
{
closed = 1;
nodes = (
"1959.5 1580 OFFCURVE",
"1938.5 1538 OFFCURVE",
"1887.5 1538 CURVE SMOOTH",
"1721.5 1538 LINE",
"1168.5 895 LINE",
"1787.5 176 LINE",
"1908.5 176 LINE SMOOTH",
"1959.5 176 OFFCURVE",
"1980.5 134 OFFCURVE",
"1980.5 84 CURVE SMOOTH",
"1980.5 40 OFFCURVE",
"1953.5 0 OFFCURVE",
"1906.5 0 CURVE SMOOTH",
"1230.5 0 LINE SMOOTH",
"1183.5 0 OFFCURVE",
"1156.5 40 OFFCURVE",
"1156.5 84 CURVE SMOOTH",
"1156.5 134 OFFCURVE",
"1177.5 176 OFFCURVE",
"1228.5 176 CURVE SMOOTH",
"1506.5 176 LINE",
"1027.5 731 LINE",
"550.5 176 LINE",
"798.5 176 LINE SMOOTH",
"849.5 176 OFFCURVE",
"869.5 134 OFFCURVE",
"869.5 84 CURVE SMOOTH",
"869.5 40 OFFCURVE",
"843.5 0 OFFCURVE",
"796.5 0 CURVE SMOOTH",
"140.5 0 LINE SMOOTH",
"93.5 0 OFFCURVE",
"67.5 40 OFFCURVE",
"67.5 84 CURVE SMOOTH",
"67.5 134 OFFCURVE",
"87.5 176 OFFCURVE",
"138.5 176 CURVE SMOOTH",
"321.5 176 LINE",
"912.5 864 LINE",
"335.5 1538 LINE",
"200.5 1538 LINE SMOOTH",
"149.5 1538 OFFCURVE",
"128.5 1580 OFFCURVE",
"128.5 1630 CURVE SMOOTH",
"128.5 1674 OFFCURVE",
"155.5 1714 OFFCURVE",
"202.5 1714 CURVE SMOOTH",
"796.5 1714 LINE SMOOTH",
"843.5 1714 OFFCURVE",
"869.5 1674 OFFCURVE",
"869.5 1630 CURVE SMOOTH",
"869.5 1580 OFFCURVE",
"849.5 1538 OFFCURVE",
"798.5 1538 CURVE SMOOTH",
"616.5 1538 LINE",
"1054.5 1028 LINE",
"1492.5 1538 LINE",
"1310.5 1538 LINE SMOOTH",
"1259.5 1538 OFFCURVE",
"1238.5 1580 OFFCURVE",
"1238.5 1630 CURVE SMOOTH",
"1238.5 1674 OFFCURVE",
"1265.5 1714 OFFCURVE",
"1312.5 1714 CURVE SMOOTH",
"1885.5 1714 LINE SMOOTH",
"1932.5 1714 OFFCURVE",
"1959.5 1674 OFFCURVE",
"1959.5 1630 CURVE SMOOTH"
);
}
);
width = 2048;
}
);
unicode = 0058;
},
{
glyphname = Y;
lastChange = "2018-12-02 23:35:38 +0000";
layers = (
{
layerId = master01;
paths = (
{
closed = 1;
nodes = (
"1099 1171 OFFCURVE",
"1116 1151 OFFCURVE",
"1116 1132 CURVE SMOOTH",
"1116 1113 OFFCURVE",
"1100 1095 OFFCURVE",
"1067 1095 CURVE SMOOTH",
"1012 1095 LINE",
"689 548 LINE",
"689 86 LINE",
"921 86 LINE SMOOTH",
"953 86 OFFCURVE",
"969 65 OFFCURVE",
"969 44 CURVE SMOOTH",
"969 22 OFFCURVE",
"952 0 OFFCURVE",
"919 0 CURVE SMOOTH",
"334 0 LINE SMOOTH",
"300 0 OFFCURVE",
"282 22 OFFCURVE",
"282 44 CURVE SMOOTH",
"282 65 OFFCURVE",
"299 86 OFFCURVE",
"332 86 CURVE SMOOTH",
"593 86 LINE",
"593 553 LINE",
"258 1095 LINE",
"174 1095 LINE SMOOTH",
"141 1095 OFFCURVE",
"124 1114 OFFCURVE",
"124 1133 CURVE SMOOTH",
"124 1152 OFFCURVE",
"142 1171 OFFCURVE",
"175 1171 CURVE SMOOTH",
"505 1171 LINE SMOOTH",
"539 1171 OFFCURVE",
"556 1152 OFFCURVE",
"556 1133 CURVE SMOOTH",
"556 1114 OFFCURVE",
"539 1095 OFFCURVE",
"506 1095 CURVE SMOOTH",
"370 1095 LINE",
"646 633 LINE",
"914 1095 LINE",
"803 1095 LINE SMOOTH",
"770 1095 OFFCURVE",
"753 1114 OFFCURVE",
"753 1133 CURVE SMOOTH",
"753 1152 OFFCURVE",
"771 1171 OFFCURVE",
"804 1171 CURVE SMOOTH",
"1065 1171 LINE SMOOTH"
);
}
);
width = 1240;
},
{
layerId = "48AFDEF4-2FAB-4AB6-AB64-D7DFD8485508";
width = 600;
},
{
layerId = "1027097C-2ACB-4125-B942-0F8B60E4A4BD";
paths = (
{
closed = 1;
nodes = (
"1099 1171 OFFCURVE",
"1116 1151 OFFCURVE",
"1116 1132 CURVE SMOOTH",
"1116 1113 OFFCURVE",
"1100 1095 OFFCURVE",
"1067 1095 CURVE SMOOTH",
"1012 1095 LINE",
"689 548 LINE",
"689 86 LINE",
"921 86 LINE SMOOTH",
"953 86 OFFCURVE",
"969 65 OFFCURVE",
"969 44 CURVE SMOOTH",
"969 22 OFFCURVE",
"952 0 OFFCURVE",
"919 0 CURVE SMOOTH",
"334 0 LINE SMOOTH",
"300 0 OFFCURVE",
"282 22 OFFCURVE",
"282 44 CURVE SMOOTH",
"282 65 OFFCURVE",
"299 86 OFFCURVE",
"332 86 CURVE SMOOTH",
"593 86 LINE",
"593 553 LINE",
"258 1095 LINE",
"174 1095 LINE SMOOTH",
"141 1095 OFFCURVE",
"124 1114 OFFCURVE",
"124 1133 CURVE SMOOTH",
"124 1152 OFFCURVE",
"142 1171 OFFCURVE",
"175 1171 CURVE SMOOTH",
"505 1171 LINE SMOOTH",
"539 1171 OFFCURVE",
"556 1152 OFFCURVE",
"556 1133 CURVE SMOOTH",
"556 1114 OFFCURVE",
"539 1095 OFFCURVE",
"506 1095 CURVE SMOOTH",
"370 1095 LINE",
"646 633 LINE",
"914 1095 LINE",
"803 1095 LINE SMOOTH",
"770 1095 OFFCURVE",
"753 1114 OFFCURVE",
"753 1133 CURVE SMOOTH",
"753 1152 OFFCURVE",
"771 1171 OFFCURVE",
"804 1171 CURVE SMOOTH",
"1065 1171 LINE SMOOTH"
);
}
);
width = 1240;
},
{
anchors = (
{
name = top;
position = "{1024, 1714}";
}
);
layerId = "87D9408F-A41F-4898-A746-FF2057AB3891";
paths = (
{
closed = 1;
nodes = (
"1874 1580 OFFCURVE",
"1853 1538 OFFCURVE",
"1802 1538 CURVE SMOOTH",
"1663 1538 LINE",
"1166 723 LINE",
"1166 176 LINE",
"1389 176 LINE SMOOTH",
"1440 176 OFFCURVE",
"1460 134 OFFCURVE",
"1460 84 CURVE SMOOTH",
"1460 40 OFFCURVE",
"1434 0 OFFCURVE",
"1387 0 CURVE SMOOTH",
"670 0 LINE SMOOTH",
"623 0 OFFCURVE",
"596 40 OFFCURVE",
"596 84 CURVE SMOOTH",
"596 134 OFFCURVE",
"617 176 OFFCURVE",
"668 176 CURVE SMOOTH",
"932 176 LINE",
"932 739 LINE",
"457 1538 LINE",
"246 1538 LINE SMOOTH",
"195 1538 OFFCURVE",
"174 1580 OFFCURVE",
"174 1630 CURVE SMOOTH",
"174 1674 OFFCURVE",
"201 1714 OFFCURVE",
"248 1714 CURVE SMOOTH",
"842 1714 LINE SMOOTH",
"889 1714 OFFCURVE",
"916 1674 OFFCURVE",
"916 1630 CURVE SMOOTH",
"916 1580 OFFCURVE",
"895 1538 OFFCURVE",
"844 1538 CURVE SMOOTH",
"703 1538 LINE",
"1088 891 LINE",
"1469 1538 LINE",
"1307 1538 LINE SMOOTH",
"1256 1538 OFFCURVE",
"1235 1580 OFFCURVE",
"1235 1630 CURVE SMOOTH",
"1235 1674 OFFCURVE",
"1262 1714 OFFCURVE",
"1309 1714 CURVE SMOOTH",
"1800 1714 LINE SMOOTH",
"1847 1714 OFFCURVE",
"1874 1674 OFFCURVE",
"1874 1630 CURVE SMOOTH"
);
}
);
width = 2048;
}
);
unicode = 0059;
},
{
glyphname = Z;
lastChange = "2018-12-02 23:35:38 +0000";
layers = (
{
layerId = master01;
paths = (
{
closed = 1;
nodes = (
"254 1116 LINE",
"255 1144 OFFCURVE",
"271 1171 OFFCURVE",
"322 1171 CURVE SMOOTH",
"952 1171 LINE SMOOTH",
"984 1171 OFFCURVE",
"1001 1144 OFFCURVE",
"1001 1116 CURVE SMOOTH",
"1001 1104 OFFCURVE",
"998 1092 OFFCURVE",
"991 1081 CURVE SMOOTH",
"369 86 LINE",
"942 86 LINE",
"942 384 LINE",
"944 416 OFFCURVE",
"970 435 OFFCURVE",
"993 435 CURVE SMOOTH",
"1014 435 OFFCURVE",
"1034 420 OFFCURVE",
"1034 385 CURVE",
"1044 53 LINE SMOOTH",
"1045 19 OFFCURVE",
"1022 0 OFFCURVE",
"993 0 CURVE SMOOTH",
"271 0 LINE SMOOTH",
"232 0 OFFCURVE",
"219 14 OFFCURVE",
"219 31 CURVE SMOOTH",
"219 53 OFFCURVE",
"239 81 OFFCURVE",
"247 95 CURVE SMOOTH",
"880 1085 LINE",
"366 1085 LINE",
"350 797 LINE SMOOTH",
"349 770 OFFCURVE",
"327 757 OFFCURVE",
"305 757 CURVE SMOOTH",
"280 757 OFFCURVE",
"254 774 OFFCURVE",
"254 806 CURVE SMOOTH"
);
}
);
width = 1240;
},
{
layerId = "48AFDEF4-2FAB-4AB6-AB64-D7DFD8485508";
width = 600;
},
{
layerId = "1027097C-2ACB-4125-B942-0F8B60E4A4BD";
paths = (
{
closed = 1;
nodes = (
"254 1116 LINE",
"255 1144 OFFCURVE",
"271 1171 OFFCURVE",
"322 1171 CURVE SMOOTH",
"952 1171 LINE SMOOTH",
"984 1171 OFFCURVE",
"1001 1144 OFFCURVE",
"1001 1116 CURVE SMOOTH",
"1001 1104 OFFCURVE",
"998 1092 OFFCURVE",
"991 1081 CURVE SMOOTH",
"369 86 LINE",
"942 86 LINE",
"942 384 LINE",
"944 416 OFFCURVE",
"970 435 OFFCURVE",
"993 435 CURVE SMOOTH",
"1014 435 OFFCURVE",
"1034 420 OFFCURVE",
"1034 385 CURVE",
"1044 53 LINE SMOOTH",
"1045 19 OFFCURVE",
"1022 0 OFFCURVE",
"993 0 CURVE SMOOTH",
"271 0 LINE SMOOTH",
"232 0 OFFCURVE",
"219 14 OFFCURVE",
"219 31 CURVE SMOOTH",
"219 53 OFFCURVE",
"239 81 OFFCURVE",
"247 95 CURVE SMOOTH",
"880 1085 LINE",
"366 1085 LINE",
"350 797 LINE SMOOTH",
"349 770 OFFCURVE",
"327 757 OFFCURVE",
"305 757 CURVE SMOOTH",
"280 757 OFFCURVE",
"254 774 OFFCURVE",
"254 806 CURVE SMOOTH"
);
}
);
width = 1240;
},
{
anchors = (
{
name = top;
position = "{1024, 1714}";
}
);
layerId = "87D9408F-A41F-4898-A746-FF2057AB3891";
paths = (
{
closed = 1;
nodes = (
"162 1634 LINE",
"163 1675 OFFCURVE",
"187 1714 OFFCURVE",
"265 1714 CURVE SMOOTH",
"1395 1714 LINE SMOOTH",
"1442 1714 OFFCURVE",
"1469 1674 OFFCURVE",
"1469 1630 CURVE SMOOTH",
"1469 1603 OFFCURVE",
"1465 1579 OFFCURVE",
"1453 1565 CURVE",
"390 176 LINE",
"1326 176 LINE",
"1402 547 LINE",
"1415 591 OFFCURVE",
"1454 623 OFFCURVE",
"1504 623 CURVE SMOOTH",
"1546 623 OFFCURVE",
"1578 594 OFFCURVE",
"1578 549 CURVE SMOOTH",
"1578 535 OFFCURVE",
"1576 522 OFFCURVE",
"1572 510 CURVE",
"1529 78 LINE",
"1515 30 OFFCURVE",
"1494 0 OFFCURVE",
"1447 0 CURVE SMOOTH",
"167 0 LINE SMOOTH",
"124 0 OFFCURVE",
"91 53 OFFCURVE",
"91 102 CURVE SMOOTH",
"91 137 OFFCURVE",
"106 175 OFFCURVE",
"136 213 CURVE SMOOTH",
"1154 1538 LINE",
"357 1538 LINE",
"318 1241 LINE",
"304 1202 OFFCURVE",
"278 1165 OFFCURVE",
"236 1165 CURVE SMOOTH",
"195 1165 OFFCURVE",
"163 1196 OFFCURVE",
"163 1239 CURVE SMOOTH"
);
}
);
width = 2048;
}
);
unicode = 005A;
},
{
glyphname = uni01C4;
lastChange = "2018-12-03 21:27:24 +0000";
layers = (
{
layerId = master01;
paths = (
{
closed = 1;
nodes = (
"496 86 OFFCURVE",
"553 256 OFFCURVE",
"553 591 CURVE SMOOTH",
"553 907 OFFCURVE",
"488 1085 OFFCURVE",
"235 1085 CURVE",
"235 86 LINE"
);
},
{
closed = 1;
nodes = (
"739 0 LINE SMOOTH",
"715 0 OFFCURVE",
"704 14 OFFCURVE",
"704 39 CURVE SMOOTH",
"704 54 OFFCURVE",
"708 73 OFFCURVE",
"715 95 CURVE SMOOTH",
"1038 1085 LINE",
"818 1085 LINE",
"818 857 LINE SMOOTH",
"818 830 OFFCURVE",
"795 817 OFFCURVE",
"773 817 CURVE SMOOTH",
"748 817 OFFCURVE",
"732 834 OFFCURVE",
"732 866 CURVE SMOOTH",
"732 1116 LINE",
"733 1144 OFFCURVE",
"739 1171 OFFCURVE",
"790 1171 CURVE SMOOTH",
"1090 1171 LINE SMOOTH",
"1125 1171 OFFCURVE",
"1132 1137 OFFCURVE",
"1132 1111 CURVE SMOOTH",
"1132 1097 OFFCURVE",
"1130 1085 OFFCURVE",
"1129 1081 CURVE SMOOTH",
"811 86 LINE",
"1070 86 LINE",
"1070 314 LINE",
"1072 346 OFFCURVE",
"1093 363 OFFCURVE",
"1116 363 CURVE SMOOTH",
"1137 363 OFFCURVE",
"1162 350 OFFCURVE",
"1162 315 CURVE SMOOTH",
"1162 53 LINE",
"1163 19 OFFCURVE",
"1140 0 OFFCURVE",
"1111 0 CURVE SMOOTH"
);
},
{
closed = 1;
nodes = (
"115 0 LINE SMOOTH",
"81 0 OFFCURVE",
"64 21 OFFCURVE",
"64 43 CURVE SMOOTH",
"64 64 OFFCURVE",
"81 86 OFFCURVE",
"114 86 CURVE SMOOTH",
"139 86 LINE",
"139 1085 LINE",
"118 1085 LINE SMOOTH",
"86 1085 OFFCURVE",
"70 1106 OFFCURVE",
"70 1127 CURVE SMOOTH",
"70 1149 OFFCURVE",
"87 1171 OFFCURVE",
"120 1171 CURVE SMOOTH",
"230 1171 LINE SMOOTH",
"525 1171 OFFCURVE",
"649 993 OFFCURVE",
"649 591 CURVE SMOOTH",
"649 168 OFFCURVE",
"519 0 OFFCURVE",
"228 0 CURVE SMOOTH"
);
},
{
closed = 1;
nodes = (
"980 1312 OFFCURVE",
"966 1309 OFFCURVE",
"953 1309 CURVE SMOOTH",
"940 1309 OFFCURVE",
"927 1312 OFFCURVE",
"922 1320 CURVE SMOOTH",
"758 1603 LINE",
"753 1608 OFFCURVE",
"751 1615 OFFCURVE",
"751 1620 CURVE SMOOTH",
"751 1636 OFFCURVE",
"770 1650 OFFCURVE",
"788 1650 CURVE SMOOTH",
"796 1650 OFFCURVE",
"806 1649 OFFCURVE",
"811 1641 CURVE SMOOTH",
"953 1432 LINE",
"1066 1641 LINE SMOOTH",
"1071 1649 OFFCURVE",
"1081 1650 OFFCURVE",
"1089 1650 CURVE SMOOTH",
"1107 1650 OFFCURVE",
"1126 1636 OFFCURVE",
"1126 1620 CURVE SMOOTH",
"1126 1615 OFFCURVE",
"1124 1608 OFFCURVE",
"1119 1603 CURVE",
"985 1320 LINE"
);
}
);
width = 1240;
},
{
layerId = "48AFDEF4-2FAB-4AB6-AB64-D7DFD8485508";
width = 600;
},
{
layerId = "1027097C-2ACB-4125-B942-0F8B60E4A4BD";
paths = (
{
closed = 1;
nodes = (
"496 86 OFFCURVE",
"553 256 OFFCURVE",
"553 591 CURVE SMOOTH",
"553 907 OFFCURVE",
"488 1085 OFFCURVE",
"235 1085 CURVE",
"235 86 LINE"
);
},
{
closed = 1;
nodes = (
"739 0 LINE SMOOTH",
"715 0 OFFCURVE",
"704 14 OFFCURVE",
"704 39 CURVE SMOOTH",
"704 54 OFFCURVE",
"708 73 OFFCURVE",
"715 95 CURVE SMOOTH",
"1038 1085 LINE",
"818 1085 LINE",
"818 857 LINE SMOOTH",
"818 830 OFFCURVE",
"795 817 OFFCURVE",
"773 817 CURVE SMOOTH",
"748 817 OFFCURVE",
"732 834 OFFCURVE",
"732 866 CURVE SMOOTH",
"732 1116 LINE",
"733 1144 OFFCURVE",
"739 1171 OFFCURVE",
"790 1171 CURVE SMOOTH",
"1090 1171 LINE SMOOTH",
"1125 1171 OFFCURVE",
"1132 1137 OFFCURVE",
"1132 1111 CURVE SMOOTH",
"1132 1097 OFFCURVE",
"1130 1085 OFFCURVE",
"1129 1081 CURVE SMOOTH",
"811 86 LINE",
"1070 86 LINE",
"1070 314 LINE",
"1072 346 OFFCURVE",
"1093 363 OFFCURVE",
"1116 363 CURVE SMOOTH",
"1137 363 OFFCURVE",
"1162 350 OFFCURVE",
"1162 315 CURVE SMOOTH",
"1162 53 LINE",
"1163 19 OFFCURVE",
"1140 0 OFFCURVE",
"1111 0 CURVE SMOOTH"
);
},
{
closed = 1;
nodes = (
"115 0 LINE SMOOTH",
"81 0 OFFCURVE",
"64 21 OFFCURVE",
"64 43 CURVE SMOOTH",
"64 64 OFFCURVE",
"81 86 OFFCURVE",
"114 86 CURVE SMOOTH",
"139 86 LINE",
"139 1085 LINE",
"118 1085 LINE SMOOTH",
"86 1085 OFFCURVE",
"70 1106 OFFCURVE",
"70 1127 CURVE SMOOTH",
"70 1149 OFFCURVE",
"87 1171 OFFCURVE",
"120 1171 CURVE SMOOTH",
"230 1171 LINE SMOOTH",
"525 1171 OFFCURVE",
"649 993 OFFCURVE",
"649 591 CURVE SMOOTH",
"649 168 OFFCURVE",
"519 0 OFFCURVE",
"228 0 CURVE SMOOTH"
);
},
{
closed = 1;
nodes = (
"980 1312 OFFCURVE",
"966 1309 OFFCURVE",
"953 1309 CURVE SMOOTH",
"940 1309 OFFCURVE",
"927 1312 OFFCURVE",
"922 1320 CURVE SMOOTH",
"758 1603 LINE",
"753 1608 OFFCURVE",
"751 1615 OFFCURVE",
"751 1620 CURVE SMOOTH",
"751 1636 OFFCURVE",
"770 1650 OFFCURVE",
"788 1650 CURVE SMOOTH",
"796 1650 OFFCURVE",
"806 1649 OFFCURVE",
"811 1641 CURVE SMOOTH",
"953 1432 LINE",
"1066 1641 LINE SMOOTH",
"1071 1649 OFFCURVE",
"1081 1650 OFFCURVE",
"1089 1650 CURVE SMOOTH",
"1107 1650 OFFCURVE",
"1126 1636 OFFCURVE",
"1126 1620 CURVE SMOOTH",
"1126 1615 OFFCURVE",
"1124 1608 OFFCURVE",
"1119 1603 CURVE",
"985 1320 LINE"
);
}
);
width = 1240;
},
{
components = (
{
name = D;
},
{
name = Zcaron;
transform = "{1, 0, 0, 1, 1494, 0}";
}
);
layerId = "87D9408F-A41F-4898-A746-FF2057AB3891";
width = 3542;
}
);
unicode = 01C4;
},
{
glyphname = uni01C5;
lastChange = "2018-12-03 21:27:24 +0000";
layers = (
{
components = (
{
name = caron;
transform = "{1, 0, 0, 1, 258, -44}";
}
);
layerId = master01;
paths = (
{
closed = 1;
nodes = (
"1135 772 OFFCURVE",
"1150 750 OFFCURVE",
"1150 727 CURVE SMOOTH",
"1150 710 OFFCURVE",
"1138 695 OFFCURVE",
"1132 682 CURVE SMOOTH",
"860 82 LINE",
"1065 82 LINE",
"1076 259 LINE SMOOTH",
"1077 283 OFFCURVE",
"1099 297 OFFCURVE",
"1120 297 CURVE SMOOTH",
"1141 297 OFFCURVE",
"1161 284 OFFCURVE",
"1161 255 CURVE SMOOTH",
"1161 46 LINE SMOOTH",
"1161 21 OFFCURVE",
"1134 0 OFFCURVE",
"1110 0 CURVE SMOOTH",
"806 0 LINE SMOOTH",
"768 0 OFFCURVE",
"750 24 OFFCURVE",
"750 59 CURVE SMOOTH",
"750 81 OFFCURVE",
"761 97 OFFCURVE",
"767 109 CURVE SMOOTH",
"1034 692 LINE",
"831 692 LINE",
"823 535 LINE SMOOTH",
"822 505 OFFCURVE",
"802 490 OFFCURVE",
"781 490 CURVE SMOOTH",
"759 490 OFFCURVE",
"736 507 OFFCURVE",
"736 540 CURVE SMOOTH",
"736 726 LINE SMOOTH",
"736 750 OFFCURVE",
"758 772 OFFCURVE",
"782 772 CURVE SMOOTH",
"1089 772 LINE SMOOTH"
);
},
{
closed = 1;
nodes = (
"496 86 OFFCURVE",
"553 256 OFFCURVE",
"553 591 CURVE SMOOTH",
"553 907 OFFCURVE",
"488 1085 OFFCURVE",
"235 1085 CURVE",
"235 86 LINE"
);
},
{
closed = 1;
nodes = (
"115 0 LINE SMOOTH",
"81 0 OFFCURVE",
"64 21 OFFCURVE",
"64 43 CURVE SMOOTH",
"64 64 OFFCURVE",
"81 86 OFFCURVE",
"114 86 CURVE SMOOTH",
"139 86 LINE",
"139 1085 LINE",
"118 1085 LINE SMOOTH",
"86 1085 OFFCURVE",
"70 1106 OFFCURVE",
"70 1127 CURVE SMOOTH",
"70 1149 OFFCURVE",
"87 1171 OFFCURVE",
"120 1171 CURVE SMOOTH",
"230 1171 LINE SMOOTH",
"525 1171 OFFCURVE",
"649 993 OFFCURVE",
"649 591 CURVE SMOOTH",
"649 168 OFFCURVE",
"519 0 OFFCURVE",
"228 0 CURVE SMOOTH"
);
}
);
width = 1240;
},
{
layerId = "48AFDEF4-2FAB-4AB6-AB64-D7DFD8485508";
width = 600;
},
{
components = (
{
name = caron;
transform = "{1, 0, 0, 1, 258, -44}";
}
);
layerId = "1027097C-2ACB-4125-B942-0F8B60E4A4BD";
paths = (
{
closed = 1;
nodes = (
"1135 772 OFFCURVE",
"1150 750 OFFCURVE",
"1150 727 CURVE SMOOTH",
"1150 710 OFFCURVE",
"1138 695 OFFCURVE",
"1132 682 CURVE SMOOTH",
"860 82 LINE",
"1065 82 LINE",
"1076 259 LINE SMOOTH",
"1077 283 OFFCURVE",
"1099 297 OFFCURVE",
"1120 297 CURVE SMOOTH",
"1141 297 OFFCURVE",
"1161 284 OFFCURVE",
"1161 255 CURVE SMOOTH",
"1161 46 LINE SMOOTH",
"1161 21 OFFCURVE",
"1134 0 OFFCURVE",
"1110 0 CURVE SMOOTH",
"806 0 LINE SMOOTH",
"768 0 OFFCURVE",
"750 24 OFFCURVE",
"750 59 CURVE SMOOTH",
"750 81 OFFCURVE",
"761 97 OFFCURVE",
"767 109 CURVE SMOOTH",
"1034 692 LINE",
"831 692 LINE",
"823 535 LINE SMOOTH",
"822 505 OFFCURVE",
"802 490 OFFCURVE",
"781 490 CURVE SMOOTH",
"759 490 OFFCURVE",
"736 507 OFFCURVE",
"736 540 CURVE SMOOTH",
"736 726 LINE SMOOTH",
"736 750 OFFCURVE",
"758 772 OFFCURVE",
"782 772 CURVE SMOOTH",
"1089 772 LINE SMOOTH"
);
},
{
closed = 1;
nodes = (
"496 86 OFFCURVE",
"553 256 OFFCURVE",
"553 591 CURVE SMOOTH",
"553 907 OFFCURVE",
"488 1085 OFFCURVE",
"235 1085 CURVE",
"235 86 LINE"
);
},
{
closed = 1;
nodes = (
"115 0 LINE SMOOTH",
"81 0 OFFCURVE",
"64 21 OFFCURVE",
"64 43 CURVE SMOOTH",
"64 64 OFFCURVE",
"81 86 OFFCURVE",
"114 86 CURVE SMOOTH",
"139 86 LINE",
"139 1085 LINE",
"118 1085 LINE SMOOTH",
"86 1085 OFFCURVE",
"70 1106 OFFCURVE",
"70 1127 CURVE SMOOTH",
"70 1149 OFFCURVE",
"87 1171 OFFCURVE",
"120 1171 CURVE SMOOTH",
"230 1171 LINE SMOOTH",
"525 1171 OFFCURVE",
"649 993 OFFCURVE",
"649 591 CURVE SMOOTH",
"649 168 OFFCURVE",
"519 0 OFFCURVE",
"228 0 CURVE SMOOTH"
);
}
);
width = 1240;
},
{
components = (
{
name = D;
},
{
name = zcaron;
transform = "{1, 0, 0, 1, -663, 136}";
}
);
layerId = "87D9408F-A41F-4898-A746-FF2057AB3891";
width = 1494;
}
);
unicode = 01C5;
},
{
glyphname = uni01C7;
lastChange = "2018-12-02 23:35:38 +0000";
layers = (
{
layerId = master01;
paths = (
{
closed = 1;
nodes = (
"383 1171 OFFCURVE",
"400 1149 OFFCURVE",
"400 1127 CURVE SMOOTH",
"400 1106 OFFCURVE",
"383 1085 OFFCURVE",
"350 1085 CURVE SMOOTH",
"198 1085 LINE",
"198 86 LINE",
"475 86 LINE SMOOTH",
"483 86 OFFCURVE",
"482 88 OFFCURVE",
"483 99 CURVE SMOOTH",
"490 389 LINE",
"494 418 OFFCURVE",
"517 432 OFFCURVE",
"540 432 CURVE SMOOTH",
"566 432 OFFCURVE",
"591 415 OFFCURVE",
"591 383 CURVE SMOOTH",
"591 66 LINE",
"586 29 OFFCURVE",
"562 0 OFFCURVE",
"519 0 CURVE SMOOTH",
"64 0 LINE SMOOTH",
"30 0 OFFCURVE",
"13 21 OFFCURVE",
"13 43 CURVE SMOOTH",
"13 64 OFFCURVE",
"30 86 OFFCURVE",
"63 86 CURVE SMOOTH",
"102 86 LINE",
"102 1085 LINE",
"55 1085 LINE SMOOTH",
"22 1085 OFFCURVE",
"6 1106 OFFCURVE",
"6 1127 CURVE SMOOTH",
"6 1149 OFFCURVE",
"23 1171 OFFCURVE",
"56 1171 CURVE SMOOTH",
"349 1171 LINE SMOOTH"
);
},
{
closed = 1;
nodes = (
"1154 72 OFFCURVE",
"1083 -13 OFFCURVE",
"890 -13 CURVE SMOOTH",
"758 -13 OFFCURVE",
"677 56 OFFCURVE",
"677 171 CURVE SMOOTH",
"677 283 LINE SMOOTH",
"677 312 OFFCURVE",
"702 328 OFFCURVE",
"726 328 CURVE SMOOTH",
"750 328 OFFCURVE",
"773 313 OFFCURVE",
"773 283 CURVE SMOOTH",
"773 170 LINE SMOOTH",
"773 102 OFFCURVE",
"811 68 OFFCURVE",
"899 68 CURVE SMOOTH",
"1030 68 OFFCURVE",
"1058 134 OFFCURVE",
"1058 364 CURVE SMOOTH",
"1058 1085 LINE",
"778 1085 LINE SMOOTH",
"746 1085 OFFCURVE",
"730 1106 OFFCURVE",
"730 1127 CURVE SMOOTH",
"730 1149 OFFCURVE",
"746 1171 OFFCURVE",
"779 1171 CURVE SMOOTH",
"1224 1171 LINE SMOOTH",
"1257 1171 OFFCURVE",
"1274 1150 OFFCURVE",
"1274 1128 CURVE SMOOTH",
"1274 1107 OFFCURVE",
"1258 1085 OFFCURVE",
"1225 1085 CURVE SMOOTH",
"1154 1085 LINE",
"1154 367 LINE SMOOTH"
);
}
);
width = 1240;
},
{
layerId = "48AFDEF4-2FAB-4AB6-AB64-D7DFD8485508";
width = 600;
},
{
layerId = "1027097C-2ACB-4125-B942-0F8B60E4A4BD";
paths = (
{
closed = 1;
nodes = (
"383 1171 OFFCURVE",
"400 1149 OFFCURVE",
"400 1127 CURVE SMOOTH",
"400 1106 OFFCURVE",
"383 1085 OFFCURVE",
"350 1085 CURVE SMOOTH",
"198 1085 LINE",
"198 86 LINE",
"475 86 LINE SMOOTH",
"483 86 OFFCURVE",
"482 88 OFFCURVE",
"483 99 CURVE SMOOTH",
"490 389 LINE",
"494 418 OFFCURVE",
"517 432 OFFCURVE",
"540 432 CURVE SMOOTH",
"566 432 OFFCURVE",
"591 415 OFFCURVE",
"591 383 CURVE SMOOTH",
"591 66 LINE",
"586 29 OFFCURVE",
"562 0 OFFCURVE",
"519 0 CURVE SMOOTH",
"64 0 LINE SMOOTH",
"30 0 OFFCURVE",
"13 21 OFFCURVE",
"13 43 CURVE SMOOTH",
"13 64 OFFCURVE",
"30 86 OFFCURVE",
"63 86 CURVE SMOOTH",
"102 86 LINE",
"102 1085 LINE",
"55 1085 LINE SMOOTH",
"22 1085 OFFCURVE",
"6 1106 OFFCURVE",
"6 1127 CURVE SMOOTH",
"6 1149 OFFCURVE",
"23 1171 OFFCURVE",
"56 1171 CURVE SMOOTH",
"349 1171 LINE SMOOTH"
);
},
{
closed = 1;
nodes = (
"1154 72 OFFCURVE",
"1083 -13 OFFCURVE",
"890 -13 CURVE SMOOTH",
"758 -13 OFFCURVE",
"677 56 OFFCURVE",
"677 171 CURVE SMOOTH",
"677 283 LINE SMOOTH",
"677 312 OFFCURVE",
"702 328 OFFCURVE",
"726 328 CURVE SMOOTH",
"750 328 OFFCURVE",
"773 313 OFFCURVE",
"773 283 CURVE SMOOTH",
"773 170 LINE SMOOTH",
"773 102 OFFCURVE",
"811 68 OFFCURVE",
"899 68 CURVE SMOOTH",
"1030 68 OFFCURVE",
"1058 134 OFFCURVE",
"1058 364 CURVE SMOOTH",
"1058 1085 LINE",
"778 1085 LINE SMOOTH",
"746 1085 OFFCURVE",
"730 1106 OFFCURVE",
"730 1127 CURVE SMOOTH",
"730 1149 OFFCURVE",
"746 1171 OFFCURVE",
"779 1171 CURVE SMOOTH",
"1224 1171 LINE SMOOTH",
"1257 1171 OFFCURVE",
"1274 1150 OFFCURVE",
"1274 1128 CURVE SMOOTH",
"1274 1107 OFFCURVE",
"1258 1085 OFFCURVE",
"1225 1085 CURVE SMOOTH",
"1154 1085 LINE",
"1154 367 LINE SMOOTH"
);
}
);
width = 1240;
},
{
components = (
{
name = J;
},
{
name = L;
transform = "{1, 0, 0, 1, 2048, 0}";
}
);
layerId = "87D9408F-A41F-4898-A746-FF2057AB3891";
width = 4096;
}
);
unicode = 01C7;
},
{
glyphname = uni01C8;
lastChange = "2018-12-02 23:35:38 +0000";
layers = (
{
layerId = master01;
paths = (
{
closed = 1;
nodes = (
"1068 1171 OFFCURVE",
"1104 1134 OFFCURVE",
"1104 1088 CURVE SMOOTH",
"1104 1042 OFFCURVE",
"1068 1006 OFFCURVE",
"1022 1006 CURVE SMOOTH",
"976 1006 OFFCURVE",
"939 1042 OFFCURVE",
"939 1088 CURVE SMOOTH",
"939 1134 OFFCURVE",
"976 1171 OFFCURVE",
"1022 1171 CURVE SMOOTH"
);
},
{
closed = 1;
nodes = (
"498 1171 OFFCURVE",
"515 1149 OFFCURVE",
"515 1127 CURVE SMOOTH",
"515 1106 OFFCURVE",
"498 1085 OFFCURVE",
"465 1085 CURVE SMOOTH",
"353 1085 LINE",
"353 86 LINE",
"645 86 LINE",
"667 88 OFFCURVE",
"683 92 OFFCURVE",
"686 123 CURVE SMOOTH",
"720 399 LINE SMOOTH",
"724 428 OFFCURVE",
"747 442 OFFCURVE",
"770 442 CURVE SMOOTH",
"796 442 OFFCURVE",
"821 425 OFFCURVE",
"821 393 CURVE SMOOTH",
"821 387 LINE",
"791 66 LINE",
"786 29 OFFCURVE",
"762 0 OFFCURVE",
"719 0 CURVE SMOOTH",
"113 0 LINE SMOOTH",
"79 0 OFFCURVE",
"62 21 OFFCURVE",
"62 43 CURVE SMOOTH",
"62 64 OFFCURVE",
"79 86 OFFCURVE",
"112 86 CURVE SMOOTH",
"257 86 LINE",
"257 1085 LINE",
"154 1085 LINE SMOOTH",
"121 1085 OFFCURVE",
"105 1106 OFFCURVE",
"105 1127 CURVE SMOOTH",
"105 1149 OFFCURVE",
"122 1171 OFFCURVE",
"155 1171 CURVE SMOOTH",
"464 1171 LINE SMOOTH"
);
},
{
closed = 1;
nodes = (
"695 -309 OFFCURVE",
"677 -287 OFFCURVE",
"677 -265 CURVE SMOOTH",
"677 -243 OFFCURVE",
"696 -220 OFFCURVE",
"735 -220 CURVE SMOOTH",
"910 -220 OFFCURVE",
"1020 -155 OFFCURVE",
"1020 0 CURVE SMOOTH",
"1020 732 LINE",
"754 732 LINE SMOOTH",
"725 732 OFFCURVE",
"710 754 OFFCURVE",
"710 775 CURVE SMOOTH",
"710 795 OFFCURVE",
"724 814 OFFCURVE",
"750 814 CURVE SMOOTH",
"1080 814 LINE SMOOTH",
"1100 814 OFFCURVE",
"1116 806 OFFCURVE",
"1116 785 CURVE SMOOTH",
"1116 -10 LINE SMOOTH",
"1116 -198 OFFCURVE",
"973 -309 OFFCURVE",
"728 -309 CURVE SMOOTH"
);
}
);
width = 1240;
},
{
layerId = "48AFDEF4-2FAB-4AB6-AB64-D7DFD8485508";
width = 600;
},
{
layerId = "1027097C-2ACB-4125-B942-0F8B60E4A4BD";
paths = (
{
closed = 1;
nodes = (
"1068 1171 OFFCURVE",
"1104 1134 OFFCURVE",
"1104 1088 CURVE SMOOTH",
"1104 1042 OFFCURVE",
"1068 1006 OFFCURVE",
"1022 1006 CURVE SMOOTH",
"976 1006 OFFCURVE",
"939 1042 OFFCURVE",
"939 1088 CURVE SMOOTH",
"939 1134 OFFCURVE",
"976 1171 OFFCURVE",
"1022 1171 CURVE SMOOTH"
);
},
{
closed = 1;
nodes = (
"498 1171 OFFCURVE",
"515 1149 OFFCURVE",
"515 1127 CURVE SMOOTH",
"515 1106 OFFCURVE",
"498 1085 OFFCURVE",
"465 1085 CURVE SMOOTH",
"353 1085 LINE",
"353 86 LINE",
"645 86 LINE",
"667 88 OFFCURVE",
"683 92 OFFCURVE",
"686 123 CURVE SMOOTH",
"720 399 LINE SMOOTH",
"724 428 OFFCURVE",
"747 442 OFFCURVE",
"770 442 CURVE SMOOTH",
"796 442 OFFCURVE",
"821 425 OFFCURVE",
"821 393 CURVE SMOOTH",
"821 387 LINE",
"791 66 LINE",
"786 29 OFFCURVE",
"762 0 OFFCURVE",
"719 0 CURVE SMOOTH",
"113 0 LINE SMOOTH",
"79 0 OFFCURVE",
"62 21 OFFCURVE",
"62 43 CURVE SMOOTH",
"62 64 OFFCURVE",
"79 86 OFFCURVE",
"112 86 CURVE SMOOTH",
"257 86 LINE",
"257 1085 LINE",
"154 1085 LINE SMOOTH",
"121 1085 OFFCURVE",
"105 1106 OFFCURVE",
"105 1127 CURVE SMOOTH",
"105 1149 OFFCURVE",
"122 1171 OFFCURVE",
"155 1171 CURVE SMOOTH",
"464 1171 LINE SMOOTH"
);
},
{
closed = 1;
nodes = (
"695 -309 OFFCURVE",
"677 -287 OFFCURVE",
"677 -265 CURVE SMOOTH",
"677 -243 OFFCURVE",
"696 -220 OFFCURVE",
"735 -220 CURVE SMOOTH",
"910 -220 OFFCURVE",
"1020 -155 OFFCURVE",
"1020 0 CURVE SMOOTH",
"1020 732 LINE",
"754 732 LINE SMOOTH",
"725 732 OFFCURVE",
"710 754 OFFCURVE",
"710 775 CURVE SMOOTH",
"710 795 OFFCURVE",
"724 814 OFFCURVE",
"750 814 CURVE SMOOTH",
"1080 814 LINE SMOOTH",
"1100 814 OFFCURVE",
"1116 806 OFFCURVE",
"1116 785 CURVE SMOOTH",
"1116 -10 LINE SMOOTH",
"1116 -198 OFFCURVE",
"973 -309 OFFCURVE",
"728 -309 CURVE SMOOTH"
);
}
);
width = 1240;
},
{
components = (
{
name = L;
},
{
name = j;
transform = "{1, 0, 0, 1, 2048, 0}";
}
);
layerId = "87D9408F-A41F-4898-A746-FF2057AB3891";
width = 4096;
}
);
unicode = 01C8;
},
{
glyphname = uni01CA;
lastChange = "2018-12-02 23:35:38 +0000";
layers = (
{
layerId = master01;
paths = (
{
closed = 1;
nodes = (
"46 1085 OFFCURVE",
"30 1106 OFFCURVE",
"30 1127 CURVE SMOOTH",
"30 1149 OFFCURVE",
"47 1171 OFFCURVE",
"80 1171 CURVE SMOOTH",
"262 1171 LINE SMOOTH",
"284 1171 OFFCURVE",
"296 1164 OFFCURVE",
"302 1147 CURVE SMOOTH",
"583 282 LINE",
"583 1085 LINE",
"504 1085 LINE SMOOTH",
"471 1085 OFFCURVE",
"455 1106 OFFCURVE",
"455 1127 CURVE SMOOTH",
"455 1149 OFFCURVE",
"472 1171 OFFCURVE",
"506 1171 CURVE SMOOTH",
"1224 1171 LINE SMOOTH",
"1257 1171 OFFCURVE",
"1274 1150 OFFCURVE",
"1274 1128 CURVE SMOOTH",
"1274 1107 OFFCURVE",
"1258 1085 OFFCURVE",
"1225 1085 CURVE SMOOTH",
"1154 1085 LINE",
"1154 307 LINE SMOOTH",
"1154 48 OFFCURVE",
"1055 -14 OFFCURVE",
"951 -14 CURVE SMOOTH",
"876 -14 OFFCURVE",
"787 48 OFFCURVE",
"787 181 CURVE SMOOTH",
"787 233 LINE SMOOTH",
"787 262 OFFCURVE",
"812 278 OFFCURVE",
"836 278 CURVE SMOOTH",
"860 278 OFFCURVE",
"883 263 OFFCURVE",
"883 233 CURVE SMOOTH",
"883 180 LINE SMOOTH",
"883 86 OFFCURVE",
"933 68 OFFCURVE",
"964 68 CURVE SMOOTH",
"1015 68 OFFCURVE",
"1058 103 OFFCURVE",
"1058 304 CURVE SMOOTH",
"1058 1085 LINE",
"679 1085 LINE",
"679 47 LINE SMOOTH",
"679 4 OFFCURVE",
"656 -16 OFFCURVE",
"630 -16 CURVE SMOOTH",
"609 -16 OFFCURVE",
"583 -3 OFFCURVE",
"574 22 CURVE SMOOTH",
"231 1064 LINE",
"231 86 LINE",
"299 86 LINE SMOOTH",
"332 86 OFFCURVE",
"348 64 OFFCURVE",
"348 43 CURVE SMOOTH",
"348 21 OFFCURVE",
"331 0 OFFCURVE",
"298 0 CURVE SMOOTH",
"100 0 LINE SMOOTH",
"67 0 OFFCURVE",
"50 21 OFFCURVE",
"50 43 CURVE SMOOTH",
"50 64 OFFCURVE",
"66 86 OFFCURVE",
"99 86 CURVE SMOOTH",
"135 86 LINE",
"135 1085 LINE",
"79 1085 LINE SMOOTH"
);
}
);
width = 1240;
},
{
layerId = "48AFDEF4-2FAB-4AB6-AB64-D7DFD8485508";
width = 600;
},
{
layerId = "1027097C-2ACB-4125-B942-0F8B60E4A4BD";
paths = (
{
closed = 1;
nodes = (
"46 1085 OFFCURVE",
"30 1106 OFFCURVE",
"30 1127 CURVE SMOOTH",
"30 1149 OFFCURVE",
"47 1171 OFFCURVE",
"80 1171 CURVE SMOOTH",
"262 1171 LINE SMOOTH",
"284 1171 OFFCURVE",
"296 1164 OFFCURVE",
"302 1147 CURVE SMOOTH",
"583 282 LINE",
"583 1085 LINE",
"504 1085 LINE SMOOTH",
"471 1085 OFFCURVE",
"455 1106 OFFCURVE",
"455 1127 CURVE SMOOTH",
"455 1149 OFFCURVE",
"472 1171 OFFCURVE",
"506 1171 CURVE SMOOTH",
"1224 1171 LINE SMOOTH",
"1257 1171 OFFCURVE",
"1274 1150 OFFCURVE",
"1274 1128 CURVE SMOOTH",
"1274 1107 OFFCURVE",
"1258 1085 OFFCURVE",
"1225 1085 CURVE SMOOTH",
"1154 1085 LINE",
"1154 307 LINE SMOOTH",
"1154 48 OFFCURVE",
"1055 -14 OFFCURVE",
"951 -14 CURVE SMOOTH",
"876 -14 OFFCURVE",
"787 48 OFFCURVE",
"787 181 CURVE SMOOTH",
"787 233 LINE SMOOTH",
"787 262 OFFCURVE",
"812 278 OFFCURVE",
"836 278 CURVE SMOOTH",
"860 278 OFFCURVE",
"883 263 OFFCURVE",
"883 233 CURVE SMOOTH",
"883 180 LINE SMOOTH",
"883 86 OFFCURVE",
"933 68 OFFCURVE",
"964 68 CURVE SMOOTH",
"1015 68 OFFCURVE",
"1058 103 OFFCURVE",
"1058 304 CURVE SMOOTH",
"1058 1085 LINE",
"679 1085 LINE",
"679 47 LINE SMOOTH",
"679 4 OFFCURVE",
"656 -16 OFFCURVE",
"630 -16 CURVE SMOOTH",
"609 -16 OFFCURVE",
"583 -3 OFFCURVE",
"574 22 CURVE SMOOTH",
"231 1064 LINE",
"231 86 LINE",
"299 86 LINE SMOOTH",
"332 86 OFFCURVE",
"348 64 OFFCURVE",
"348 43 CURVE SMOOTH",
"348 21 OFFCURVE",
"331 0 OFFCURVE",
"298 0 CURVE SMOOTH",
"100 0 LINE SMOOTH",
"67 0 OFFCURVE",
"50 21 OFFCURVE",
"50 43 CURVE SMOOTH",
"50 64 OFFCURVE",
"66 86 OFFCURVE",
"99 86 CURVE SMOOTH",
"135 86 LINE",
"135 1085 LINE",
"79 1085 LINE SMOOTH"
);
}
);
width = 1240;
},
{
components = (
{
name = J;
},
{
name = N;
transform = "{1, 0, 0, 1, 2048, 0}";
}
);
layerId = "87D9408F-A41F-4898-A746-FF2057AB3891";
width = 4096;
}
);
unicode = 01CA;
},
{
glyphname = uni01CB;
lastChange = "2018-12-02 23:35:38 +0000";
layers = (
{
layerId = master01;
paths = (
{
closed = 1;
nodes = (
"1098 1171 OFFCURVE",
"1134 1134 OFFCURVE",
"1134 1088 CURVE SMOOTH",
"1134 1042 OFFCURVE",
"1098 1006 OFFCURVE",
"1052 1006 CURVE SMOOTH",
"1006 1006 OFFCURVE",
"969 1042 OFFCURVE",
"969 1088 CURVE SMOOTH",
"969 1134 OFFCURVE",
"1006 1171 OFFCURVE",
"1052 1171 CURVE SMOOTH"
);
},
{
closed = 1;
nodes = (
"715 -309 OFFCURVE",
"697 -287 OFFCURVE",
"697 -265 CURVE SMOOTH",
"697 -243 OFFCURVE",
"716 -220 OFFCURVE",
"755 -220 CURVE SMOOTH",
"930 -220 OFFCURVE",
"1040 -155 OFFCURVE",
"1040 0 CURVE SMOOTH",
"1040 732 LINE",
"854 732 LINE SMOOTH",
"825 732 OFFCURVE",
"810 754 OFFCURVE",
"810 775 CURVE SMOOTH",
"810 795 OFFCURVE",
"824 814 OFFCURVE",
"850 814 CURVE SMOOTH",
"1100 814 LINE SMOOTH",
"1120 814 OFFCURVE",
"1136 806 OFFCURVE",
"1136 785 CURVE SMOOTH",
"1136 -10 LINE SMOOTH",
"1136 -198 OFFCURVE",
"993 -309 OFFCURVE",
"748 -309 CURVE SMOOTH"
);
},
{
closed = 1;
nodes = (
"46 1085 OFFCURVE",
"30 1106 OFFCURVE",
"30 1127 CURVE SMOOTH",
"30 1149 OFFCURVE",
"47 1171 OFFCURVE",
"80 1171 CURVE SMOOTH",
"292 1171 LINE SMOOTH",
"314 1171 OFFCURVE",
"326 1164 OFFCURVE",
"332 1147 CURVE SMOOTH",
"643 282 LINE",
"643 1085 LINE",
"564 1085 LINE SMOOTH",
"531 1085 OFFCURVE",
"515 1106 OFFCURVE",
"515 1127 CURVE SMOOTH",
"515 1149 OFFCURVE",
"532 1171 OFFCURVE",
"566 1171 CURVE SMOOTH",
"793 1171 LINE SMOOTH",
"826 1171 OFFCURVE",
"843 1149 OFFCURVE",
"843 1127 CURVE SMOOTH",
"843 1106 OFFCURVE",
"827 1085 OFFCURVE",
"795 1085 CURVE SMOOTH",
"739 1085 LINE",
"739 47 LINE SMOOTH",
"739 4 OFFCURVE",
"716 -16 OFFCURVE",
"690 -16 CURVE SMOOTH",
"669 -16 OFFCURVE",
"643 -3 OFFCURVE",
"634 22 CURVE SMOOTH",
"261 1064 LINE",
"261 86 LINE",
"329 86 LINE SMOOTH",
"362 86 OFFCURVE",
"378 64 OFFCURVE",
"378 43 CURVE SMOOTH",
"378 21 OFFCURVE",
"361 0 OFFCURVE",
"328 0 CURVE SMOOTH",
"100 0 LINE SMOOTH",
"67 0 OFFCURVE",
"50 21 OFFCURVE",
"50 43 CURVE SMOOTH",
"50 64 OFFCURVE",
"66 86 OFFCURVE",
"99 86 CURVE SMOOTH",
"165 86 LINE",
"165 1085 LINE",
"79 1085 LINE SMOOTH"
);
}
);
width = 1240;
},
{
layerId = "48AFDEF4-2FAB-4AB6-AB64-D7DFD8485508";
width = 600;
},
{
layerId = "1027097C-2ACB-4125-B942-0F8B60E4A4BD";
paths = (
{
closed = 1;
nodes = (
"1098 1171 OFFCURVE",
"1134 1134 OFFCURVE",
"1134 1088 CURVE SMOOTH",
"1134 1042 OFFCURVE",
"1098 1006 OFFCURVE",
"1052 1006 CURVE SMOOTH",
"1006 1006 OFFCURVE",
"969 1042 OFFCURVE",
"969 1088 CURVE SMOOTH",
"969 1134 OFFCURVE",
"1006 1171 OFFCURVE",
"1052 1171 CURVE SMOOTH"
);
},
{
closed = 1;
nodes = (
"715 -309 OFFCURVE",
"697 -287 OFFCURVE",
"697 -265 CURVE SMOOTH",
"697 -243 OFFCURVE",
"716 -220 OFFCURVE",
"755 -220 CURVE SMOOTH",
"930 -220 OFFCURVE",
"1040 -155 OFFCURVE",
"1040 0 CURVE SMOOTH",
"1040 732 LINE",
"854 732 LINE SMOOTH",
"825 732 OFFCURVE",
"810 754 OFFCURVE",
"810 775 CURVE SMOOTH",
"810 795 OFFCURVE",
"824 814 OFFCURVE",
"850 814 CURVE SMOOTH",
"1100 814 LINE SMOOTH",
"1120 814 OFFCURVE",
"1136 806 OFFCURVE",
"1136 785 CURVE SMOOTH",
"1136 -10 LINE SMOOTH",
"1136 -198 OFFCURVE",
"993 -309 OFFCURVE",
"748 -309 CURVE SMOOTH"
);
},
{
closed = 1;
nodes = (
"46 1085 OFFCURVE",
"30 1106 OFFCURVE",
"30 1127 CURVE SMOOTH",
"30 1149 OFFCURVE",
"47 1171 OFFCURVE",
"80 1171 CURVE SMOOTH",
"292 1171 LINE SMOOTH",
"314 1171 OFFCURVE",
"326 1164 OFFCURVE",
"332 1147 CURVE SMOOTH",
"643 282 LINE",
"643 1085 LINE",
"564 1085 LINE SMOOTH",
"531 1085 OFFCURVE",
"515 1106 OFFCURVE",
"515 1127 CURVE SMOOTH",
"515 1149 OFFCURVE",
"532 1171 OFFCURVE",
"566 1171 CURVE SMOOTH",
"793 1171 LINE SMOOTH",
"826 1171 OFFCURVE",
"843 1149 OFFCURVE",
"843 1127 CURVE SMOOTH",
"843 1106 OFFCURVE",
"827 1085 OFFCURVE",
"795 1085 CURVE SMOOTH",
"739 1085 LINE",
"739 47 LINE SMOOTH",
"739 4 OFFCURVE",
"716 -16 OFFCURVE",
"690 -16 CURVE SMOOTH",
"669 -16 OFFCURVE",
"643 -3 OFFCURVE",
"634 22 CURVE SMOOTH",
"261 1064 LINE",
"261 86 LINE",
"329 86 LINE SMOOTH",
"362 86 OFFCURVE",
"378 64 OFFCURVE",
"378 43 CURVE SMOOTH",
"378 21 OFFCURVE",
"361 0 OFFCURVE",
"328 0 CURVE SMOOTH",
"100 0 LINE SMOOTH",
"67 0 OFFCURVE",
"50 21 OFFCURVE",
"50 43 CURVE SMOOTH",
"50 64 OFFCURVE",
"66 86 OFFCURVE",
"99 86 CURVE SMOOTH",
"165 86 LINE",
"165 1085 LINE",
"79 1085 LINE SMOOTH"
);
}
);
width = 1240;
},
{
components = (
{
name = N;
},
{
name = j;
transform = "{1, 0, 0, 1, 2048, 0}";
}
);
layerId = "87D9408F-A41F-4898-A746-FF2057AB3891";
width = 4096;
}
);
unicode = 01CB;
},
{
glyphname = uni01F1;
lastChange = "2018-12-03 21:27:24 +0000";
layers = (
{
layerId = master01;
paths = (
{
closed = 1;
nodes = (
"496 86 OFFCURVE",
"553 256 OFFCURVE",
"553 591 CURVE SMOOTH",
"553 907 OFFCURVE",
"488 1085 OFFCURVE",
"235 1085 CURVE",
"235 86 LINE"
);
},
{
closed = 1;
nodes = (
"739 0 LINE SMOOTH",
"715 0 OFFCURVE",
"704 14 OFFCURVE",
"704 39 CURVE SMOOTH",
"704 54 OFFCURVE",
"708 73 OFFCURVE",
"715 95 CURVE SMOOTH",
"1038 1085 LINE",
"818 1085 LINE",
"818 857 LINE SMOOTH",
"818 830 OFFCURVE",
"795 817 OFFCURVE",
"773 817 CURVE SMOOTH",
"748 817 OFFCURVE",
"732 834 OFFCURVE",
"732 866 CURVE SMOOTH",
"732 1116 LINE",
"733 1144 OFFCURVE",
"739 1171 OFFCURVE",
"790 1171 CURVE SMOOTH",
"1090 1171 LINE SMOOTH",
"1125 1171 OFFCURVE",
"1132 1137 OFFCURVE",
"1132 1111 CURVE SMOOTH",
"1132 1097 OFFCURVE",
"1130 1085 OFFCURVE",
"1129 1081 CURVE SMOOTH",
"811 86 LINE",
"1070 86 LINE",
"1070 314 LINE",
"1072 346 OFFCURVE",
"1093 363 OFFCURVE",
"1116 363 CURVE SMOOTH",
"1137 363 OFFCURVE",
"1162 350 OFFCURVE",
"1162 315 CURVE SMOOTH",
"1162 53 LINE",
"1163 19 OFFCURVE",
"1140 0 OFFCURVE",
"1111 0 CURVE SMOOTH"
);
},
{
closed = 1;
nodes = (
"115 0 LINE SMOOTH",
"81 0 OFFCURVE",
"64 21 OFFCURVE",
"64 43 CURVE SMOOTH",
"64 64 OFFCURVE",
"81 86 OFFCURVE",
"114 86 CURVE SMOOTH",
"139 86 LINE",
"139 1085 LINE",
"118 1085 LINE SMOOTH",
"86 1085 OFFCURVE",
"70 1106 OFFCURVE",
"70 1127 CURVE SMOOTH",
"70 1149 OFFCURVE",
"87 1171 OFFCURVE",
"120 1171 CURVE SMOOTH",
"230 1171 LINE SMOOTH",
"525 1171 OFFCURVE",
"649 993 OFFCURVE",
"649 591 CURVE SMOOTH",
"649 168 OFFCURVE",
"519 0 OFFCURVE",
"228 0 CURVE SMOOTH"
);
}
);
width = 1240;
},
{
layerId = "48AFDEF4-2FAB-4AB6-AB64-D7DFD8485508";
width = 600;
},
{
layerId = "1027097C-2ACB-4125-B942-0F8B60E4A4BD";
paths = (
{
closed = 1;
nodes = (
"496 86 OFFCURVE",
"553 256 OFFCURVE",
"553 591 CURVE SMOOTH",
"553 907 OFFCURVE",
"488 1085 OFFCURVE",
"235 1085 CURVE",
"235 86 LINE"
);
},
{
closed = 1;
nodes = (
"739 0 LINE SMOOTH",
"715 0 OFFCURVE",
"704 14 OFFCURVE",
"704 39 CURVE SMOOTH",
"704 54 OFFCURVE",
"708 73 OFFCURVE",
"715 95 CURVE SMOOTH",
"1038 1085 LINE",
"818 1085 LINE",
"818 857 LINE SMOOTH",
"818 830 OFFCURVE",
"795 817 OFFCURVE",
"773 817 CURVE SMOOTH",
"748 817 OFFCURVE",
"732 834 OFFCURVE",
"732 866 CURVE SMOOTH",
"732 1116 LINE",
"733 1144 OFFCURVE",
"739 1171 OFFCURVE",
"790 1171 CURVE SMOOTH",
"1090 1171 LINE SMOOTH",
"1125 1171 OFFCURVE",
"1132 1137 OFFCURVE",
"1132 1111 CURVE SMOOTH",
"1132 1097 OFFCURVE",
"1130 1085 OFFCURVE",
"1129 1081 CURVE SMOOTH",
"811 86 LINE",
"1070 86 LINE",
"1070 314 LINE",
"1072 346 OFFCURVE",
"1093 363 OFFCURVE",
"1116 363 CURVE SMOOTH",
"1137 363 OFFCURVE",
"1162 350 OFFCURVE",
"1162 315 CURVE SMOOTH",
"1162 53 LINE",
"1163 19 OFFCURVE",
"1140 0 OFFCURVE",
"1111 0 CURVE SMOOTH"
);
},
{
closed = 1;
nodes = (
"115 0 LINE SMOOTH",
"81 0 OFFCURVE",
"64 21 OFFCURVE",
"64 43 CURVE SMOOTH",
"64 64 OFFCURVE",
"81 86 OFFCURVE",
"114 86 CURVE SMOOTH",
"139 86 LINE",
"139 1085 LINE",
"118 1085 LINE SMOOTH",
"86 1085 OFFCURVE",
"70 1106 OFFCURVE",
"70 1127 CURVE SMOOTH",
"70 1149 OFFCURVE",
"87 1171 OFFCURVE",
"120 1171 CURVE SMOOTH",
"230 1171 LINE SMOOTH",
"525 1171 OFFCURVE",
"649 993 OFFCURVE",
"649 591 CURVE SMOOTH",
"649 168 OFFCURVE",
"519 0 OFFCURVE",
"228 0 CURVE SMOOTH"
);
}
);
width = 1240;
},
{
components = (
{
name = D;
},
{
name = Z;
transform = "{1, 0, 0, 1, 1494, 0}";
}
);
layerId = "87D9408F-A41F-4898-A746-FF2057AB3891";
width = 3542;
}
);
unicode = 01F1;
},
{
glyphname = uni01F2;
lastChange = "2018-12-03 21:27:24 +0000";
layers = (
{
layerId = master01;
paths = (
{
closed = 1;
nodes = (
"1135 772 OFFCURVE",
"1150 750 OFFCURVE",
"1150 727 CURVE SMOOTH",
"1150 710 OFFCURVE",
"1138 695 OFFCURVE",
"1132 682 CURVE SMOOTH",
"860 82 LINE",
"1065 82 LINE",
"1076 259 LINE SMOOTH",
"1077 283 OFFCURVE",
"1099 297 OFFCURVE",
"1120 297 CURVE SMOOTH",
"1141 297 OFFCURVE",
"1161 284 OFFCURVE",
"1161 255 CURVE SMOOTH",
"1161 46 LINE SMOOTH",
"1161 21 OFFCURVE",
"1134 0 OFFCURVE",
"1110 0 CURVE SMOOTH",
"806 0 LINE SMOOTH",
"768 0 OFFCURVE",
"750 24 OFFCURVE",
"750 59 CURVE SMOOTH",
"750 81 OFFCURVE",
"761 97 OFFCURVE",
"767 109 CURVE SMOOTH",
"1034 692 LINE",
"831 692 LINE",
"823 535 LINE SMOOTH",
"822 505 OFFCURVE",
"802 490 OFFCURVE",
"781 490 CURVE SMOOTH",
"759 490 OFFCURVE",
"736 507 OFFCURVE",
"736 540 CURVE SMOOTH",
"736 726 LINE SMOOTH",
"736 750 OFFCURVE",
"758 772 OFFCURVE",
"782 772 CURVE SMOOTH",
"1089 772 LINE SMOOTH"
);
},
{
closed = 1;
nodes = (
"496 86 OFFCURVE",
"553 256 OFFCURVE",
"553 591 CURVE SMOOTH",
"553 907 OFFCURVE",
"488 1085 OFFCURVE",
"235 1085 CURVE",
"235 86 LINE"
);
},
{
closed = 1;
nodes = (
"115 0 LINE SMOOTH",
"81 0 OFFCURVE",
"64 21 OFFCURVE",
"64 43 CURVE SMOOTH",
"64 64 OFFCURVE",
"81 86 OFFCURVE",
"114 86 CURVE SMOOTH",
"139 86 LINE",
"139 1085 LINE",
"118 1085 LINE SMOOTH",
"86 1085 OFFCURVE",
"70 1106 OFFCURVE",
"70 1127 CURVE SMOOTH",
"70 1149 OFFCURVE",
"87 1171 OFFCURVE",
"120 1171 CURVE SMOOTH",
"230 1171 LINE SMOOTH",
"525 1171 OFFCURVE",
"649 993 OFFCURVE",
"649 591 CURVE SMOOTH",
"649 168 OFFCURVE",
"519 0 OFFCURVE",
"228 0 CURVE SMOOTH"
);
}
);
width = 1240;
},
{
layerId = "48AFDEF4-2FAB-4AB6-AB64-D7DFD8485508";
width = 600;
},
{
layerId = "1027097C-2ACB-4125-B942-0F8B60E4A4BD";
paths = (
{
closed = 1;
nodes = (
"1135 772 OFFCURVE",
"1150 750 OFFCURVE",
"1150 727 CURVE SMOOTH",
"1150 710 OFFCURVE",
"1138 695 OFFCURVE",
"1132 682 CURVE SMOOTH",
"860 82 LINE",
"1065 82 LINE",
"1076 259 LINE SMOOTH",
"1077 283 OFFCURVE",
"1099 297 OFFCURVE",
"1120 297 CURVE SMOOTH",
"1141 297 OFFCURVE",
"1161 284 OFFCURVE",
"1161 255 CURVE SMOOTH",
"1161 46 LINE SMOOTH",
"1161 21 OFFCURVE",
"1134 0 OFFCURVE",
"1110 0 CURVE SMOOTH",
"806 0 LINE SMOOTH",
"768 0 OFFCURVE",
"750 24 OFFCURVE",
"750 59 CURVE SMOOTH",
"750 81 OFFCURVE",
"761 97 OFFCURVE",
"767 109 CURVE SMOOTH",
"1034 692 LINE",
"831 692 LINE",
"823 535 LINE SMOOTH",
"822 505 OFFCURVE",
"802 490 OFFCURVE",
"781 490 CURVE SMOOTH",
"759 490 OFFCURVE",
"736 507 OFFCURVE",
"736 540 CURVE SMOOTH",
"736 726 LINE SMOOTH",
"736 750 OFFCURVE",
"758 772 OFFCURVE",
"782 772 CURVE SMOOTH",
"1089 772 LINE SMOOTH"
);
},
{
closed = 1;
nodes = (
"496 86 OFFCURVE",
"553 256 OFFCURVE",
"553 591 CURVE SMOOTH",
"553 907 OFFCURVE",
"488 1085 OFFCURVE",
"235 1085 CURVE",
"235 86 LINE"
);
},
{
closed = 1;
nodes = (
"115 0 LINE SMOOTH",
"81 0 OFFCURVE",
"64 21 OFFCURVE",
"64 43 CURVE SMOOTH",
"64 64 OFFCURVE",
"81 86 OFFCURVE",
"114 86 CURVE SMOOTH",
"139 86 LINE",
"139 1085 LINE",
"118 1085 LINE SMOOTH",
"86 1085 OFFCURVE",
"70 1106 OFFCURVE",
"70 1127 CURVE SMOOTH",
"70 1149 OFFCURVE",
"87 1171 OFFCURVE",
"120 1171 CURVE SMOOTH",
"230 1171 LINE SMOOTH",
"525 1171 OFFCURVE",
"649 993 OFFCURVE",
"649 591 CURVE SMOOTH",
"649 168 OFFCURVE",
"519 0 OFFCURVE",
"228 0 CURVE SMOOTH"
);
}
);
width = 1240;
},
{
components = (
{
name = D;
},
{
name = z;
transform = "{1, 0, 0, 1, 1494, 0}";
}
);
layerId = "87D9408F-A41F-4898-A746-FF2057AB3891";
width = 3542;
}
);
unicode = 01F2;
},
